{"glyphs":{"0":{"ha":810,"x_min":112,"x_max":698,"o":"m 405 134 q 293 181 340 134 q 247 292 247 227 q 254 308 247 302 q 270 315 260 315 q 286 308 279 315 q 293 292 293 302 q 326 213 293 246 q 405 180 359 180 q 484 213 451 180 q 517 292 517 246 l 517 697 q 484 776 517 743 q 405 809 451 809 q 326 776 359 809 q 293 697 293 743 l 293 427 q 286 411 293 418 q 270 405 279 405 q 254 411 260 405 q 247 427 247 418 l 247 697 q 293 809 248 762 q 405 855 342 855 q 516 809 470 855 q 563 697 563 762 l 563 292 q 516 181 563 227 q 405 134 470 134 m 405 -1 q 258 39 324 -1 q 152 145 191 79 q 112 292 112 212 q 119 308 112 302 q 135 315 125 315 q 151 308 144 315 q 158 292 158 302 q 191 168 158 224 q 281 79 224 112 q 405 45 337 45 q 529 79 473 45 q 618 168 585 112 q 652 292 652 224 l 652 697 q 618 822 652 766 q 529 911 585 878 q 405 944 473 944 q 281 911 337 944 q 191 822 224 878 q 158 697 158 766 l 158 427 q 151 411 158 418 q 135 405 144 405 q 119 411 125 405 q 112 427 112 418 l 112 697 q 198 905 113 818 q 405 990 288 990 q 552 950 486 990 q 658 844 618 911 q 698 697 698 778 l 698 292 q 658 145 698 212 q 552 39 618 79 q 405 -1 486 -1 z "},"1":{"ha":810,"x_min":113,"x_max":697,"o":"m 675 134 l 473 134 q 456 141 463 134 q 450 157 450 148 l 450 944 l 135 944 q 119 951 125 944 q 113 967 113 958 q 119 983 113 977 q 135 990 125 990 l 473 990 q 488 983 481 990 q 495 967 495 977 l 495 180 l 675 180 q 691 174 684 180 q 697 157 697 167 q 691 141 697 148 q 675 134 684 134 m 675 -1 l 135 -1 q 119 6 125 -1 q 113 22 113 13 q 119 39 113 32 q 135 45 125 45 l 675 45 q 691 39 684 45 q 697 22 697 32 q 691 6 697 13 q 675 -1 684 -1 m 337 134 l 135 134 q 119 141 125 134 q 113 157 113 148 q 119 174 113 167 q 135 180 125 180 l 315 180 l 315 809 l 135 809 q 119 816 125 809 q 113 832 113 823 q 119 848 113 842 q 135 855 125 855 l 337 855 q 353 848 347 855 q 360 832 360 842 l 360 157 q 353 141 360 148 q 337 134 347 134 z "},"2":{"ha":810,"x_min":112,"x_max":698,"o":"m 540 675 q 524 681 530 675 q 517 697 517 688 q 484 776 517 743 q 405 809 451 809 q 326 776 359 809 q 293 697 293 743 q 286 681 293 688 q 270 675 279 675 q 254 681 260 675 q 247 697 247 688 q 293 809 247 762 q 405 855 340 855 q 516 809 470 855 q 563 697 563 762 q 556 681 563 688 q 540 675 549 675 m 675 675 q 659 681 665 675 q 652 697 652 688 q 618 822 652 766 q 529 911 585 878 q 405 944 473 944 q 281 911 337 944 q 191 822 224 878 q 158 697 158 766 q 151 681 158 688 q 135 675 144 675 q 119 681 125 675 q 112 697 112 688 q 152 844 112 778 q 258 950 191 911 q 405 990 324 990 q 552 950 486 990 q 658 844 618 911 q 698 697 698 778 q 691 681 698 688 q 675 675 684 675 m 138 135 l 134 135 q 121 140 127 135 q 113 158 113 147 q 117 172 113 165 l 434 578 q 452 586 441 586 q 466 581 460 586 q 475 563 475 574 q 470 549 475 556 l 153 143 q 138 135 147 136 m 675 -1 l 135 -1 q 119 6 125 -1 q 113 22 113 13 q 119 39 113 32 q 135 45 125 45 l 675 45 q 691 39 684 45 q 697 22 697 32 q 691 6 697 13 q 675 -1 684 -1 m 675 134 l 306 134 q 286 147 293 134 q 283 157 283 153 q 288 172 283 165 l 622 578 q 639 586 629 586 q 654 580 647 586 q 662 562 662 574 q 657 549 662 555 l 355 180 l 675 180 q 691 174 684 180 q 697 157 697 167 q 691 141 697 148 q 675 134 684 134 z "},"3":{"ha":810,"x_min":120,"x_max":698,"o":"m 405 -1 q 225 60 304 -1 q 121 221 147 121 l 120 227 q 124 239 120 233 q 144 249 130 249 q 165 232 161 249 q 254 97 188 149 q 405 45 319 45 q 529 78 473 45 q 618 168 585 112 q 652 292 652 224 q 570 476 652 397 q 561 494 561 484 q 569 512 561 506 q 652 697 652 591 q 618 821 652 765 q 529 911 585 878 q 405 944 473 944 q 254 893 320 944 q 165 759 189 842 q 143 742 161 742 q 124 753 131 742 q 121 765 121 759 l 121 770 q 227 929 149 869 q 405 990 304 990 q 552 950 486 990 q 658 844 618 911 q 698 697 698 778 q 616 494 698 583 q 698 292 698 406 q 658 145 698 212 q 552 39 618 79 q 405 -1 486 -1 m 405 539 l 338 539 q 321 546 328 539 q 315 562 315 553 q 322 578 315 572 q 338 585 328 585 l 405 585 q 484 618 451 585 q 517 697 517 651 q 484 776 517 743 q 405 809 451 809 q 336 786 366 809 q 296 724 307 762 q 274 707 292 707 l 269 708 q 251 730 251 713 l 252 735 q 308 822 266 789 q 405 855 351 855 q 516 809 470 855 q 563 697 563 762 q 516 586 563 632 q 405 539 470 539 m 405 134 q 308 167 351 134 q 252 254 266 200 l 251 259 q 255 272 251 265 q 274 282 261 282 q 296 265 291 282 q 336 203 307 227 q 405 180 366 180 q 484 213 451 180 q 517 292 517 245 q 484 371 517 338 q 405 404 451 404 l 338 404 q 321 411 328 404 q 315 427 315 418 q 322 444 315 437 q 338 450 328 450 l 405 450 q 516 404 470 450 q 563 292 563 357 q 516 180 563 227 q 405 134 470 134 z "},"4":{"ha":810,"x_min":112,"x_max":698,"o":"m 473 0 q 456 6 463 0 q 450 22 450 13 l 450 201 l 135 201 q 119 209 126 201 q 112 224 112 216 l 112 376 q 410 977 112 380 q 431 990 417 990 q 441 987 436 990 q 454 968 454 981 q 158 370 454 962 l 158 248 l 473 248 q 489 241 482 248 q 496 224 496 234 l 496 22 q 489 6 496 13 q 473 0 481 0 m 675 337 l 608 337 q 591 344 598 337 q 585 360 585 351 l 585 967 q 591 983 585 977 q 608 990 598 990 q 624 983 617 990 q 631 967 631 977 l 631 383 l 675 383 q 691 376 684 383 q 698 360 698 369 q 691 344 698 351 q 675 337 684 337 m 608 0 q 591 6 598 0 q 585 22 585 13 l 585 225 q 591 241 585 235 q 608 248 598 248 l 675 248 q 691 241 684 248 q 698 225 698 234 q 691 209 698 216 q 675 202 684 202 l 631 202 l 631 22 q 624 6 631 13 q 608 0 617 0 m 473 337 q 456 344 463 337 q 450 359 450 351 l 450 652 l 298 349 q 279 338 292 338 q 268 340 273 338 q 256 360 256 347 q 452 759 256 365 q 473 772 459 772 l 477 771 q 496 749 496 767 l 496 359 q 489 344 496 351 q 473 337 481 337 z "},"5":{"ha":810,"x_min":120,"x_max":698,"o":"m 142 405 q 125 414 132 405 q 120 428 120 420 l 188 970 q 195 984 189 979 q 210 990 201 990 l 675 990 q 691 983 684 990 q 697 967 697 977 q 691 951 697 958 q 675 944 684 944 l 231 944 l 165 425 q 157 410 164 415 q 142 405 151 405 m 405 134 q 322 157 360 134 q 264 222 285 180 q 261 232 261 227 q 274 252 261 245 q 285 254 279 254 q 304 242 298 254 q 346 197 319 213 q 405 180 373 180 q 484 213 451 180 q 517 292 517 245 l 517 359 q 484 439 517 406 q 405 471 451 471 q 308 416 345 471 q 288 405 301 405 q 277 408 282 405 q 265 427 265 415 q 268 439 265 433 q 327 496 290 475 q 405 517 363 517 q 516 471 470 517 q 563 359 563 425 l 563 292 q 517 180 562 227 q 405 134 468 134 m 405 -1 q 252 42 321 -1 q 143 161 182 85 q 140 172 140 166 q 153 191 140 185 q 164 194 159 194 q 184 182 178 194 q 275 81 216 118 q 405 45 334 45 q 529 78 473 45 q 618 168 585 112 q 652 292 652 224 l 652 359 q 618 484 652 428 q 529 573 585 540 q 405 606 473 606 q 310 587 355 606 q 302 586 306 586 q 287 591 294 586 q 278 609 278 598 l 307 835 q 314 849 308 844 q 330 855 321 855 l 675 855 q 691 848 684 855 q 697 832 697 842 q 691 816 697 823 q 675 809 684 809 l 350 809 l 328 642 q 405 652 366 652 q 552 613 486 652 q 658 507 618 573 q 698 359 698 440 l 698 292 q 658 144 697 210 q 552 39 618 78 q 405 -1 486 -1 z "},"6":{"ha":810,"x_min":112,"x_max":698,"o":"m 541 36 q 532 37 538 36 q 522 46 526 39 q 517 59 517 53 q 528 78 517 72 q 619 169 586 112 q 652 292 652 227 l 652 359 q 618 484 652 428 q 529 573 585 540 q 405 607 473 607 q 281 574 340 607 q 270 571 276 571 q 254 577 260 571 q 248 593 248 584 l 247 593 l 247 697 q 293 809 247 762 q 405 855 340 855 q 502 822 460 854 q 558 735 544 789 l 559 730 q 555 718 559 724 q 536 707 549 707 q 513 724 518 707 q 474 785 504 762 q 405 809 444 808 q 326 776 359 809 q 293 697 293 743 l 293 630 q 405 652 347 652 q 552 613 486 652 q 658 507 618 573 q 698 359 698 440 l 698 292 q 659 146 698 214 q 551 39 620 79 q 541 36 546 36 m 405 -1 q 258 39 324 -1 q 152 145 191 79 q 112 292 112 212 l 112 697 q 152 844 112 778 q 258 950 191 911 q 405 990 324 990 q 584 929 506 990 q 689 768 663 868 l 690 763 q 686 750 690 756 q 667 740 680 740 q 645 757 649 740 q 556 892 623 841 q 405 944 490 944 q 281 911 337 944 q 191 821 224 878 q 158 697 158 765 l 158 292 q 191 168 158 224 q 281 78 224 112 q 405 45 337 45 q 421 38 414 45 q 428 22 428 32 q 421 6 428 13 q 405 -1 414 -1 m 405 134 q 293 180 340 134 q 247 292 247 227 l 247 359 q 293 471 247 425 q 405 517 340 517 q 516 471 470 517 q 563 359 563 425 l 563 292 q 556 276 563 283 q 540 270 549 270 q 524 276 530 270 q 517 292 517 283 l 517 359 q 484 439 517 404 q 405 471 450 471 q 326 439 359 471 q 293 359 293 406 l 293 292 q 326 213 293 248 q 405 180 360 180 q 421 173 414 180 q 427 157 427 166 q 421 141 427 148 q 405 134 414 134 z "},"7":{"ha":810,"x_min":112,"x_max":698,"o":"m 197 0 q 187 2 192 0 q 174 22 174 8 q 509 810 174 27 l 135 810 q 119 817 125 810 q 112 832 112 823 q 119 848 112 842 q 135 855 125 855 l 543 855 q 562 845 555 855 q 566 833 566 839 q 217 14 566 828 q 197 0 211 0 m 344 0 q 334 2 339 0 q 321 22 321 8 q 652 801 321 27 l 652 945 l 135 945 q 119 951 125 945 q 112 968 112 958 q 119 983 112 977 q 135 990 125 990 l 675 990 q 691 983 684 990 q 698 968 698 977 l 698 796 q 364 14 698 792 q 344 0 358 0 z "},"8":{"ha":810,"x_min":112,"x_max":698,"o":"m 405 -1 q 258 39 324 -1 q 152 145 191 79 q 112 292 112 212 q 119 308 112 301 q 135 315 125 315 q 151 308 144 315 q 158 292 158 301 q 191 168 158 224 q 281 78 224 112 q 405 45 337 45 q 529 78 473 45 q 618 168 585 112 q 652 292 652 224 q 568 477 652 398 l 569 478 q 562 495 562 484 q 568 511 562 504 q 569 511 568 511 l 568 512 q 652 697 652 591 q 618 821 652 765 q 529 911 585 878 q 405 944 473 944 q 281 911 337 944 q 191 821 224 878 q 158 697 158 765 q 241 512 158 591 q 249 496 249 505 q 243 479 249 486 q 228 472 237 473 q 211 477 218 472 q 138 577 163 519 q 112 697 112 634 q 152 844 112 778 q 258 950 191 911 q 405 990 324 990 q 552 950 486 990 q 658 844 618 911 q 698 697 698 778 q 616 494 698 583 q 698 292 698 406 q 658 145 698 212 q 552 39 618 79 q 405 -1 486 -1 m 405 539 q 389 546 395 539 q 382 562 382 553 q 389 578 382 572 q 405 585 395 585 q 484 618 451 585 q 517 697 517 651 q 484 776 517 743 q 405 809 451 809 q 326 776 359 809 q 293 697 293 743 q 286 681 293 688 q 270 675 279 675 q 254 681 260 675 q 247 697 247 688 q 293 809 247 762 q 405 855 340 855 q 516 809 470 855 q 563 697 563 762 q 516 586 563 632 q 405 539 470 539 m 405 134 q 389 141 395 134 q 382 157 382 148 q 389 174 382 167 q 405 180 395 180 q 484 213 451 180 q 517 292 517 245 q 484 371 517 338 q 405 404 451 404 q 326 371 359 404 q 293 292 293 338 q 286 276 293 283 q 270 270 279 270 q 254 276 260 270 q 247 292 247 283 q 293 404 247 357 q 405 450 340 450 q 516 404 470 450 q 563 292 563 357 q 516 180 563 227 q 405 134 470 134 z "},"9":{"ha":810,"x_min":112,"x_max":698,"o":"m 405 471 q 293 518 340 471 q 247 629 247 564 l 247 697 q 293 809 247 762 q 405 855 340 855 q 516 809 470 855 q 563 697 563 762 l 563 629 q 556 613 563 620 q 540 607 549 607 q 524 614 530 608 q 517 629 517 621 l 517 697 q 484 777 517 742 q 405 809 450 809 q 326 776 359 809 q 293 697 293 743 l 293 629 q 326 550 293 583 q 405 517 359 517 q 421 511 414 517 q 427 494 427 504 q 421 478 427 486 q 405 471 414 471 m 405 134 q 308 168 349 135 q 252 254 266 200 l 251 259 q 255 272 251 265 q 274 282 261 282 q 296 265 291 282 q 336 204 307 227 q 405 180 366 180 q 484 213 451 180 q 517 292 517 245 l 517 359 q 405 336 463 336 q 258 376 324 336 q 152 482 191 416 q 112 629 112 549 l 112 697 q 151 843 112 775 q 258 951 190 910 q 269 954 264 954 q 290 942 281 954 q 292 931 292 937 q 281 911 292 918 q 191 820 224 877 q 158 697 158 763 l 158 629 q 191 506 158 562 q 281 416 224 450 q 405 382 337 382 q 528 416 470 382 l 529 415 q 540 418 534 418 q 556 412 549 418 q 562 396 562 405 l 563 396 l 563 292 q 516 180 563 227 q 405 134 470 134 m 405 -1 q 225 60 304 -1 q 121 221 147 121 l 120 227 q 124 239 120 233 q 144 249 130 249 q 165 232 161 249 q 254 97 188 149 q 405 45 319 45 q 529 79 473 45 q 618 168 585 112 q 652 292 652 224 l 652 697 q 618 821 652 765 q 529 911 585 878 q 405 944 473 944 q 389 951 395 944 q 382 967 382 958 q 389 983 382 977 q 405 990 395 990 q 552 950 486 990 q 658 844 618 911 q 698 697 698 778 l 698 292 q 658 145 698 212 q 552 39 618 79 q 405 -1 486 -1 z "},"\u0000":{"ha":810,"x_min":112,"x_max":698,"o":"m 540 0 l 135 0 q 119 7 125 0 q 112 23 112 14 l 112 968 q 119 984 112 977 q 135 990 125 990 q 151 984 144 990 q 158 968 158 977 l 158 46 l 540 46 q 556 39 549 46 q 562 23 562 33 q 556 7 562 14 q 540 0 549 0 m 675 1 q 659 7 665 1 q 652 23 652 14 l 652 945 l 270 945 q 254 952 260 945 q 248 968 248 959 q 254 984 248 977 q 270 991 260 991 l 675 991 q 691 984 684 991 q 698 968 698 977 l 698 23 q 691 7 698 14 q 675 1 684 1 z "}," ":{"ha":810,"x_min":0,"x_max":0,"o":""},".":{"ha":540,"x_min":112,"x_max":428,"o":"m 270 0 q 254 7 260 0 q 247 23 247 14 q 254 39 247 33 q 270 46 260 46 q 349 79 316 46 q 382 158 382 112 q 349 237 382 204 q 270 270 316 270 q 191 237 224 270 q 158 158 158 204 q 151 142 158 149 q 135 136 144 136 q 119 142 125 136 q 112 158 112 149 q 158 270 112 223 q 270 316 205 316 q 381 270 335 316 q 428 158 428 223 q 381 46 428 93 q 270 0 335 0 z "},":":{"ha":540,"x_min":112,"x_max":428,"o":"m 270 540 q 254 547 260 540 q 247 563 247 553 q 254 579 247 572 q 270 586 260 586 q 349 619 316 586 q 382 698 382 652 q 349 777 382 744 q 270 810 316 810 q 191 777 224 810 q 158 698 158 744 q 151 682 158 688 q 135 675 144 675 q 119 682 125 675 q 112 698 112 688 q 158 809 112 763 q 270 856 205 856 q 381 809 335 856 q 428 698 428 763 q 381 586 428 633 q 270 540 335 540 m 270 135 q 254 142 260 135 q 247 158 247 149 q 254 174 247 168 q 270 181 260 181 q 349 214 316 181 q 382 293 382 247 q 349 372 382 339 q 270 405 316 405 q 191 372 224 405 q 158 293 158 339 q 151 277 158 283 q 135 271 144 271 q 119 277 125 271 q 112 293 112 283 q 158 405 112 358 q 270 451 205 451 q 381 405 335 451 q 428 293 428 358 q 381 181 428 228 q 270 135 335 135 z "},",":{"ha":540,"x_min":112,"x_max":428,"o":"m 405 -134 q 389 -128 395 -134 q 382 -112 382 -121 l 382 158 q 349 237 382 204 q 270 270 316 270 q 191 237 224 270 q 158 158 158 204 q 191 79 158 112 q 270 46 224 46 q 286 39 279 46 q 292 23 292 33 q 286 7 292 14 q 270 0 279 0 q 157 47 203 2 q 112 158 112 93 q 158 270 112 223 q 270 316 205 316 q 381 270 335 316 q 428 158 428 223 l 428 -112 q 421 -128 428 -121 q 405 -134 414 -134 z "},";":{"ha":540,"x_min":112,"x_max":428,"o":"m 270 539 q 254 546 260 539 q 247 562 247 553 q 254 578 247 572 q 270 585 260 585 q 349 618 316 585 q 382 697 382 651 q 349 777 382 744 q 270 810 316 810 q 191 777 224 810 q 158 697 158 744 q 151 682 158 688 q 135 675 144 675 q 119 682 125 675 q 112 697 112 688 q 158 809 112 763 q 270 855 205 855 q 381 809 335 855 q 428 697 428 763 q 381 586 428 632 q 270 539 335 539 m 405 0 q 389 6 395 0 q 382 22 382 13 l 382 292 q 349 371 382 338 q 270 404 316 404 q 191 371 224 404 q 158 292 158 338 q 191 213 158 246 q 270 180 224 180 q 286 174 279 180 q 292 157 292 167 q 286 141 292 148 q 270 134 279 134 q 157 182 203 136 q 112 292 112 227 q 158 404 112 357 q 270 450 205 450 q 381 404 335 450 q 428 292 428 357 l 428 22 q 421 6 428 13 q 405 0 414 0 z "},"'":{"ha":406,"x_min":113,"x_max":293,"o":"m 271 540 l 135 540 q 119 547 125 540 q 113 563 113 553 l 113 968 q 119 984 113 977 q 135 991 125 991 l 271 991 q 286 984 279 991 q 293 968 293 977 l 293 698 q 286 682 293 688 q 271 675 279 675 q 254 682 261 675 q 248 698 248 688 l 248 945 l 158 945 l 158 586 l 271 586 q 286 579 279 586 q 293 563 293 572 q 286 547 293 553 q 271 540 279 540 z "},"\"":{"ha":674,"x_min":113,"x_max":563,"o":"m 541 540 l 406 540 q 389 547 396 540 q 382 563 382 553 q 389 579 382 572 q 406 586 396 586 l 517 586 l 517 945 l 428 945 l 428 698 q 421 682 428 688 q 406 675 414 675 q 389 682 396 675 q 382 698 382 688 l 382 968 q 389 984 382 977 q 406 991 396 991 l 541 991 q 556 984 550 991 q 563 968 563 977 l 563 563 q 556 547 563 553 q 541 540 550 540 m 270 540 l 135 540 q 119 547 125 540 q 113 563 113 553 l 113 968 q 119 984 113 977 q 135 991 125 991 l 270 991 q 286 984 279 991 q 293 968 293 977 q 286 951 293 958 q 270 945 279 945 l 158 945 l 158 586 l 248 586 l 248 833 q 254 849 248 842 q 270 855 261 855 q 286 849 279 855 q 293 833 293 842 l 293 563 q 286 547 293 553 q 270 540 279 540 z "},"(":{"ha":540,"x_min":112,"x_max":428,"o":"m 405 -1 q 258 39 324 -1 q 152 145 191 79 q 112 292 112 212 l 112 697 q 152 844 112 778 q 258 950 191 911 q 405 990 324 990 q 421 983 414 990 q 428 967 428 977 q 421 951 428 958 q 405 944 414 944 q 281 911 337 944 q 191 822 224 878 q 158 697 158 766 l 158 292 q 191 168 158 224 q 281 79 224 112 q 405 45 337 45 q 421 39 414 45 q 427 22 427 32 q 421 6 427 13 q 405 -1 414 -1 m 405 134 q 293 181 340 134 q 247 292 247 227 l 247 697 q 293 809 247 762 q 405 855 340 855 q 421 848 414 855 q 427 832 427 842 q 421 816 427 823 q 405 809 414 809 q 326 776 359 809 q 293 697 293 743 l 293 292 q 326 213 293 246 q 405 180 359 180 q 421 174 414 180 q 428 157 428 167 q 421 141 428 148 q 405 134 414 134 z "},"!":{"ha":540,"x_min":112,"x_max":428,"o":"m 338 405 l 202 405 q 188 411 194 405 q 180 425 181 416 l 112 967 q 118 983 112 976 q 135 991 125 991 l 405 991 q 422 983 415 991 q 428 969 428 977 l 360 559 q 351 545 358 550 q 337 541 345 541 q 319 550 326 541 q 315 564 315 556 l 378 945 l 161 945 l 222 451 l 338 451 q 353 444 347 451 q 360 428 360 437 q 353 412 360 418 q 338 405 347 405 m 270 0 q 254 7 260 0 q 247 23 247 14 q 254 39 247 33 q 270 46 260 46 q 349 79 316 46 q 382 158 382 112 q 349 237 382 204 q 270 270 316 270 q 191 237 224 270 q 158 158 158 204 q 151 142 158 149 q 135 136 144 136 q 119 142 125 136 q 112 158 112 149 q 158 270 112 223 q 270 316 205 316 q 381 270 335 316 q 428 158 428 223 q 381 46 428 93 q 270 0 335 0 z "},"?":{"ha":810,"x_min":112,"x_max":698,"o":"m 405 0 q 293 46 340 0 q 247 158 247 93 q 293 270 247 223 q 405 316 340 316 q 516 270 470 316 q 563 158 563 223 q 556 142 563 149 q 540 136 549 136 q 524 142 530 136 q 517 158 517 149 q 484 237 517 204 q 405 270 451 270 q 326 237 359 270 q 293 158 293 204 q 326 79 293 112 q 405 46 359 46 q 421 39 414 46 q 428 23 428 33 q 421 7 428 14 q 405 0 414 0 m 472 406 q 456 412 463 406 q 449 428 449 418 q 467 493 449 467 q 506 518 486 518 q 609 570 567 518 q 652 698 652 623 q 618 822 652 766 q 529 911 585 878 q 405 945 473 945 q 281 911 337 945 q 191 822 224 878 q 158 698 158 766 q 151 682 158 688 q 135 675 144 675 q 119 682 125 675 q 112 698 112 688 q 152 845 112 779 q 258 951 191 911 q 405 991 324 991 q 552 951 486 991 q 658 845 618 911 q 698 698 698 779 q 644 540 698 604 q 509 472 591 476 q 495 428 495 460 q 488 412 495 418 q 472 406 481 406 m 337 406 q 321 412 328 406 q 314 428 314 418 q 368 585 314 522 q 503 653 421 649 q 517 698 517 665 q 484 777 517 744 q 405 810 451 810 q 326 777 359 810 q 293 698 293 744 q 286 682 293 688 q 270 675 279 675 q 254 682 260 675 q 247 698 247 688 q 293 809 247 763 q 405 856 340 856 q 516 809 470 856 q 563 698 563 763 q 545 632 563 658 q 506 607 526 607 q 402 555 444 607 q 359 428 359 503 q 353 412 359 418 q 337 406 346 406 z "},")":{"ha":540,"x_min":112,"x_max":428,"o":"m 135 -1 q 119 6 125 -1 q 113 22 113 13 q 119 39 113 32 q 135 45 125 45 q 259 79 203 45 q 349 168 315 112 q 382 292 382 224 l 382 697 q 349 822 382 766 q 259 911 315 878 q 135 944 203 944 q 119 951 125 944 q 112 967 112 958 q 119 983 112 977 q 135 990 125 990 q 282 950 216 990 q 388 844 349 911 q 428 697 428 778 l 428 292 q 388 145 428 212 q 282 39 349 79 q 135 -1 216 -1 m 135 134 q 119 141 125 134 q 112 157 112 148 q 119 174 112 167 q 135 180 125 180 q 214 213 181 180 q 247 292 247 246 l 247 697 q 214 776 247 743 q 135 809 181 809 q 119 816 125 809 q 113 832 113 823 q 119 848 113 842 q 135 855 125 855 q 247 809 200 855 q 293 697 293 762 l 293 292 q 247 181 293 227 q 135 134 200 134 z "},"+":{"ha":810,"x_min":112,"x_max":698,"o":"m 473 202 l 337 202 q 321 209 328 202 q 315 225 315 216 l 315 405 l 135 405 q 119 412 125 405 q 113 427 113 418 l 112 427 l 112 563 q 119 578 112 572 q 135 585 125 585 q 151 578 144 585 q 158 563 158 572 l 158 450 l 337 450 q 353 444 347 450 q 360 427 360 437 l 360 248 l 450 248 l 450 427 q 456 444 450 437 q 473 450 463 450 l 540 450 q 556 444 549 450 q 562 427 562 437 q 556 412 562 418 q 540 405 549 405 l 495 405 l 495 225 q 489 209 495 216 q 473 202 482 202 m 675 405 q 659 412 665 405 q 652 427 652 418 l 652 540 l 473 540 q 456 546 463 540 q 450 563 450 553 l 450 742 l 360 742 l 360 563 q 353 547 360 553 q 337 540 347 540 l 270 540 q 254 547 260 540 q 248 563 248 553 q 254 578 248 572 q 270 585 260 585 l 315 585 l 315 765 q 321 781 315 774 q 337 788 328 788 l 473 788 q 489 781 482 788 q 495 765 495 774 l 495 585 l 675 585 q 691 579 684 585 q 698 563 698 572 l 698 427 q 691 412 698 418 q 675 405 684 405 z "},"-":{"ha":810,"x_min":112,"x_max":698,"o":"m 540 404 l 135 404 q 119 411 125 404 q 112 427 112 418 l 112 562 q 119 578 112 572 q 135 585 125 585 l 675 585 q 691 578 684 585 q 698 562 698 572 l 698 427 q 691 411 698 418 q 675 405 684 405 q 659 411 665 405 q 652 427 652 418 l 652 539 l 158 539 l 158 450 l 540 450 q 556 444 549 450 q 562 427 562 437 q 556 411 562 418 q 540 404 549 404 z "},"*":{"ha":674,"x_min":112,"x_max":562,"o":"m 270 675 q 254 682 260 675 q 247 698 247 688 l 248 720 q 148 827 184 762 q 112 968 112 892 q 119 983 112 977 q 135 990 125 990 q 151 983 144 990 q 157 968 157 977 q 191 843 157 901 q 283 753 224 786 q 295 732 295 745 l 295 730 q 293 698 293 713 q 286 682 293 688 q 270 675 279 675 m 323 837 q 310 842 317 837 q 247 968 247 892 q 254 984 247 977 q 270 990 260 990 q 286 984 279 990 q 293 968 293 977 q 321 893 293 926 q 540 991 413 991 q 556 984 549 991 q 562 968 562 977 q 556 951 562 958 q 540 945 549 945 q 429 919 481 945 q 342 846 378 893 q 323 837 334 837 m 405 675 q 389 682 395 675 q 382 698 382 688 q 429 810 384 765 q 540 856 475 856 q 556 849 549 856 q 562 833 562 842 q 556 817 562 823 q 540 810 549 810 q 461 778 494 810 q 428 698 429 745 q 421 682 427 688 q 405 675 414 675 z "},"/":{"ha":674,"x_min":111,"x_max":564,"o":"m 275 0 q 256 11 262 0 q 252 24 252 17 q 520 974 252 27 q 542 990 525 990 q 561 979 555 990 q 564 967 564 973 q 297 16 564 964 q 275 0 290 0 m 134 0 q 115 11 121 0 q 111 24 111 17 l 112 29 l 380 974 q 401 990 385 990 q 420 979 414 990 q 424 967 424 973 q 157 16 424 964 q 134 0 150 0 z "},"=":{"ha":810,"x_min":112,"x_max":698,"o":"m 540 269 l 135 269 q 119 276 125 269 q 112 292 112 283 l 112 427 q 119 444 112 437 q 135 450 125 450 l 675 450 q 691 444 684 450 q 698 427 698 437 l 698 292 q 691 276 698 283 q 675 270 684 270 q 659 276 665 270 q 652 292 652 283 l 652 404 l 158 404 l 158 315 l 540 315 q 556 309 549 315 q 562 292 562 302 q 556 276 562 283 q 540 269 549 269 m 540 539 l 135 539 q 119 546 125 539 q 112 562 112 553 l 112 697 q 119 713 112 707 q 135 720 125 720 l 675 720 q 691 713 684 720 q 698 697 698 707 l 698 562 q 691 546 698 553 q 675 540 684 540 q 659 546 665 540 q 652 562 652 553 l 652 674 l 158 674 l 158 585 l 540 585 q 556 578 549 585 q 562 562 562 572 q 556 546 562 553 q 540 539 549 540 z "},"[":{"ha":540,"x_min":112,"x_max":428,"o":"m 405 0 l 135 0 q 119 7 125 0 q 112 23 112 14 l 112 968 q 119 984 112 977 q 135 991 125 991 l 405 991 q 421 984 414 991 q 428 968 428 977 q 421 952 428 959 q 405 945 414 945 l 158 945 l 158 46 l 405 46 q 421 39 414 46 q 428 23 428 33 q 421 7 428 14 q 405 0 414 0 m 405 135 l 270 135 q 254 142 261 135 q 248 158 248 149 l 248 833 q 254 849 248 842 q 270 856 260 856 l 405 856 q 421 849 414 856 q 428 833 428 842 q 421 817 428 823 q 405 810 414 810 l 293 810 l 293 181 l 405 181 q 421 174 414 181 q 428 158 428 168 q 421 142 428 149 q 405 135 415 135 z "},"\\":{"ha":674,"x_min":110,"x_max":563,"o":"m 399 0 q 378 16 384 0 q 110 967 110 964 q 113 979 110 973 q 132 990 119 990 q 155 974 149 990 q 422 24 422 27 q 418 11 422 17 q 399 0 412 0 m 540 0 q 518 16 524 0 q 250 967 250 964 q 254 979 250 973 q 273 990 260 990 q 295 974 290 990 l 563 29 l 563 24 q 559 11 563 17 q 540 0 553 0 z "},"]":{"ha":540,"x_min":112,"x_max":428,"o":"m 135 0 q 119 7 125 0 q 112 23 112 14 q 119 39 112 33 q 135 46 125 46 l 382 46 l 382 945 l 135 945 q 119 952 125 945 q 112 968 112 959 q 119 984 112 977 q 135 991 125 991 l 405 991 q 421 984 414 991 q 428 968 428 977 l 428 23 q 421 7 428 14 q 405 0 414 0 l 135 0 m 135 135 q 118 142 125 135 q 112 158 112 149 q 119 174 112 168 q 135 181 125 181 l 247 181 l 247 810 l 135 810 q 119 817 125 810 q 112 833 112 823 q 119 849 112 842 q 135 856 125 856 l 270 856 q 286 849 279 856 q 292 833 292 842 l 292 158 q 286 142 292 149 q 270 135 279 135 l 135 135 z "},"^":{"ha":810,"x_min":153,"x_max":659,"o":"m 541 687 l 539 687 q 524 693 530 687 l 406 812 l 287 693 q 272 687 280 687 q 254 694 261 687 q 248 709 248 701 q 254 726 248 718 l 389 861 q 406 867 397 867 q 422 861 414 867 l 557 726 q 563 709 563 718 q 556 694 563 701 q 541 687 549 687 m 635 782 q 619 789 627 782 l 406 1002 l 191 789 q 175 782 184 782 q 159 789 166 782 q 153 806 153 795 q 159 821 153 814 l 389 1051 q 406 1058 396 1058 q 422 1051 414 1058 l 652 821 q 659 805 659 814 q 652 789 659 795 q 635 782 645 782 z "},"_":{"ha":810,"x_min":113,"x_max":697,"o":"m 675 -1 l 135 -1 q 119 6 125 -1 q 113 22 113 13 q 119 39 113 32 q 135 45 125 45 l 675 45 q 691 39 684 45 q 697 22 697 32 q 691 6 697 13 q 675 -1 684 -1 m 675 -136 l 135 -136 q 119 -129 125 -136 q 113 -113 113 -122 q 119 -96 113 -103 q 135 -90 125 -90 l 675 -90 q 691 -96 684 -90 q 697 -113 697 -103 q 691 -129 697 -122 q 675 -136 684 -136 z "},"@":{"ha":945,"x_min":113,"x_max":833,"o":"m 675 135 l 405 135 q 293 181 340 135 q 247 292 247 227 l 247 698 q 294 809 248 763 q 405 856 342 856 q 421 849 414 856 q 427 833 427 842 q 421 817 427 823 q 405 810 414 810 q 326 777 359 810 q 293 698 293 744 l 293 292 q 326 214 293 248 q 405 180 360 180 l 675 180 q 691 174 684 180 q 698 157 698 167 q 691 142 698 149 q 675 135 684 135 m 675 0 l 406 0 q 258 40 323 1 q 152 145 192 79 q 113 292 113 212 l 113 698 q 198 905 114 819 q 406 991 288 991 l 541 991 q 688 951 621 991 q 794 845 754 911 q 833 698 833 779 l 833 292 q 827 276 833 283 q 810 270 820 270 l 675 270 q 528 309 595 270 q 422 415 462 349 q 382 563 382 481 q 439 736 382 660 q 589 842 495 812 q 596 844 593 844 q 608 840 601 844 q 618 820 618 834 q 603 799 618 804 q 476 709 524 773 q 429 563 429 644 q 462 438 429 494 q 551 349 495 382 q 675 315 608 315 l 787 315 l 787 698 q 754 822 787 766 q 665 911 721 878 q 541 945 608 945 l 406 945 q 281 911 337 945 q 192 822 225 878 q 159 698 159 766 l 159 292 q 231 118 159 194 q 406 45 307 45 l 675 45 q 691 39 685 45 q 698 22 698 32 q 691 7 698 14 q 675 0 685 0 m 675 405 q 564 451 610 405 q 517 563 517 497 q 563 673 517 628 q 675 720 608 719 q 691 713 684 720 q 698 698 698 707 l 698 563 q 691 547 698 553 q 675 540 684 540 q 659 547 666 540 q 652 563 652 553 l 652 672 q 588 633 613 663 q 563 563 563 603 q 596 483 563 516 q 675 450 629 450 q 691 444 684 450 q 698 428 698 437 q 691 412 698 418 q 675 405 684 405 z "},"|":{"ha":406,"x_min":113,"x_max":293,"o":"m 271 -136 l 135 -136 q 119 -129 126 -136 q 113 -113 113 -122 q 119 -96 113 -103 q 135 -90 126 -90 l 248 -90 l 248 944 l 158 944 l 158 22 q 151 6 158 13 q 135 0 144 0 q 119 6 126 0 q 113 22 113 13 l 113 967 q 119 983 113 977 q 135 990 126 990 l 271 990 q 287 983 280 990 q 293 967 293 977 l 293 -113 q 287 -129 293 -122 q 271 -136 280 -136 z "},"~":{"ha":810,"x_min":112,"x_max":698,"o":"m 135 270 q 119 276 125 270 q 112 292 112 283 q 152 439 112 373 q 258 546 191 506 q 405 585 324 585 l 406 585 q 485 619 453 587 q 517 697 517 651 q 524 713 517 707 q 540 720 530 720 q 556 713 549 720 q 563 697 563 707 q 516 586 563 632 q 405 539 470 539 l 404 539 q 280 506 336 538 q 191 416 224 473 q 158 292 158 360 q 151 276 158 283 q 135 270 144 270 m 270 270 q 254 276 260 270 q 247 292 247 283 q 293 404 247 357 q 405 450 340 450 l 406 450 q 530 484 474 451 q 618 573 585 517 q 652 697 652 629 q 659 713 652 707 q 675 720 665 720 q 691 713 684 720 q 698 697 698 707 q 658 550 698 616 q 552 444 618 484 q 405 404 486 404 l 404 404 q 325 371 357 403 q 293 292 293 338 q 286 276 293 283 q 270 270 279 270 z "},"A":{"ha":810,"x_min":45,"x_max":765,"o":"m 202 0 l 67 0 q 49 9 56 0 q 45 22 45 16 q 315 974 45 26 q 337 991 322 991 l 473 991 q 491 981 483 991 q 495 968 495 975 q 263 151 495 964 q 242 135 258 135 q 235 136 239 135 q 218 157 218 142 q 442 945 218 161 l 355 945 l 98 45 l 202 45 q 218 39 212 45 q 225 22 225 32 q 218 7 225 14 q 202 0 212 0 m 743 0 l 608 0 q 585 16 592 0 q 434 549 434 546 q 438 562 434 555 q 458 572 445 572 q 479 556 473 572 l 625 45 l 712 45 q 494 811 494 808 q 498 823 494 817 q 517 833 504 833 q 539 819 533 833 l 764 29 l 765 22 q 761 9 765 16 q 743 0 753 0 z "},"a":{"ha":810,"x_min":45,"x_max":765,"o":"m 202 0 l 67 0 q 49 9 56 0 q 45 22 45 16 q 315 974 45 26 q 337 991 322 991 l 473 991 q 491 981 483 991 q 495 968 495 975 q 263 151 495 964 q 242 135 258 135 q 235 136 239 135 q 218 157 218 142 q 442 945 218 161 l 355 945 l 98 45 l 202 45 q 218 39 212 45 q 225 22 225 32 q 218 7 225 14 q 202 0 212 0 m 743 0 l 608 0 q 585 16 592 0 q 434 549 434 546 q 438 562 434 555 q 458 572 445 572 q 479 556 473 572 l 625 45 l 712 45 q 494 811 494 808 q 498 823 494 817 q 517 833 504 833 q 539 819 533 833 l 764 29 l 765 22 q 761 9 765 16 q 743 0 753 0 z "},"B":{"ha":810,"x_min":112,"x_max":698,"o":"m 135 1 q 119 7 125 1 q 112 23 112 14 l 112 968 q 119 984 112 977 q 135 990 125 990 q 151 984 144 990 q 158 968 158 977 l 158 23 q 151 7 158 14 q 135 1 144 1 m 405 540 q 389 547 395 541 q 382 563 382 553 q 389 579 382 572 q 405 586 395 586 q 485 620 452 587 q 517 698 517 652 q 485 777 517 744 q 405 810 452 809 l 293 810 l 293 563 q 286 547 293 553 q 270 541 279 541 q 254 547 260 541 q 247 563 247 553 l 247 833 q 254 849 247 842 q 270 856 260 856 l 405 856 q 516 809 470 856 q 563 698 563 763 q 516 586 563 633 q 405 540 470 540 m 405 135 q 389 142 395 135 q 382 158 382 149 q 389 174 382 168 q 405 181 395 181 q 485 215 452 182 q 517 293 517 247 q 485 371 517 339 q 405 405 452 404 l 293 405 l 293 158 q 286 142 293 149 q 270 136 279 136 q 254 142 260 136 q 247 158 247 149 l 247 428 q 254 444 247 437 q 270 451 260 451 l 405 451 q 516 405 470 451 q 563 293 563 358 q 517 182 563 228 q 405 135 472 137 m 405 0 l 270 0 q 254 7 260 0 q 248 23 248 14 q 254 39 248 33 q 270 46 260 46 l 405 46 q 530 80 474 47 q 618 169 585 113 q 652 293 652 225 q 568 478 652 399 q 560 496 560 486 q 568 513 560 505 q 652 698 652 592 q 618 822 652 766 q 529 911 585 878 q 405 945 473 945 l 270 945 q 254 952 260 945 q 248 968 248 959 q 254 984 248 977 q 270 991 260 991 l 405 991 q 612 905 522 991 q 698 698 698 815 q 616 496 698 585 q 698 293 698 406 q 658 146 698 212 q 552 40 618 79 q 405 0 486 1 z "},"b":{"ha":810,"x_min":112,"x_max":698,"o":"m 135 1 q 119 7 125 1 q 112 23 112 14 l 112 968 q 119 984 112 977 q 135 990 125 990 q 151 984 144 990 q 158 968 158 977 l 158 23 q 151 7 158 14 q 135 1 144 1 m 405 540 q 389 547 395 541 q 382 563 382 553 q 389 579 382 572 q 405 586 395 586 q 485 620 452 587 q 517 698 517 652 q 485 777 517 744 q 405 810 452 809 l 293 810 l 293 563 q 286 547 293 553 q 270 541 279 541 q 254 547 260 541 q 247 563 247 553 l 247 833 q 254 849 247 842 q 270 856 260 856 l 405 856 q 516 809 470 856 q 563 698 563 763 q 516 586 563 633 q 405 540 470 540 m 405 135 q 389 142 395 135 q 382 158 382 149 q 389 174 382 168 q 405 181 395 181 q 485 215 452 182 q 517 293 517 247 q 485 371 517 339 q 405 405 452 404 l 293 405 l 293 158 q 286 142 293 149 q 270 136 279 136 q 254 142 260 136 q 247 158 247 149 l 247 428 q 254 444 247 437 q 270 451 260 451 l 405 451 q 516 405 470 451 q 563 293 563 358 q 517 182 563 228 q 405 135 472 137 m 405 0 l 270 0 q 254 7 260 0 q 248 23 248 14 q 254 39 248 33 q 270 46 260 46 l 405 46 q 530 80 474 47 q 618 169 585 113 q 652 293 652 225 q 568 478 652 399 q 560 496 560 486 q 568 513 560 505 q 652 698 652 592 q 618 822 652 766 q 529 911 585 878 q 405 945 473 945 l 270 945 q 254 952 260 945 q 248 968 248 959 q 254 984 248 977 q 270 991 260 991 l 405 991 q 612 905 522 991 q 698 698 698 815 q 616 496 698 585 q 698 293 698 406 q 658 146 698 212 q 552 40 618 79 q 405 0 486 1 z "},"C":{"ha":810,"x_min":112,"x_max":698,"o":"m 405 -1 q 258 39 324 -1 q 152 145 191 79 q 112 292 112 212 l 112 697 q 198 905 113 818 q 405 990 288 990 q 552 950 486 990 q 658 844 618 911 q 698 697 698 778 q 691 681 698 688 q 675 675 684 675 q 659 681 665 675 q 652 697 652 688 q 618 822 652 766 q 529 911 585 878 q 405 944 473 944 q 281 911 337 944 q 191 822 224 878 q 158 697 158 766 l 158 292 q 230 117 158 193 q 405 45 306 45 q 529 79 473 45 q 618 168 585 112 q 652 292 652 224 q 659 308 652 302 q 675 315 665 315 q 691 308 684 315 q 698 292 698 302 q 658 145 698 212 q 552 39 618 79 q 405 -1 486 -1 m 405 134 q 293 181 340 134 q 247 292 247 227 l 247 697 q 293 809 248 762 q 405 855 342 855 q 516 809 470 855 q 563 697 563 762 q 556 681 563 688 q 540 675 549 675 q 524 681 530 675 q 517 697 517 688 q 484 776 517 743 q 405 809 451 809 q 326 776 359 809 q 293 697 293 743 l 293 292 q 326 213 293 248 q 405 180 360 180 q 484 213 451 180 q 517 292 517 246 q 524 308 517 302 q 540 315 530 315 q 556 308 549 315 q 563 292 563 302 q 516 181 563 227 q 405 134 470 134 z "},"c":{"ha":810,"x_min":112,"x_max":698,"o":"m 405 -1 q 258 39 324 -1 q 152 145 191 79 q 112 292 112 212 l 112 697 q 198 905 113 818 q 405 990 288 990 q 552 950 486 990 q 658 844 618 911 q 698 697 698 778 q 691 681 698 688 q 675 675 684 675 q 659 681 665 675 q 652 697 652 688 q 618 822 652 766 q 529 911 585 878 q 405 944 473 944 q 281 911 337 944 q 191 822 224 878 q 158 697 158 766 l 158 292 q 230 117 158 193 q 405 45 306 45 q 529 79 473 45 q 618 168 585 112 q 652 292 652 224 q 659 308 652 302 q 675 315 665 315 q 691 308 684 315 q 698 292 698 302 q 658 145 698 212 q 552 39 618 79 q 405 -1 486 -1 m 405 134 q 293 181 340 134 q 247 292 247 227 l 247 697 q 293 809 248 762 q 405 855 342 855 q 516 809 470 855 q 563 697 563 762 q 556 681 563 688 q 540 675 549 675 q 524 681 530 675 q 517 697 517 688 q 484 776 517 743 q 405 809 451 809 q 326 776 359 809 q 293 697 293 743 l 293 292 q 326 213 293 248 q 405 180 360 180 q 484 213 451 180 q 517 292 517 246 q 524 308 517 302 q 540 315 530 315 q 556 308 549 315 q 563 292 563 302 q 516 181 563 227 q 405 134 470 134 z "},"D":{"ha":810,"x_min":112,"x_max":698,"o":"m 270 -1 q 254 6 260 -1 q 248 22 248 13 q 254 38 248 32 q 270 45 260 45 l 405 45 q 529 79 473 45 q 618 168 585 112 q 652 292 652 224 l 652 697 q 618 822 652 766 q 529 911 585 878 q 405 944 473 944 l 270 944 q 254 951 260 944 q 248 967 248 958 q 254 983 248 977 q 270 990 260 990 l 405 990 q 552 950 486 990 q 658 844 618 911 q 698 697 698 778 l 698 292 q 658 145 698 212 q 552 39 618 79 q 405 -1 486 -1 l 270 -1 m 135 0 q 119 6 125 0 q 112 22 112 13 l 112 967 q 119 983 112 977 q 135 989 125 989 q 151 983 144 989 q 158 967 158 977 l 158 22 q 151 6 158 13 q 135 0 144 0 m 405 134 q 389 141 395 134 q 382 157 382 148 q 389 174 382 167 q 405 180 395 180 q 484 213 451 180 q 517 292 517 246 l 517 697 q 484 776 517 743 q 405 809 451 809 l 293 809 l 293 157 q 286 141 293 148 q 270 135 279 135 q 254 141 260 135 q 247 157 247 148 l 247 832 q 254 848 247 842 q 270 855 260 855 l 405 855 q 516 809 470 855 q 563 697 563 762 l 563 292 q 516 181 563 227 q 405 134 470 134 z "},"d":{"ha":810,"x_min":112,"x_max":698,"o":"m 270 -1 q 254 6 260 -1 q 248 22 248 13 q 254 38 248 32 q 270 45 260 45 l 405 45 q 529 79 473 45 q 618 168 585 112 q 652 292 652 224 l 652 697 q 618 822 652 766 q 529 911 585 878 q 405 944 473 944 l 270 944 q 254 951 260 944 q 248 967 248 958 q 254 983 248 977 q 270 990 260 990 l 405 990 q 552 950 486 990 q 658 844 618 911 q 698 697 698 778 l 698 292 q 658 145 698 212 q 552 39 618 79 q 405 -1 486 -1 l 270 -1 m 135 0 q 119 6 125 0 q 112 22 112 13 l 112 967 q 119 983 112 977 q 135 989 125 989 q 151 983 144 989 q 158 967 158 977 l 158 22 q 151 6 158 13 q 135 0 144 0 m 405 134 q 389 141 395 134 q 382 157 382 148 q 389 174 382 167 q 405 180 395 180 q 484 213 451 180 q 517 292 517 246 l 517 697 q 484 776 517 743 q 405 809 451 809 l 293 809 l 293 157 q 286 141 293 148 q 270 135 279 135 q 254 141 260 135 q 247 157 247 148 l 247 832 q 254 848 247 842 q 270 855 260 855 l 405 855 q 516 809 470 855 q 563 697 563 762 l 563 292 q 516 181 563 227 q 405 134 470 134 z "},"E":{"ha":810,"x_min":112,"x_max":698,"o":"m 135 0 q 119 6 125 0 q 112 22 112 13 l 112 967 q 119 983 112 977 q 135 989 125 989 q 151 983 144 989 q 158 967 158 977 l 158 22 q 151 6 158 13 q 135 0 144 0 m 540 404 l 405 404 q 389 411 395 404 q 382 427 382 418 q 389 444 382 437 q 405 450 395 450 l 517 450 l 517 539 l 270 539 q 254 546 260 539 q 247 562 247 553 l 247 832 q 254 848 247 842 q 270 855 260 855 l 652 855 l 652 944 l 270 944 q 254 951 260 944 q 248 967 248 958 q 254 983 248 977 q 270 990 260 990 l 675 990 q 691 983 684 990 q 698 967 698 977 l 698 832 q 691 816 698 823 q 675 809 684 809 l 293 809 l 293 585 l 540 585 q 556 578 549 585 q 563 562 563 572 l 563 427 q 556 411 563 418 q 540 404 549 404 m 675 -1 l 270 -1 q 254 6 260 -1 q 248 22 248 13 q 254 39 248 32 q 270 45 260 45 l 652 45 l 652 134 l 270 134 q 254 141 260 134 q 247 157 247 148 l 247 427 q 254 443 247 437 q 270 450 260 450 q 286 443 279 450 q 293 427 293 437 l 293 180 l 675 180 q 691 174 684 180 q 698 157 698 167 l 698 22 q 691 6 698 13 q 675 -1 684 -1 z "},"e":{"ha":810,"x_min":112,"x_max":698,"o":"m 135 0 q 119 6 125 0 q 112 22 112 13 l 112 967 q 119 983 112 977 q 135 989 125 989 q 151 983 144 989 q 158 967 158 977 l 158 22 q 151 6 158 13 q 135 0 144 0 m 540 404 l 405 404 q 389 411 395 404 q 382 427 382 418 q 389 444 382 437 q 405 450 395 450 l 517 450 l 517 539 l 270 539 q 254 546 260 539 q 247 562 247 553 l 247 832 q 254 848 247 842 q 270 855 260 855 l 652 855 l 652 944 l 270 944 q 254 951 260 944 q 248 967 248 958 q 254 983 248 977 q 270 990 260 990 l 675 990 q 691 983 684 990 q 698 967 698 977 l 698 832 q 691 816 698 823 q 675 809 684 809 l 293 809 l 293 585 l 540 585 q 556 578 549 585 q 563 562 563 572 l 563 427 q 556 411 563 418 q 540 404 549 404 m 675 -1 l 270 -1 q 254 6 260 -1 q 248 22 248 13 q 254 39 248 32 q 270 45 260 45 l 652 45 l 652 134 l 270 134 q 254 141 260 134 q 247 157 247 148 l 247 427 q 254 443 247 437 q 270 450 260 450 q 286 443 279 450 q 293 427 293 437 l 293 180 l 675 180 q 691 174 684 180 q 698 157 698 167 l 698 22 q 691 6 698 13 q 675 -1 684 -1 z "},"F":{"ha":810,"x_min":112,"x_max":698,"o":"m 135 0 q 119 6 125 0 q 112 22 112 13 l 112 967 q 119 983 112 977 q 135 990 125 990 q 151 983 144 990 q 158 967 158 977 l 158 22 q 151 6 158 13 q 135 0 144 0 m 270 0 q 254 6 260 0 q 247 22 247 13 l 247 427 q 254 444 247 437 q 270 450 260 450 l 517 450 l 517 539 l 405 539 q 389 546 395 539 q 382 562 382 553 q 389 578 382 572 q 405 585 395 585 l 540 585 q 556 578 549 585 q 563 562 563 572 l 563 427 q 556 411 563 418 q 540 404 549 404 l 293 404 l 293 22 q 286 6 293 13 q 270 0 279 0 m 270 540 q 254 547 260 540 q 247 562 247 553 l 247 832 q 254 848 247 842 q 270 855 260 855 l 652 855 l 652 945 l 270 945 q 254 951 260 945 q 248 967 248 958 q 254 983 248 977 q 270 990 260 990 l 675 990 q 691 983 684 990 q 698 967 698 977 l 698 832 q 691 816 698 823 q 675 810 684 810 l 293 810 l 293 562 q 286 547 293 553 q 270 540 279 540 z "},"f":{"ha":810,"x_min":112,"x_max":698,"o":"m 135 0 q 119 6 125 0 q 112 22 112 13 l 112 967 q 119 983 112 977 q 135 990 125 990 q 151 983 144 990 q 158 967 158 977 l 158 22 q 151 6 158 13 q 135 0 144 0 m 270 0 q 254 6 260 0 q 247 22 247 13 l 247 427 q 254 444 247 437 q 270 450 260 450 l 517 450 l 517 539 l 405 539 q 389 546 395 539 q 382 562 382 553 q 389 578 382 572 q 405 585 395 585 l 540 585 q 556 578 549 585 q 563 562 563 572 l 563 427 q 556 411 563 418 q 540 404 549 404 l 293 404 l 293 22 q 286 6 293 13 q 270 0 279 0 m 270 540 q 254 547 260 540 q 247 562 247 553 l 247 832 q 254 848 247 842 q 270 855 260 855 l 652 855 l 652 945 l 270 945 q 254 951 260 945 q 248 967 248 958 q 254 983 248 977 q 270 990 260 990 l 675 990 q 691 983 684 990 q 698 967 698 977 l 698 832 q 691 816 698 823 q 675 810 684 810 l 293 810 l 293 562 q 286 547 293 553 q 270 540 279 540 z "},"G":{"ha":810,"x_min":112,"x_max":698,"o":"m 405 -1 q 258 39 324 -1 q 152 145 191 79 q 112 292 112 212 l 112 697 q 152 844 112 778 q 258 950 191 911 q 405 990 324 990 q 552 950 486 990 q 658 844 618 911 q 698 697 698 778 q 691 681 698 688 q 675 675 684 675 q 659 681 665 675 q 652 697 652 688 q 618 822 652 766 q 529 911 585 878 q 405 944 473 944 q 281 911 337 944 q 191 822 224 878 q 158 697 158 766 l 158 292 q 191 168 158 224 q 281 79 224 112 q 405 45 337 45 q 421 39 414 45 q 428 22 428 32 q 421 6 428 13 q 405 -1 414 -1 m 405 134 q 293 181 340 134 q 247 292 247 227 l 247 697 q 293 809 247 762 q 405 855 340 855 q 516 809 470 855 q 563 697 563 762 q 556 681 563 688 q 540 675 549 675 q 524 681 530 675 q 517 697 517 688 q 484 776 517 743 q 405 809 451 809 q 326 776 359 809 q 293 697 293 743 l 293 292 q 326 213 293 246 q 405 180 359 180 q 421 174 414 180 q 427 157 427 167 q 421 141 427 148 q 405 134 414 134 m 540 0 q 524 6 530 0 q 517 22 517 13 l 517 337 l 405 337 q 389 344 395 337 q 382 359 382 351 q 389 376 382 369 q 405 382 395 382 l 540 382 q 556 376 549 382 q 563 359 563 369 l 563 22 q 556 6 563 13 q 540 0 549 0 m 675 0 q 659 6 665 0 q 652 22 652 13 l 652 472 l 405 472 q 389 479 395 472 q 382 495 382 486 q 389 511 382 504 q 405 517 395 517 l 675 517 q 691 511 684 517 q 698 495 698 504 l 698 22 q 691 6 698 13 q 675 0 684 0 z "},"g":{"ha":810,"x_min":112,"x_max":698,"o":"m 405 -1 q 258 39 324 -1 q 152 145 191 79 q 112 292 112 212 l 112 697 q 152 844 112 778 q 258 950 191 911 q 405 990 324 990 q 552 950 486 990 q 658 844 618 911 q 698 697 698 778 q 691 681 698 688 q 675 675 684 675 q 659 681 665 675 q 652 697 652 688 q 618 822 652 766 q 529 911 585 878 q 405 944 473 944 q 281 911 337 944 q 191 822 224 878 q 158 697 158 766 l 158 292 q 191 168 158 224 q 281 79 224 112 q 405 45 337 45 q 421 39 414 45 q 428 22 428 32 q 421 6 428 13 q 405 -1 414 -1 m 405 134 q 293 181 340 134 q 247 292 247 227 l 247 697 q 293 809 247 762 q 405 855 340 855 q 516 809 470 855 q 563 697 563 762 q 556 681 563 688 q 540 675 549 675 q 524 681 530 675 q 517 697 517 688 q 484 776 517 743 q 405 809 451 809 q 326 776 359 809 q 293 697 293 743 l 293 292 q 326 213 293 246 q 405 180 359 180 q 421 174 414 180 q 427 157 427 167 q 421 141 427 148 q 405 134 414 134 m 540 0 q 524 6 530 0 q 517 22 517 13 l 517 337 l 405 337 q 389 344 395 337 q 382 359 382 351 q 389 376 382 369 q 405 382 395 382 l 540 382 q 556 376 549 382 q 563 359 563 369 l 563 22 q 556 6 563 13 q 540 0 549 0 m 675 0 q 659 6 665 0 q 652 22 652 13 l 652 472 l 405 472 q 389 479 395 472 q 382 495 382 486 q 389 511 382 504 q 405 517 395 517 l 675 517 q 691 511 684 517 q 698 495 698 504 l 698 22 q 691 6 698 13 q 675 0 684 0 z "},"H":{"ha":810,"x_min":112,"x_max":698,"o":"m 135 0 q 119 6 125 0 q 112 22 112 13 l 112 967 q 119 983 112 977 q 135 990 125 990 q 151 983 144 990 q 158 967 158 977 l 158 22 q 151 6 158 13 q 135 0 144 0 m 540 539 l 270 539 q 254 546 260 539 q 247 562 247 553 l 247 967 q 254 983 247 977 q 270 990 260 990 q 286 983 279 990 q 293 967 293 977 l 293 585 l 517 585 l 517 967 q 524 983 517 977 q 540 990 530 990 q 556 983 549 990 q 563 967 563 977 l 563 562 q 556 546 563 553 q 540 539 549 539 m 675 0 q 659 6 665 0 q 652 22 652 13 l 652 967 q 659 983 652 977 q 675 990 665 990 q 691 983 684 990 q 698 967 698 977 l 698 22 q 691 6 698 13 q 675 0 684 0 m 540 0 q 524 6 530 0 q 517 22 517 13 l 517 404 l 293 404 l 293 22 q 286 6 293 13 q 270 0 279 0 q 254 6 260 0 q 247 22 247 13 l 247 427 q 254 444 247 437 q 270 450 260 450 l 540 450 q 556 444 549 450 q 563 427 563 437 l 563 22 q 556 6 563 13 q 540 0 549 0 z "},"h":{"ha":810,"x_min":112,"x_max":698,"o":"m 135 0 q 119 6 125 0 q 112 22 112 13 l 112 967 q 119 983 112 977 q 135 990 125 990 q 151 983 144 990 q 158 967 158 977 l 158 22 q 151 6 158 13 q 135 0 144 0 m 540 539 l 270 539 q 254 546 260 539 q 247 562 247 553 l 247 967 q 254 983 247 977 q 270 990 260 990 q 286 983 279 990 q 293 967 293 977 l 293 585 l 517 585 l 517 967 q 524 983 517 977 q 540 990 530 990 q 556 983 549 990 q 563 967 563 977 l 563 562 q 556 546 563 553 q 540 539 549 539 m 675 0 q 659 6 665 0 q 652 22 652 13 l 652 967 q 659 983 652 977 q 675 990 665 990 q 691 983 684 990 q 698 967 698 977 l 698 22 q 691 6 698 13 q 675 0 684 0 m 540 0 q 524 6 530 0 q 517 22 517 13 l 517 404 l 293 404 l 293 22 q 286 6 293 13 q 270 0 279 0 q 254 6 260 0 q 247 22 247 13 l 247 427 q 254 444 247 437 q 270 450 260 450 l 540 450 q 556 444 549 450 q 563 427 563 437 l 563 22 q 556 6 563 13 q 540 0 549 0 z "},"I":{"ha":810,"x_min":113,"x_max":697,"o":"m 675 944 l 135 944 q 119 951 125 944 q 113 967 113 958 q 119 983 113 977 q 135 990 125 990 l 675 990 q 691 983 684 990 q 697 967 697 977 q 691 951 697 958 q 675 944 684 944 m 337 134 l 135 134 q 119 141 125 134 q 113 157 113 148 q 119 174 113 167 q 135 180 125 180 l 315 180 l 315 809 l 135 809 q 119 816 125 809 q 113 832 113 823 q 119 848 113 842 q 135 855 125 855 l 337 855 q 354 848 347 855 q 360 832 360 842 l 360 157 q 354 141 360 148 q 337 134 347 134 m 675 -1 l 135 -1 q 119 6 125 -1 q 113 22 113 13 q 119 39 113 32 q 135 45 125 45 l 675 45 q 691 39 684 45 q 697 22 697 32 q 691 6 697 13 q 675 -1 684 -1 m 675 134 l 473 134 q 456 141 463 134 q 450 157 450 148 l 450 832 q 456 848 450 842 q 473 855 463 855 l 675 855 q 691 848 684 855 q 697 832 697 842 q 691 816 697 823 q 675 809 684 809 l 495 809 l 495 180 l 675 180 q 691 174 684 180 q 697 157 697 167 q 691 141 697 148 q 675 134 684 134 z "},"i":{"ha":810,"x_min":113,"x_max":697,"o":"m 675 944 l 135 944 q 119 951 125 944 q 113 967 113 958 q 119 983 113 977 q 135 990 125 990 l 675 990 q 691 983 684 990 q 697 967 697 977 q 691 951 697 958 q 675 944 684 944 m 337 134 l 135 134 q 119 141 125 134 q 113 157 113 148 q 119 174 113 167 q 135 180 125 180 l 315 180 l 315 809 l 135 809 q 119 816 125 809 q 113 832 113 823 q 119 848 113 842 q 135 855 125 855 l 337 855 q 354 848 347 855 q 360 832 360 842 l 360 157 q 354 141 360 148 q 337 134 347 134 m 675 -1 l 135 -1 q 119 6 125 -1 q 113 22 113 13 q 119 39 113 32 q 135 45 125 45 l 675 45 q 691 39 684 45 q 697 22 697 32 q 691 6 697 13 q 675 -1 684 -1 m 675 134 l 473 134 q 456 141 463 134 q 450 157 450 148 l 450 832 q 456 848 450 842 q 473 855 463 855 l 675 855 q 691 848 684 855 q 697 832 697 842 q 691 816 697 823 q 675 809 684 809 l 495 809 l 495 180 l 675 180 q 691 174 684 180 q 697 157 697 167 q 691 141 697 148 q 675 134 684 134 z "},"J":{"ha":810,"x_min":112,"x_max":698,"o":"m 405 134 q 293 181 340 134 q 247 292 247 227 q 254 308 247 302 q 270 315 260 315 q 286 308 279 315 q 293 292 293 302 q 326 213 293 246 q 405 180 359 180 q 484 213 451 180 q 517 292 517 246 l 517 967 q 524 983 517 977 q 540 989 530 989 q 556 983 549 989 q 563 967 563 977 l 563 292 q 516 181 563 227 q 405 134 470 134 m 405 -1 q 258 39 324 -1 q 152 145 191 79 q 112 292 112 212 q 119 308 112 302 q 135 315 125 315 q 151 308 144 315 q 158 292 158 302 q 191 168 158 224 q 281 79 224 112 q 405 45 337 45 q 529 79 473 45 q 618 168 585 112 q 652 292 652 224 l 652 967 q 659 983 652 977 q 675 989 665 989 q 691 983 684 989 q 698 967 698 977 l 698 292 q 658 145 698 212 q 552 39 618 79 q 405 -1 486 -1 z "},"j":{"ha":810,"x_min":112,"x_max":698,"o":"m 405 134 q 293 181 340 134 q 247 292 247 227 q 254 308 247 302 q 270 315 260 315 q 286 308 279 315 q 293 292 293 302 q 326 213 293 246 q 405 180 359 180 q 484 213 451 180 q 517 292 517 246 l 517 967 q 524 983 517 977 q 540 989 530 989 q 556 983 549 989 q 563 967 563 977 l 563 292 q 516 181 563 227 q 405 134 470 134 m 405 -1 q 258 39 324 -1 q 152 145 191 79 q 112 292 112 212 q 119 308 112 302 q 135 315 125 315 q 151 308 144 315 q 158 292 158 302 q 191 168 158 224 q 281 79 224 112 q 405 45 337 45 q 529 79 473 45 q 618 168 585 112 q 652 292 652 224 l 652 967 q 659 983 652 977 q 675 989 665 989 q 691 983 684 989 q 698 967 698 977 l 698 292 q 658 145 698 212 q 552 39 618 79 q 405 -1 486 -1 z "},"K":{"ha":810,"x_min":112,"x_max":698,"o":"m 270 508 l 264 509 q 247 531 247 513 l 247 968 q 254 983 247 977 q 270 990 260 990 q 286 983 279 990 q 293 968 293 977 l 293 617 l 499 979 q 519 990 507 990 q 530 987 525 990 q 543 967 543 980 q 290 519 543 962 q 270 508 282 508 m 135 0 q 119 7 125 0 q 112 22 112 14 l 112 968 q 119 983 112 977 q 135 990 125 990 q 151 983 144 990 q 158 968 158 977 l 158 22 q 151 7 158 14 q 135 0 144 0 m 524 0 q 503 12 510 0 q 366 292 366 287 q 379 313 366 306 q 389 315 384 315 q 410 303 403 315 q 547 24 547 28 q 534 3 547 9 q 524 0 529 0 m 675 0 q 654 12 661 0 q 450 427 450 422 q 463 448 450 441 q 473 450 468 450 q 493 438 486 450 l 695 33 q 698 22 698 28 q 685 3 698 9 q 675 0 680 0 m 270 0 q 254 7 260 0 q 247 22 247 14 l 247 259 q 655 979 247 264 q 674 990 662 990 q 686 987 680 990 q 698 966 698 980 q 695 956 698 961 l 293 253 l 293 22 q 286 7 293 14 q 270 0 279 0 z "},"k":{"ha":810,"x_min":112,"x_max":698,"o":"m 270 508 l 264 509 q 247 531 247 513 l 247 968 q 254 983 247 977 q 270 990 260 990 q 286 983 279 990 q 293 968 293 977 l 293 617 l 499 979 q 519 990 507 990 q 530 987 525 990 q 543 967 543 980 q 290 519 543 962 q 270 508 282 508 m 135 0 q 119 7 125 0 q 112 22 112 14 l 112 968 q 119 983 112 977 q 135 990 125 990 q 151 983 144 990 q 158 968 158 977 l 158 22 q 151 7 158 14 q 135 0 144 0 m 524 0 q 503 12 510 0 q 366 292 366 287 q 379 313 366 306 q 389 315 384 315 q 410 303 403 315 q 547 24 547 28 q 534 3 547 9 q 524 0 529 0 m 675 0 q 654 12 661 0 q 450 427 450 422 q 463 448 450 441 q 473 450 468 450 q 493 438 486 450 l 695 33 q 698 22 698 28 q 685 3 698 9 q 675 0 680 0 m 270 0 q 254 7 260 0 q 247 22 247 14 l 247 259 q 655 979 247 264 q 674 990 662 990 q 686 987 680 990 q 698 966 698 980 q 695 956 698 961 l 293 253 l 293 22 q 286 7 293 14 q 270 0 279 0 z "},"L":{"ha":810,"x_min":112,"x_max":698,"o":"m 135 1 q 119 7 125 1 q 112 23 113 14 l 113 968 q 119 984 113 977 q 136 990 126 990 q 152 984 145 990 q 159 968 158 977 l 158 23 q 151 7 158 14 q 135 1 144 1 m 675 135 l 405 135 q 389 142 396 135 q 382 158 382 149 q 389 174 382 168 q 405 181 396 181 l 675 181 q 691 174 684 181 q 698 158 698 168 q 691 142 698 149 q 675 135 684 135 m 270 136 q 254 142 261 136 q 247 158 247 149 l 247 968 q 254 984 248 977 q 270 990 261 990 q 286 984 279 990 q 293 968 293 977 l 293 158 q 286 142 293 149 q 270 136 279 136 m 675 0 l 270 0 q 254 7 261 0 q 248 23 248 14 q 254 39 248 33 q 270 46 261 46 l 675 46 q 691 39 684 46 q 698 23 698 33 q 691 7 698 14 q 675 0 684 0 z "},"l":{"ha":810,"x_min":112,"x_max":698,"o":"m 135 1 q 119 7 125 1 q 112 23 113 14 l 113 968 q 119 984 113 977 q 136 990 126 990 q 152 984 145 990 q 159 968 158 977 l 158 23 q 151 7 158 14 q 135 1 144 1 m 675 135 l 405 135 q 389 142 396 135 q 382 158 382 149 q 389 174 382 168 q 405 181 396 181 l 675 181 q 691 174 684 181 q 698 158 698 168 q 691 142 698 149 q 675 135 684 135 m 270 136 q 254 142 261 136 q 247 158 247 149 l 247 968 q 254 984 248 977 q 270 990 261 990 q 286 984 279 990 q 293 968 293 977 l 293 158 q 286 142 293 149 q 270 136 279 136 m 675 0 l 270 0 q 254 7 261 0 q 248 23 248 14 q 254 39 248 33 q 270 46 261 46 l 675 46 q 691 39 684 46 q 698 23 698 33 q 691 7 698 14 q 675 0 684 0 z "},"M":{"ha":945,"x_min":112,"x_max":833,"o":"m 135 0 q 119 6 125 0 q 112 22 112 13 l 112 967 q 119 983 112 977 q 135 990 125 990 q 151 983 144 990 q 158 967 158 977 l 158 22 q 151 6 158 13 q 135 0 144 0 m 402 0 q 380 16 386 0 l 293 321 l 293 22 q 286 6 293 13 q 270 0 279 0 q 254 6 260 0 q 247 22 247 13 l 247 486 q 253 501 247 494 q 271 508 259 508 q 292 492 288 508 q 425 22 425 25 q 421 10 425 17 q 402 0 415 0 m 675 0 q 659 6 665 0 q 652 22 652 13 l 652 321 l 564 16 q 543 0 559 0 q 536 1 539 0 q 519 23 519 5 q 652 492 519 26 q 674 508 658 508 q 691 501 685 508 q 698 486 698 494 l 698 22 q 691 6 698 13 q 675 0 684 0 m 472 245 q 450 262 457 245 q 250 967 250 963 q 254 979 250 973 q 273 990 259 990 q 294 974 290 990 l 472 352 l 650 974 q 671 990 656 990 q 678 989 674 990 q 695 966 695 984 q 494 262 695 963 q 472 245 488 245 m 810 0 q 793 6 800 0 q 787 22 787 13 l 787 967 q 793 983 787 977 q 810 990 800 990 q 826 983 819 990 q 833 967 833 977 l 833 22 q 826 6 833 13 q 810 0 819 0 z "},"m":{"ha":945,"x_min":112,"x_max":833,"o":"m 135 0 q 119 6 125 0 q 112 22 112 13 l 112 967 q 119 983 112 977 q 135 990 125 990 q 151 983 144 990 q 158 967 158 977 l 158 22 q 151 6 158 13 q 135 0 144 0 m 402 0 q 380 16 386 0 l 293 321 l 293 22 q 286 6 293 13 q 270 0 279 0 q 254 6 260 0 q 247 22 247 13 l 247 486 q 253 501 247 494 q 271 508 259 508 q 292 492 288 508 q 425 22 425 25 q 421 10 425 17 q 402 0 415 0 m 675 0 q 659 6 665 0 q 652 22 652 13 l 652 321 l 564 16 q 543 0 559 0 q 536 1 539 0 q 519 23 519 5 q 652 492 519 26 q 674 508 658 508 q 691 501 685 508 q 698 486 698 494 l 698 22 q 691 6 698 13 q 675 0 684 0 m 472 245 q 450 262 457 245 q 250 967 250 963 q 254 979 250 973 q 273 990 259 990 q 294 974 290 990 l 472 352 l 650 974 q 671 990 656 990 q 678 989 674 990 q 695 966 695 984 q 494 262 695 963 q 472 245 488 245 m 810 0 q 793 6 800 0 q 787 22 787 13 l 787 967 q 793 983 787 977 q 810 990 800 990 q 826 983 819 990 q 833 967 833 977 l 833 22 q 826 6 833 13 q 810 0 819 0 z "},"N":{"ha":810,"x_min":112,"x_max":698,"o":"m 469 0 q 447 16 453 0 l 292 558 l 292 22 q 286 7 292 14 q 269 0 279 0 q 253 7 260 0 q 246 22 246 14 l 246 722 q 253 738 246 730 q 271 745 260 745 q 292 728 286 745 q 492 24 492 27 q 489 11 492 17 q 469 0 483 0 m 675 0 q 659 7 665 1 q 652 22 652 13 l 652 968 q 659 983 652 977 q 675 990 665 989 q 691 983 685 989 q 698 968 698 977 l 698 22 q 691 7 697 13 q 675 0 684 1 m 135 0 q 118 7 125 1 q 112 22 112 13 l 112 968 q 119 983 113 977 q 135 990 125 989 q 151 983 144 989 q 158 968 158 977 l 157 22 q 151 7 157 13 q 135 0 144 1 m 543 245 q 517 262 524 245 q 317 966 317 963 q 321 979 317 973 q 340 990 327 990 q 361 974 357 990 l 517 432 l 517 968 q 524 983 517 977 q 539 990 530 990 q 555 983 549 990 q 562 968 562 977 l 562 269 q 557 253 562 260 q 543 245 551 247 z "},"n":{"ha":810,"x_min":112,"x_max":698,"o":"m 469 0 q 447 16 453 0 l 292 558 l 292 22 q 286 7 292 14 q 269 0 279 0 q 253 7 260 0 q 246 22 246 14 l 246 722 q 253 738 246 730 q 271 745 260 745 q 292 728 286 745 q 492 24 492 27 q 489 11 492 17 q 469 0 483 0 m 675 0 q 659 7 665 1 q 652 22 652 13 l 652 968 q 659 983 652 977 q 675 990 665 989 q 691 983 685 989 q 698 968 698 977 l 698 22 q 691 7 697 13 q 675 0 684 1 m 135 0 q 118 7 125 1 q 112 22 112 13 l 112 968 q 119 983 113 977 q 135 990 125 989 q 151 983 144 989 q 158 968 158 977 l 157 22 q 151 7 157 13 q 135 0 144 1 m 543 245 q 517 262 524 245 q 317 966 317 963 q 321 979 317 973 q 340 990 327 990 q 361 974 357 990 l 517 432 l 517 968 q 524 983 517 977 q 539 990 530 990 q 555 983 549 990 q 562 968 562 977 l 562 269 q 557 253 562 260 q 543 245 551 247 z "},"O":{"ha":810,"x_min":112,"x_max":698,"o":"m 405 -1 q 258 39 324 -1 q 152 145 191 79 q 112 292 112 212 q 119 308 112 302 q 135 315 125 315 q 151 308 144 315 q 158 292 158 302 q 191 168 158 224 q 281 79 224 112 q 405 45 337 45 q 529 79 473 45 q 618 168 585 112 q 652 292 652 224 l 652 697 q 618 822 652 766 q 529 911 585 878 q 405 944 473 944 q 281 911 337 944 q 191 822 224 878 q 158 697 158 766 l 158 427 q 151 411 158 418 q 135 405 144 405 q 119 411 125 405 q 112 427 112 418 l 112 697 q 152 844 112 778 q 258 950 191 911 q 405 990 324 990 q 552 950 486 990 q 658 844 618 911 q 698 697 698 778 l 698 292 q 658 145 698 212 q 552 39 618 79 q 405 -1 486 -1 m 405 134 q 293 181 340 134 q 247 292 247 227 l 247 562 q 254 578 247 572 q 270 585 260 585 q 286 578 279 585 q 293 562 293 572 l 293 292 q 326 213 293 246 q 405 180 359 180 q 484 213 451 180 q 517 292 517 246 l 517 697 q 484 776 517 743 q 405 809 451 809 q 326 776 359 809 q 293 697 293 743 q 286 681 293 688 q 270 675 279 675 q 254 681 260 675 q 247 697 247 688 q 293 809 247 762 q 405 855 340 855 q 516 809 470 855 q 563 697 563 762 l 563 292 q 516 181 563 227 q 405 134 470 134 z "},"o":{"ha":810,"x_min":112,"x_max":698,"o":"m 405 -1 q 258 39 324 -1 q 152 145 191 79 q 112 292 112 212 q 119 308 112 302 q 135 315 125 315 q 151 308 144 315 q 158 292 158 302 q 191 168 158 224 q 281 79 224 112 q 405 45 337 45 q 529 79 473 45 q 618 168 585 112 q 652 292 652 224 l 652 697 q 618 822 652 766 q 529 911 585 878 q 405 944 473 944 q 281 911 337 944 q 191 822 224 878 q 158 697 158 766 l 158 427 q 151 411 158 418 q 135 405 144 405 q 119 411 125 405 q 112 427 112 418 l 112 697 q 152 844 112 778 q 258 950 191 911 q 405 990 324 990 q 552 950 486 990 q 658 844 618 911 q 698 697 698 778 l 698 292 q 658 145 698 212 q 552 39 618 79 q 405 -1 486 -1 m 405 134 q 293 181 340 134 q 247 292 247 227 l 247 562 q 254 578 247 572 q 270 585 260 585 q 286 578 279 585 q 293 562 293 572 l 293 292 q 326 213 293 246 q 405 180 359 180 q 484 213 451 180 q 517 292 517 246 l 517 697 q 484 776 517 743 q 405 809 451 809 q 326 776 359 809 q 293 697 293 743 q 286 681 293 688 q 270 675 279 675 q 254 681 260 675 q 247 697 247 688 q 293 809 247 762 q 405 855 340 855 q 516 809 470 855 q 563 697 563 762 l 563 292 q 516 181 563 227 q 405 134 470 134 z "},"P":{"ha":810,"x_min":112,"x_max":698,"o":"m 405 540 l 270 540 q 254 547 260 540 q 248 563 248 553 q 254 579 248 572 q 270 586 260 586 l 406 586 q 485 620 453 587 q 517 698 517 652 q 484 777 517 744 q 405 810 451 810 l 270 810 q 254 817 260 810 q 248 833 248 823 q 254 849 248 842 q 270 856 260 856 l 405 856 q 516 809 470 856 q 563 698 563 763 q 516 586 563 633 q 405 540 470 540 m 270 0 l 135 0 q 119 7 125 0 q 112 23 112 14 l 112 968 q 119 984 112 977 q 135 990 125 990 q 151 984 144 990 q 158 968 158 977 l 158 46 l 247 46 l 247 293 q 254 309 247 302 q 270 315 260 315 q 286 309 279 315 q 293 293 293 302 l 293 23 q 286 7 293 14 q 270 0 279 0 m 405 405 l 270 405 q 254 412 260 405 q 248 428 248 418 q 254 444 248 437 q 270 451 260 451 l 405 451 q 530 485 474 452 q 618 574 585 517 q 652 698 652 630 q 618 822 652 766 q 529 911 585 878 q 405 945 473 945 l 270 945 q 254 952 260 945 q 248 968 248 959 q 254 984 248 977 q 270 991 260 991 l 405 991 q 552 951 486 991 q 658 845 618 911 q 698 698 698 779 q 658 551 698 617 q 552 445 618 484 q 405 405 486 406 z "},"p":{"ha":810,"x_min":112,"x_max":698,"o":"m 405 540 l 270 540 q 254 547 260 540 q 248 563 248 553 q 254 579 248 572 q 270 586 260 586 l 406 586 q 485 620 453 587 q 517 698 517 652 q 484 777 517 744 q 405 810 451 810 l 270 810 q 254 817 260 810 q 248 833 248 823 q 254 849 248 842 q 270 856 260 856 l 405 856 q 516 809 470 856 q 563 698 563 763 q 516 586 563 633 q 405 540 470 540 m 270 0 l 135 0 q 119 7 125 0 q 112 23 112 14 l 112 968 q 119 984 112 977 q 135 990 125 990 q 151 984 144 990 q 158 968 158 977 l 158 46 l 247 46 l 247 293 q 254 309 247 302 q 270 315 260 315 q 286 309 279 315 q 293 293 293 302 l 293 23 q 286 7 293 14 q 270 0 279 0 m 405 405 l 270 405 q 254 412 260 405 q 248 428 248 418 q 254 444 248 437 q 270 451 260 451 l 405 451 q 530 485 474 452 q 618 574 585 517 q 652 698 652 630 q 618 822 652 766 q 529 911 585 878 q 405 945 473 945 l 270 945 q 254 952 260 945 q 248 968 248 959 q 254 984 248 977 q 270 991 260 991 l 405 991 q 552 951 486 991 q 658 845 618 911 q 698 698 698 779 q 658 551 698 617 q 552 445 618 484 q 405 405 486 406 z "},"Q":{"ha":810,"x_min":112,"x_max":698,"o":"m 675 270 q 659 277 665 270 q 652 292 652 283 l 652 697 q 618 822 652 766 q 529 911 585 878 q 405 945 473 945 q 281 911 337 945 q 191 822 224 878 q 158 697 158 766 l 158 427 q 151 412 158 418 q 135 405 144 405 q 119 412 125 405 q 112 427 112 418 l 112 697 q 198 905 113 818 q 405 990 288 990 q 552 951 486 990 q 658 845 618 911 q 698 697 698 779 l 698 292 q 691 277 698 283 q 675 270 684 270 m 540 270 q 524 277 530 270 q 517 292 517 283 l 517 697 q 484 777 517 744 q 405 810 451 810 q 326 777 359 810 q 293 697 293 744 q 286 682 293 688 q 270 675 279 675 q 254 682 260 675 q 247 697 247 688 q 293 809 247 763 q 405 855 340 855 q 516 809 470 855 q 563 697 563 763 l 563 292 q 556 277 563 283 q 540 270 549 270 m 540 -135 q 524 -129 530 -135 q 517 -113 517 -122 q 484 -34 517 -66 q 405 -1 451 -1 q 257 40 323 1 q 152 145 191 79 q 112 292 112 212 q 119 308 112 302 q 135 315 125 315 q 151 308 144 315 q 158 292 158 302 q 191 168 158 224 q 280 79 224 112 q 405 45 336 46 q 516 -1 470 45 q 563 -113 563 -47 q 556 -129 563 -122 q 540 -135 549 -135 m 675 -135 q 659 -129 665 -135 q 652 -113 652 -122 q 618 12 652 -44 q 529 101 585 68 q 405 134 473 134 q 294 180 342 134 q 247 292 247 229 l 247 562 q 254 578 247 572 q 270 585 260 585 q 286 578 279 585 q 293 562 293 572 l 293 292 q 326 212 294 245 q 405 180 361 180 q 552 141 486 180 q 658 35 618 101 q 698 -113 698 -32 q 691 -129 698 -122 q 675 -135 684 -135 z "},"q":{"ha":810,"x_min":112,"x_max":698,"o":"m 675 270 q 659 277 665 270 q 652 292 652 283 l 652 697 q 618 822 652 766 q 529 911 585 878 q 405 945 473 945 q 281 911 337 945 q 191 822 224 878 q 158 697 158 766 l 158 427 q 151 412 158 418 q 135 405 144 405 q 119 412 125 405 q 112 427 112 418 l 112 697 q 198 905 113 818 q 405 990 288 990 q 552 951 486 990 q 658 845 618 911 q 698 697 698 779 l 698 292 q 691 277 698 283 q 675 270 684 270 m 540 270 q 524 277 530 270 q 517 292 517 283 l 517 697 q 484 777 517 744 q 405 810 451 810 q 326 777 359 810 q 293 697 293 744 q 286 682 293 688 q 270 675 279 675 q 254 682 260 675 q 247 697 247 688 q 293 809 247 763 q 405 855 340 855 q 516 809 470 855 q 563 697 563 763 l 563 292 q 556 277 563 283 q 540 270 549 270 m 540 -135 q 524 -129 530 -135 q 517 -113 517 -122 q 484 -34 517 -66 q 405 -1 451 -1 q 257 40 323 1 q 152 145 191 79 q 112 292 112 212 q 119 308 112 302 q 135 315 125 315 q 151 308 144 315 q 158 292 158 302 q 191 168 158 224 q 280 79 224 112 q 405 45 336 46 q 516 -1 470 45 q 563 -113 563 -47 q 556 -129 563 -122 q 540 -135 549 -135 m 675 -135 q 659 -129 665 -135 q 652 -113 652 -122 q 618 12 652 -44 q 529 101 585 68 q 405 134 473 134 q 294 180 342 134 q 247 292 247 229 l 247 562 q 254 578 247 572 q 270 585 260 585 q 286 578 279 585 q 293 562 293 572 l 293 292 q 326 212 294 245 q 405 180 361 180 q 552 141 486 180 q 658 35 618 101 q 698 -113 698 -32 q 691 -129 698 -122 q 675 -135 684 -135 z "},"R":{"ha":810,"x_min":113,"x_max":704,"o":"m 406 540 l 271 540 q 254 547 261 540 q 248 563 248 553 q 254 578 248 572 q 271 585 261 585 l 406 585 q 486 620 454 587 q 517 698 517 652 q 485 777 517 744 q 406 810 452 810 l 271 810 q 254 817 261 810 q 248 833 248 823 q 254 848 248 842 q 271 855 261 855 l 406 855 q 517 809 471 855 q 564 698 564 763 q 517 586 564 632 q 406 540 471 540 m 640 540 q 628 543 634 540 q 616 563 616 550 q 619 574 616 568 q 652 698 652 632 q 619 822 652 766 q 529 911 585 878 q 405 945 473 945 l 270 945 q 254 951 261 945 q 248 968 248 958 q 254 984 248 977 q 270 991 261 991 l 405 991 q 552 951 486 991 q 659 845 619 911 q 698 698 698 779 q 659 551 698 621 q 640 540 652 540 m 681 -1 l 534 -1 q 513 14 520 -1 l 345 405 l 270 405 q 254 412 261 405 q 248 427 248 418 q 254 444 248 437 q 270 450 261 450 l 361 450 q 382 437 374 450 l 549 45 l 646 45 q 477 445 477 440 q 480 455 477 449 q 501 467 486 467 q 522 454 515 467 l 702 32 q 704 22 704 27 q 701 10 704 16 q 681 -1 692 -1 m 271 -1 l 136 -1 q 119 6 126 -1 q 113 22 113 13 l 113 968 q 119 983 113 977 q 136 990 126 990 q 151 983 144 990 q 158 968 158 977 l 158 45 l 248 45 l 248 292 q 254 309 248 302 q 271 315 261 315 q 286 309 279 315 q 293 292 293 302 l 293 22 q 286 6 293 14 q 271 -1 279 -1 z "},"r":{"ha":810,"x_min":113,"x_max":704,"o":"m 406 540 l 271 540 q 254 547 261 540 q 248 563 248 553 q 254 578 248 572 q 271 585 261 585 l 406 585 q 486 620 454 587 q 517 698 517 652 q 485 777 517 744 q 406 810 452 810 l 271 810 q 254 817 261 810 q 248 833 248 823 q 254 848 248 842 q 271 855 261 855 l 406 855 q 517 809 471 855 q 564 698 564 763 q 517 586 564 632 q 406 540 471 540 m 640 540 q 628 543 634 540 q 616 563 616 550 q 619 574 616 568 q 652 698 652 632 q 619 822 652 766 q 529 911 585 878 q 405 945 473 945 l 270 945 q 254 951 261 945 q 248 968 248 958 q 254 984 248 977 q 270 991 261 991 l 405 991 q 552 951 486 991 q 659 845 619 911 q 698 698 698 779 q 659 551 698 621 q 640 540 652 540 m 681 -1 l 534 -1 q 513 14 520 -1 l 345 405 l 270 405 q 254 412 261 405 q 248 427 248 418 q 254 444 248 437 q 270 450 261 450 l 361 450 q 382 437 374 450 l 549 45 l 646 45 q 477 445 477 440 q 480 455 477 449 q 501 467 486 467 q 522 454 515 467 l 702 32 q 704 22 704 27 q 701 10 704 16 q 681 -1 692 -1 m 271 -1 l 136 -1 q 119 6 126 -1 q 113 22 113 13 l 113 968 q 119 983 113 977 q 136 990 126 990 q 151 983 144 990 q 158 968 158 977 l 158 45 l 248 45 l 248 292 q 254 309 248 302 q 271 315 261 315 q 286 309 279 315 q 293 292 293 302 l 293 22 q 286 6 293 14 q 271 -1 279 -1 z "},"S":{"ha":810,"x_min":112,"x_max":698,"o":"m 405 134 q 293 181 340 134 q 247 292 247 227 q 254 308 247 302 q 270 315 260 315 q 286 308 279 315 q 293 292 293 302 q 326 213 293 246 q 405 180 359 180 q 484 213 451 180 q 517 292 517 246 q 484 371 517 338 q 405 404 451 404 q 257 445 323 406 q 152 550 191 484 q 112 697 112 616 q 152 844 112 778 q 258 950 191 911 q 405 990 324 990 q 552 950 486 990 q 658 844 618 911 q 698 697 698 778 q 691 681 698 688 q 675 675 684 675 q 659 681 665 675 q 652 697 652 688 q 618 822 652 766 q 529 911 585 878 q 405 944 473 944 q 281 911 337 944 q 191 822 224 878 q 158 697 158 766 q 191 573 158 629 q 281 484 224 517 q 405 450 337 450 q 517 403 472 448 q 563 292 563 357 q 516 181 563 227 q 405 134 470 134 m 405 -1 q 258 39 324 -1 q 152 145 191 79 q 112 292 112 212 q 119 308 112 302 q 135 315 125 315 q 151 308 144 315 q 158 292 158 302 q 191 168 158 224 q 281 79 224 112 q 405 45 337 45 q 529 79 473 45 q 618 168 585 112 q 652 292 652 224 q 618 416 652 360 q 529 506 585 473 q 405 539 473 539 q 292 587 338 541 q 247 697 247 632 q 293 809 247 762 q 405 855 340 855 q 516 809 470 855 q 563 697 563 762 q 556 681 563 688 q 540 675 549 675 q 524 681 530 675 q 517 697 517 688 q 484 776 517 743 q 405 809 451 809 q 326 776 359 809 q 293 697 293 743 q 326 618 293 651 q 405 585 359 585 q 552 545 486 585 q 658 439 618 506 q 698 292 698 373 q 658 145 698 212 q 552 39 618 79 q 405 -1 486 -1 z "},"s":{"ha":810,"x_min":112,"x_max":698,"o":"m 405 134 q 293 181 340 134 q 247 292 247 227 q 254 308 247 302 q 270 315 260 315 q 286 308 279 315 q 293 292 293 302 q 326 213 293 246 q 405 180 359 180 q 484 213 451 180 q 517 292 517 246 q 484 371 517 338 q 405 404 451 404 q 257 445 323 406 q 152 550 191 484 q 112 697 112 616 q 152 844 112 778 q 258 950 191 911 q 405 990 324 990 q 552 950 486 990 q 658 844 618 911 q 698 697 698 778 q 691 681 698 688 q 675 675 684 675 q 659 681 665 675 q 652 697 652 688 q 618 822 652 766 q 529 911 585 878 q 405 944 473 944 q 281 911 337 944 q 191 822 224 878 q 158 697 158 766 q 191 573 158 629 q 281 484 224 517 q 405 450 337 450 q 517 403 472 448 q 563 292 563 357 q 516 181 563 227 q 405 134 470 134 m 405 -1 q 258 39 324 -1 q 152 145 191 79 q 112 292 112 212 q 119 308 112 302 q 135 315 125 315 q 151 308 144 315 q 158 292 158 302 q 191 168 158 224 q 281 79 224 112 q 405 45 337 45 q 529 79 473 45 q 618 168 585 112 q 652 292 652 224 q 618 416 652 360 q 529 506 585 473 q 405 539 473 539 q 292 587 338 541 q 247 697 247 632 q 293 809 247 762 q 405 855 340 855 q 516 809 470 855 q 563 697 563 762 q 556 681 563 688 q 540 675 549 675 q 524 681 530 675 q 517 697 517 688 q 484 776 517 743 q 405 809 451 809 q 326 776 359 809 q 293 697 293 743 q 326 618 293 651 q 405 585 359 585 q 552 545 486 585 q 658 439 618 506 q 698 292 698 373 q 658 145 698 212 q 552 39 618 79 q 405 -1 486 -1 z "},"T":{"ha":810,"x_min":113,"x_max":697,"o":"m 675 945 l 135 945 q 119 951 125 945 q 113 967 113 958 q 119 983 113 977 q 135 990 125 990 l 675 990 q 691 983 684 990 q 697 967 697 977 q 691 951 697 958 q 675 945 684 945 m 337 0 q 321 6 328 0 q 315 22 315 13 l 315 810 l 135 810 q 119 817 125 810 q 113 832 113 823 q 119 848 113 842 q 135 855 125 855 l 337 855 q 353 848 347 855 q 360 832 360 842 l 360 22 q 353 6 360 13 q 337 0 347 0 m 473 0 q 456 6 463 0 q 450 22 450 13 l 450 832 q 456 848 450 842 q 473 855 463 855 l 675 855 q 691 848 684 855 q 697 832 697 842 q 691 817 697 823 q 675 810 684 810 l 495 810 l 495 22 q 488 6 495 13 q 473 0 481 0 z "},"t":{"ha":810,"x_min":113,"x_max":697,"o":"m 675 945 l 135 945 q 119 951 125 945 q 113 967 113 958 q 119 983 113 977 q 135 990 125 990 l 675 990 q 691 983 684 990 q 697 967 697 977 q 691 951 697 958 q 675 945 684 945 m 337 0 q 321 6 328 0 q 315 22 315 13 l 315 810 l 135 810 q 119 817 125 810 q 113 832 113 823 q 119 848 113 842 q 135 855 125 855 l 337 855 q 353 848 347 855 q 360 832 360 842 l 360 22 q 353 6 360 13 q 337 0 347 0 m 473 0 q 456 6 463 0 q 450 22 450 13 l 450 832 q 456 848 450 842 q 473 855 463 855 l 675 855 q 691 848 684 855 q 697 832 697 842 q 691 817 697 823 q 675 810 684 810 l 495 810 l 495 22 q 488 6 495 13 q 473 0 481 0 z "},"U":{"ha":810,"x_min":112,"x_max":698,"o":"m 405 134 q 293 181 340 134 q 247 292 247 227 l 247 967 q 254 983 247 977 q 270 989 260 989 q 286 983 279 989 q 293 967 293 977 l 293 292 q 326 213 293 246 q 405 180 359 180 q 484 213 451 180 q 517 292 517 246 l 517 967 q 524 983 517 977 q 540 989 530 989 q 556 983 549 989 q 563 967 563 977 l 563 292 q 517 180 562 227 q 405 134 468 134 m 405 -1 q 258 39 324 -1 q 152 145 191 79 q 112 292 112 212 l 112 967 q 119 983 112 977 q 135 989 125 989 q 151 983 144 989 q 158 967 158 977 l 158 292 q 191 168 158 224 q 281 79 224 112 q 405 45 337 45 q 529 79 473 45 q 618 168 585 112 q 652 292 652 224 l 652 967 q 659 983 652 977 q 675 989 665 989 q 691 983 684 989 q 698 967 698 977 l 698 292 q 612 85 696 172 q 405 -1 522 -1 z "},"u":{"ha":810,"x_min":112,"x_max":698,"o":"m 405 134 q 293 181 340 134 q 247 292 247 227 l 247 967 q 254 983 247 977 q 270 989 260 989 q 286 983 279 989 q 293 967 293 977 l 293 292 q 326 213 293 246 q 405 180 359 180 q 484 213 451 180 q 517 292 517 246 l 517 967 q 524 983 517 977 q 540 989 530 989 q 556 983 549 989 q 563 967 563 977 l 563 292 q 517 180 562 227 q 405 134 468 134 m 405 -1 q 258 39 324 -1 q 152 145 191 79 q 112 292 112 212 l 112 967 q 119 983 112 977 q 135 989 125 989 q 151 983 144 989 q 158 967 158 977 l 158 292 q 191 168 158 224 q 281 79 224 112 q 405 45 337 45 q 529 79 473 45 q 618 168 585 112 q 652 292 652 224 l 652 967 q 659 983 652 977 q 675 989 665 989 q 691 983 684 989 q 698 967 698 977 l 698 292 q 612 85 696 172 q 405 -1 522 -1 z "},"V":{"ha":810,"x_min":45,"x_max":765,"o":"m 338 0 q 315 16 320 0 q 45 968 45 964 q 49 980 45 973 q 68 989 55 989 q 90 974 83 989 q 360 22 360 26 q 357 10 360 17 q 338 0 351 0 m 404 236 q 382 252 387 236 q 180 968 180 964 q 184 980 180 973 q 203 989 190 989 q 224 974 218 989 q 428 258 428 262 q 424 246 428 253 q 404 236 418 236 m 453 405 q 447 406 450 405 q 430 428 430 412 q 585 974 430 431 q 596 987 588 983 q 607 989 602 989 l 613 989 q 630 967 630 984 q 475 421 630 963 q 453 405 470 405 m 472 0 l 466 1 q 450 22 450 6 q 720 974 450 25 q 742 989 725 989 l 749 989 q 765 967 765 984 q 494 16 765 964 q 472 0 490 0 z "},"v":{"ha":810,"x_min":45,"x_max":765,"o":"m 338 0 q 315 16 320 0 q 45 968 45 964 q 49 980 45 973 q 68 989 55 989 q 90 974 83 989 q 360 22 360 26 q 357 10 360 17 q 338 0 351 0 m 404 236 q 382 252 387 236 q 180 968 180 964 q 184 980 180 973 q 203 989 190 989 q 224 974 218 989 q 428 258 428 262 q 424 246 428 253 q 404 236 418 236 m 453 405 q 447 406 450 405 q 430 428 430 412 q 585 974 430 431 q 596 987 588 983 q 607 989 602 989 l 613 989 q 630 967 630 984 q 475 421 630 963 q 453 405 470 405 m 472 0 l 466 1 q 450 22 450 6 q 720 974 450 25 q 742 989 725 989 l 749 989 q 765 967 765 984 q 494 16 765 964 q 472 0 490 0 z "},"W":{"ha":945,"x_min":43,"x_max":902,"o":"m 326 384 q 310 389 317 384 q 302 402 304 394 q 181 967 181 964 q 186 981 181 974 q 205 990 192 990 q 227 972 222 990 l 320 537 l 382 970 q 390 985 384 980 q 404 990 397 990 q 423 981 416 990 q 427 968 427 975 l 347 404 q 326 384 344 385 m 542 0 l 539 0 q 516 20 520 0 l 473 326 l 430 20 q 421 5 428 10 q 406 0 414 0 l 404 0 q 384 22 384 4 l 450 494 q 458 508 452 502 q 473 513 465 513 q 488 508 481 513 q 496 494 494 502 l 562 22 q 542 0 562 4 m 268 0 q 247 18 250 0 l 43 968 q 47 981 43 974 q 67 990 54 990 q 80 986 73 990 q 89 972 87 981 q 292 23 292 26 q 287 9 292 16 q 268 0 281 0 m 621 384 l 621 384 q 599 404 602 385 l 517 966 q 523 982 517 975 q 541 990 529 990 q 564 970 559 990 l 626 536 l 720 972 q 742 990 725 990 q 762 979 755 990 q 766 966 766 974 q 644 402 766 964 q 621 384 639 384 m 677 0 l 672 1 q 654 23 654 5 q 857 972 654 26 q 867 987 859 981 q 878 990 872 990 q 899 980 892 990 q 902 968 902 974 l 699 18 q 677 0 695 0 z "},"w":{"ha":945,"x_min":43,"x_max":902,"o":"m 326 384 q 310 389 317 384 q 302 402 304 394 q 181 967 181 964 q 186 981 181 974 q 205 990 192 990 q 227 972 222 990 l 320 537 l 382 970 q 390 985 384 980 q 404 990 397 990 q 423 981 416 990 q 427 968 427 975 l 347 404 q 326 384 344 385 m 542 0 l 539 0 q 516 20 520 0 l 473 326 l 430 20 q 421 5 428 10 q 406 0 414 0 l 404 0 q 384 22 384 4 l 450 494 q 458 508 452 502 q 473 513 465 513 q 488 508 481 513 q 496 494 494 502 l 562 22 q 542 0 562 4 m 268 0 q 247 18 250 0 l 43 968 q 47 981 43 974 q 67 990 54 990 q 80 986 73 990 q 89 972 87 981 q 292 23 292 26 q 287 9 292 16 q 268 0 281 0 m 621 384 l 621 384 q 599 404 602 385 l 517 966 q 523 982 517 975 q 541 990 529 990 q 564 970 559 990 l 626 536 l 720 972 q 742 990 725 990 q 762 979 755 990 q 766 966 766 974 q 644 402 766 964 q 621 384 639 384 m 677 0 l 672 1 q 654 23 654 5 q 857 972 654 26 q 867 987 859 981 q 878 990 872 990 q 899 980 892 990 q 902 968 902 974 l 699 18 q 677 0 695 0 z "},"X":{"ha":810,"x_min":35,"x_max":775,"o":"m 405 608 q 385 620 393 608 l 193 956 q 190 967 190 962 q 192 976 190 970 q 200 986 193 982 q 214 990 208 990 q 233 979 227 990 l 405 677 l 577 979 q 596 990 583 990 q 608 987 603 990 q 620 967 620 980 q 425 620 620 962 q 405 608 417 608 m 58 0 q 46 3 52 0 q 35 23 35 10 q 300 495 35 28 q 35 967 35 962 q 46 987 35 980 q 58 990 52 990 q 77 979 70 990 l 347 507 q 351 495 351 500 q 347 484 351 489 l 77 12 q 58 0 70 0 m 752 0 q 732 12 740 0 l 463 484 q 460 495 460 489 q 463 507 460 500 l 732 979 q 752 990 740 990 q 764 987 758 990 q 775 967 775 980 q 509 495 775 962 l 772 34 q 775 23 775 28 q 764 3 775 10 q 752 0 758 0 m 596 0 q 577 12 584 0 l 405 313 l 233 12 q 214 0 226 0 q 201 3 208 0 q 190 22 190 10 q 193 34 190 28 l 385 370 q 405 382 393 382 q 425 370 417 382 q 620 23 620 28 q 608 3 620 10 q 596 0 603 0 z "},"x":{"ha":810,"x_min":35,"x_max":775,"o":"m 405 608 q 385 620 393 608 l 193 956 q 190 967 190 962 q 192 976 190 970 q 200 986 193 982 q 214 990 208 990 q 233 979 227 990 l 405 677 l 577 979 q 596 990 583 990 q 608 987 603 990 q 620 967 620 980 q 425 620 620 962 q 405 608 417 608 m 58 0 q 46 3 52 0 q 35 23 35 10 q 300 495 35 28 q 35 967 35 962 q 46 987 35 980 q 58 990 52 990 q 77 979 70 990 l 347 507 q 351 495 351 500 q 347 484 351 489 l 77 12 q 58 0 70 0 m 752 0 q 732 12 740 0 l 463 484 q 460 495 460 489 q 463 507 460 500 l 732 979 q 752 990 740 990 q 764 987 758 990 q 775 967 775 980 q 509 495 775 962 l 772 34 q 775 23 775 28 q 764 3 775 10 q 752 0 758 0 m 596 0 q 577 12 584 0 l 405 313 l 233 12 q 214 0 226 0 q 201 3 208 0 q 190 22 190 10 q 193 34 190 28 l 385 370 q 405 382 393 382 q 425 370 417 382 q 620 23 620 28 q 608 3 620 10 q 596 0 603 0 z "},"Y":{"ha":810,"x_min":35,"x_max":775,"o":"m 338 0 q 321 7 328 0 q 315 22 315 14 l 315 471 l 37 956 q 35 967 35 962 q 36 976 35 970 q 45 986 38 982 q 58 990 52 990 q 77 979 71 990 l 357 488 q 361 477 361 483 l 361 22 q 354 7 361 14 q 338 0 347 1 m 405 608 q 385 620 393 608 l 193 956 q 190 967 190 962 q 192 976 190 970 q 200 986 193 982 q 214 990 208 990 q 233 979 226 990 l 405 677 l 578 979 q 596 990 584 990 q 608 987 602 990 q 620 967 620 980 q 617 956 620 962 l 425 620 q 405 608 418 608 m 473 0 q 456 7 463 0 q 450 22 450 14 l 450 477 q 733 979 450 482 q 752 990 739 990 q 764 987 758 990 q 775 966 775 980 q 773 956 775 961 l 496 471 l 496 22 q 489 7 496 14 q 473 0 482 0 z "},"y":{"ha":810,"x_min":35,"x_max":775,"o":"m 338 0 q 321 7 328 0 q 315 22 315 14 l 315 471 l 37 956 q 35 967 35 962 q 36 976 35 970 q 45 986 38 982 q 58 990 52 990 q 77 979 71 990 l 357 488 q 361 477 361 483 l 361 22 q 354 7 361 14 q 338 0 347 1 m 405 608 q 385 620 393 608 l 193 956 q 190 967 190 962 q 192 976 190 970 q 200 986 193 982 q 214 990 208 990 q 233 979 226 990 l 405 677 l 578 979 q 596 990 584 990 q 608 987 602 990 q 620 967 620 980 q 617 956 620 962 l 425 620 q 405 608 418 608 m 473 0 q 456 7 463 0 q 450 22 450 14 l 450 477 q 733 979 450 482 q 752 990 739 990 q 764 987 758 990 q 775 966 775 980 q 773 956 775 961 l 496 471 l 496 22 q 489 7 496 14 q 473 0 482 0 z "},"Z":{"ha":810,"x_min":112,"x_max":698,"o":"m 675 944 l 135 944 q 119 951 125 944 q 113 967 113 958 q 119 983 113 977 q 135 990 125 990 l 675 990 q 691 983 684 990 q 697 967 697 977 q 691 951 697 958 q 675 944 684 944 m 135 0 q 119 6 125 0 q 112 22 113 13 l 112 157 q 115 169 112 164 l 481 810 l 135 810 q 119 816 125 810 q 113 832 113 823 q 119 848 113 842 q 135 855 126 855 l 520 855 q 540 844 532 855 q 543 832 543 838 q 541 821 543 827 l 158 152 l 158 22 q 152 6 158 13 q 135 0 145 0 m 675 -1 l 270 -1 q 254 6 260 -1 q 248 22 248 13 q 254 38 248 32 q 270 45 260 45 l 675 45 q 691 39 684 45 q 697 22 697 32 q 691 6 697 13 q 675 -1 684 -1 m 675 134 l 290 134 q 270 146 278 134 q 267 157 267 151 q 270 169 267 163 l 655 844 q 674 855 662 855 q 686 852 680 855 q 698 831 698 845 q 330 180 698 827 l 675 180 q 691 174 684 180 q 698 157 698 167 q 691 141 698 149 q 675 134 684 134 z "},"z":{"ha":810,"x_min":112,"x_max":698,"o":"m 675 944 l 135 944 q 119 951 125 944 q 113 967 113 958 q 119 983 113 977 q 135 990 125 990 l 675 990 q 691 983 684 990 q 697 967 697 977 q 691 951 697 958 q 675 944 684 944 m 135 0 q 119 6 125 0 q 112 22 113 13 l 112 157 q 115 169 112 164 l 481 810 l 135 810 q 119 816 125 810 q 113 832 113 823 q 119 848 113 842 q 135 855 126 855 l 520 855 q 540 844 532 855 q 543 832 543 838 q 541 821 543 827 l 158 152 l 158 22 q 152 6 158 13 q 135 0 145 0 m 675 -1 l 270 -1 q 254 6 260 -1 q 248 22 248 13 q 254 38 248 32 q 270 45 260 45 l 675 45 q 691 39 684 45 q 697 22 697 32 q 691 6 697 13 q 675 -1 684 -1 m 675 134 l 290 134 q 270 146 278 134 q 267 157 267 151 q 270 169 267 163 l 655 844 q 674 855 662 855 q 686 852 680 855 q 698 831 698 845 q 330 180 698 827 l 675 180 q 691 174 684 180 q 698 157 698 167 q 691 141 698 149 q 675 134 684 134 z "},"":{"ha":810,"x_min":112,"x_max":698,"o":"m 540 404 l 135 404 q 119 411 125 404 q 112 427 112 418 l 112 562 q 119 578 112 572 q 135 585 125 585 l 675 585 q 691 578 684 585 q 698 562 698 572 l 698 427 q 691 411 698 418 q 675 405 684 405 q 659 411 665 405 q 652 427 652 418 l 652 539 l 158 539 l 158 450 l 540 450 q 556 444 549 450 q 562 427 562 437 q 556 411 562 418 q 540 404 549 404 z "},"":{"ha":810,"x_min":112,"x_max":698,"o":"m 540 404 l 135 404 q 119 411 125 404 q 112 427 112 418 l 112 562 q 119 578 112 572 q 135 585 125 585 l 675 585 q 691 578 684 585 q 698 562 698 572 l 698 427 q 691 411 698 418 q 675 405 684 405 q 659 411 665 405 q 652 427 652 418 l 652 539 l 158 539 l 158 450 l 540 450 q 556 444 549 450 q 562 427 562 437 q 556 411 562 418 q 540 404 549 404 z "},"":{"ha":810,"x_min":112,"x_max":698,"o":"m 540 404 l 135 404 q 119 411 125 404 q 112 427 112 418 l 112 562 q 119 578 112 572 q 135 585 125 585 l 675 585 q 691 578 684 585 q 698 562 698 572 l 698 427 q 691 411 698 418 q 675 405 684 405 q 659 411 665 405 q 652 427 652 418 l 652 539 l 158 539 l 158 450 l 540 450 q 556 444 549 450 q 562 427 562 437 q 556 411 562 418 q 540 404 549 404 z "},"":{"ha":810,"x_min":112,"x_max":698,"o":"m 540 404 l 135 404 q 119 411 125 404 q 112 427 112 418 l 112 562 q 119 578 112 572 q 135 585 125 585 l 675 585 q 691 578 684 585 q 698 562 698 572 l 698 427 q 691 411 698 418 q 675 405 684 405 q 659 411 665 405 q 652 427 652 418 l 652 539 l 158 539 l 158 450 l 540 450 q 556 444 549 450 q 562 427 562 437 q 556 411 562 418 q 540 404 549 404 z "},"":{"ha":810,"x_min":112,"x_max":698,"o":"m 540 404 l 135 404 q 119 411 125 404 q 112 427 112 418 l 112 562 q 119 578 112 572 q 135 585 125 585 l 675 585 q 691 578 684 585 q 698 562 698 572 l 698 427 q 691 411 698 418 q 675 405 684 405 q 659 411 665 405 q 652 427 652 418 l 652 539 l 158 539 l 158 450 l 540 450 q 556 444 549 450 q 562 427 562 437 q 556 411 562 418 q 540 404 549 404 z "},"":{"ha":810,"x_min":112,"x_max":698,"o":"m 540 404 l 135 404 q 119 411 125 404 q 112 427 112 418 l 112 562 q 119 578 112 572 q 135 585 125 585 l 675 585 q 691 578 684 585 q 698 562 698 572 l 698 427 q 691 411 698 418 q 675 405 684 405 q 659 411 665 405 q 652 427 652 418 l 652 539 l 158 539 l 158 450 l 540 450 q 556 444 549 450 q 562 427 562 437 q 556 411 562 418 q 540 404 549 404 z "},"":{"ha":810,"x_min":113,"x_max":697,"o":"m 675 -1 l 135 -1 q 119 6 125 -1 q 113 22 113 13 q 119 39 113 32 q 135 45 125 45 l 675 45 q 691 39 684 45 q 697 22 697 32 q 691 6 697 13 q 675 -1 684 -1 m 675 -136 l 135 -136 q 119 -129 125 -136 q 113 -113 113 -122 q 119 -96 113 -103 q 135 -90 125 -90 l 675 -90 q 691 -96 684 -90 q 697 -113 697 -103 q 691 -129 697 -122 q 675 -136 684 -136 z "},"":{"ha":674,"x_min":111,"x_max":564,"o":"m 275 0 q 256 11 262 0 q 252 24 252 17 q 520 974 252 27 q 542 990 525 990 q 561 979 555 990 q 564 967 564 973 q 297 16 564 964 q 275 0 290 0 m 134 0 q 115 11 121 0 q 111 24 111 17 l 112 29 l 380 974 q 401 990 385 990 q 420 979 414 990 q 424 967 424 973 q 157 16 424 964 q 134 0 150 0 z "},"":{"ha":674,"x_min":111,"x_max":564,"o":"m 275 0 q 256 11 262 0 q 252 24 252 17 q 520 974 252 27 q 542 990 525 990 q 561 979 555 990 q 564 967 564 973 q 297 16 564 964 q 275 0 290 0 m 134 0 q 115 11 121 0 q 111 24 111 17 l 112 29 l 380 974 q 401 990 385 990 q 420 979 414 990 q 424 967 424 973 q 157 16 424 964 q 134 0 150 0 z "},"":{"ha":406,"x_min":113,"x_max":293,"o":"m 271 540 l 135 540 q 119 547 125 540 q 113 563 113 553 l 113 968 q 119 984 113 977 q 135 991 125 991 l 271 991 q 286 984 279 991 q 293 968 293 977 l 293 698 q 286 682 293 688 q 271 675 279 675 q 254 682 261 675 q 248 698 248 688 l 248 945 l 158 945 l 158 586 l 271 586 q 286 579 279 586 q 293 563 293 572 q 286 547 293 553 q 271 540 279 540 z "},"":{"ha":406,"x_min":113,"x_max":293,"o":"m 271 540 l 135 540 q 119 547 125 540 q 113 563 113 553 l 113 968 q 119 984 113 977 q 135 991 125 991 l 271 991 q 286 984 279 991 q 293 968 293 977 l 293 698 q 286 682 293 688 q 271 675 279 675 q 254 682 261 675 q 248 698 248 688 l 248 945 l 158 945 l 158 586 l 271 586 q 286 579 279 586 q 293 563 293 572 q 286 547 293 553 q 271 540 279 540 z "},"":{"ha":406,"x_min":113,"x_max":293,"o":"m 271 0 l 135 0 q 119 7 125 0 q 113 23 113 14 l 113 428 q 119 444 113 437 q 135 451 125 451 l 271 451 q 286 444 279 451 q 293 428 293 437 l 293 158 q 286 142 293 149 q 271 136 279 136 q 254 142 261 136 q 248 158 248 149 l 248 405 l 158 405 l 158 46 l 271 46 q 286 39 279 46 q 293 23 293 33 q 286 7 293 14 q 271 0 279 0 z "},"":{"ha":406,"x_min":113,"x_max":293,"o":"m 271 540 l 135 540 q 119 547 125 540 q 113 563 113 553 l 113 968 q 119 984 113 977 q 135 991 125 991 l 271 991 q 286 984 279 991 q 293 968 293 977 l 293 698 q 286 682 293 688 q 271 675 279 675 q 254 682 261 675 q 248 698 248 688 l 248 945 l 158 945 l 158 586 l 271 586 q 286 579 279 586 q 293 563 293 572 q 286 547 293 553 q 271 540 279 540 z "},"":{"ha":674,"x_min":113,"x_max":563,"o":"m 541 540 l 406 540 q 389 547 396 540 q 382 563 382 553 q 389 579 382 572 q 406 586 396 586 l 517 586 l 517 945 l 428 945 l 428 698 q 421 682 428 688 q 406 675 414 675 q 389 682 396 675 q 382 698 382 688 l 382 968 q 389 984 382 977 q 406 991 396 991 l 541 991 q 556 984 550 991 q 563 968 563 977 l 563 563 q 556 547 563 553 q 541 540 550 540 m 270 540 l 135 540 q 119 547 125 540 q 113 563 113 553 l 113 968 q 119 984 113 977 q 135 991 125 991 l 270 991 q 286 984 279 991 q 293 968 293 977 q 286 951 293 958 q 270 945 279 945 l 158 945 l 158 586 l 248 586 l 248 833 q 254 849 248 842 q 270 855 261 855 q 286 849 279 855 q 293 833 293 842 l 293 563 q 286 547 293 553 q 270 540 279 540 z "},"":{"ha":674,"x_min":113,"x_max":563,"o":"m 541 540 l 406 540 q 389 547 396 540 q 382 563 382 553 q 389 579 382 572 q 406 586 396 586 l 517 586 l 517 945 l 428 945 l 428 698 q 421 682 428 688 q 406 675 414 675 q 389 682 396 675 q 382 698 382 688 l 382 968 q 389 984 382 977 q 406 991 396 991 l 541 991 q 556 984 550 991 q 563 968 563 977 l 563 563 q 556 547 563 553 q 541 540 550 540 m 270 540 l 135 540 q 119 547 125 540 q 113 563 113 553 l 113 968 q 119 984 113 977 q 135 991 125 991 l 270 991 q 286 984 279 991 q 293 968 293 977 q 286 951 293 958 q 270 945 279 945 l 158 945 l 158 586 l 248 586 l 248 833 q 254 849 248 842 q 270 855 261 855 q 286 849 279 855 q 293 833 293 842 l 293 563 q 286 547 293 553 q 270 540 279 540 z "},"":{"ha":674,"x_min":113,"x_max":563,"o":"m 541 0 l 406 0 q 389 7 396 0 q 382 23 382 14 q 389 39 382 33 q 406 46 396 46 l 517 46 l 517 405 l 428 405 l 428 158 q 421 142 428 149 q 406 136 414 136 q 389 142 396 136 q 382 158 382 149 l 382 428 q 389 444 382 437 q 406 451 396 451 l 541 451 q 556 444 550 451 q 563 428 563 437 l 563 23 q 556 7 563 14 q 541 0 550 0 m 270 0 l 135 0 q 119 7 125 0 q 113 23 113 14 l 113 428 q 119 444 113 437 q 135 451 125 451 l 270 451 q 286 444 279 451 q 293 428 293 437 q 286 412 293 418 q 270 405 279 405 l 158 405 l 158 46 l 248 46 l 248 293 q 254 309 248 302 q 270 315 261 315 q 286 309 279 315 q 293 293 293 302 l 293 23 q 286 7 293 14 q 270 0 279 0 z "},"":{"ha":674,"x_min":113,"x_max":563,"o":"m 541 540 l 406 540 q 389 547 396 540 q 382 563 382 553 q 389 579 382 572 q 406 586 396 586 l 517 586 l 517 945 l 428 945 l 428 698 q 421 682 428 688 q 406 675 414 675 q 389 682 396 675 q 382 698 382 688 l 382 968 q 389 984 382 977 q 406 991 396 991 l 541 991 q 556 984 550 991 q 563 968 563 977 l 563 563 q 556 547 563 553 q 541 540 550 540 m 270 540 l 135 540 q 119 547 125 540 q 113 563 113 553 l 113 968 q 119 984 113 977 q 135 991 125 991 l 270 991 q 286 984 279 991 q 293 968 293 977 q 286 951 293 958 q 270 945 279 945 l 158 945 l 158 586 l 248 586 l 248 833 q 254 849 248 842 q 270 855 261 855 q 286 849 279 855 q 293 833 293 842 l 293 563 q 286 547 293 553 q 270 540 279 540 z "},"":{"ha":406,"x_min":113,"x_max":293,"o":"m 271 540 l 135 540 q 119 547 125 540 q 113 563 113 553 l 113 968 q 119 984 113 977 q 135 991 125 991 l 271 991 q 286 984 279 991 q 293 968 293 977 l 293 698 q 286 682 293 688 q 271 675 279 675 q 254 682 261 675 q 248 698 248 688 l 248 945 l 158 945 l 158 586 l 271 586 q 286 579 279 586 q 293 563 293 572 q 286 547 293 553 q 271 540 279 540 z "},"":{"ha":674,"x_min":113,"x_max":563,"o":"m 541 540 l 406 540 q 389 547 396 540 q 382 563 382 553 q 389 579 382 572 q 406 586 396 586 l 517 586 l 517 945 l 428 945 l 428 698 q 421 682 428 688 q 406 675 414 675 q 389 682 396 675 q 382 698 382 688 l 382 968 q 389 984 382 977 q 406 991 396 991 l 541 991 q 556 984 550 991 q 563 968 563 977 l 563 563 q 556 547 563 553 q 541 540 550 540 m 270 540 l 135 540 q 119 547 125 540 q 113 563 113 553 l 113 968 q 119 984 113 977 q 135 991 125 991 l 270 991 q 286 984 279 991 q 293 968 293 977 q 286 951 293 958 q 270 945 279 945 l 158 945 l 158 586 l 248 586 l 248 833 q 254 849 248 842 q 270 855 261 855 q 286 849 279 855 q 293 833 293 842 l 293 563 q 286 547 293 553 q 270 540 279 540 z "},"":{"ha":810,"x_min":247,"x_max":563,"o":"m 270 1080 q 254 1087 260 1080 q 247 1103 247 1094 l 247 1238 q 254 1254 247 1248 q 270 1261 260 1261 l 540 1261 q 556 1254 549 1261 q 563 1238 563 1248 l 563 1103 q 556 1087 563 1094 q 540 1080 549 1080 q 524 1087 530 1080 q 517 1103 517 1094 l 517 1215 l 293 1215 l 293 1126 l 405 1126 q 421 1119 414 1126 q 427 1103 427 1112 q 421 1087 427 1094 q 405 1080 414 1080 l 270 1080 z "},"":{"ha":810,"x_min":45,"x_max":765,"o":"m 202 0 l 67 0 q 49 9 56 0 q 45 22 45 16 q 315 974 45 26 q 337 991 322 991 l 473 991 q 491 981 483 991 q 495 968 495 975 q 263 151 495 964 q 242 135 258 135 q 235 136 239 135 q 218 157 218 142 q 442 945 218 161 l 355 945 l 98 45 l 202 45 q 218 39 212 45 q 225 22 225 32 q 218 7 225 14 q 202 0 212 0 m 743 0 l 608 0 q 585 16 592 0 q 434 549 434 546 q 438 562 434 555 q 458 572 445 572 q 479 556 473 572 l 625 45 l 712 45 q 494 811 494 808 q 498 823 494 817 q 517 833 504 833 q 539 819 533 833 l 764 29 l 765 22 q 761 9 765 16 q 743 0 753 0 m 270 1080 q 254 1087 260 1080 q 247 1103 247 1094 l 247 1238 q 254 1254 247 1248 q 270 1261 260 1261 l 540 1261 q 556 1254 549 1261 q 563 1238 563 1248 l 563 1103 q 556 1087 563 1094 q 540 1080 549 1080 q 524 1087 530 1080 q 517 1103 517 1094 l 517 1215 l 293 1215 l 293 1126 l 405 1126 q 421 1119 414 1126 q 427 1103 427 1112 q 421 1087 427 1094 q 405 1080 414 1080 l 270 1080 z "},"":{"ha":810,"x_min":45,"x_max":765,"o":"m 202 0 l 67 0 q 49 9 56 0 q 45 22 45 16 q 315 974 45 26 q 337 991 322 991 l 473 991 q 491 981 483 991 q 495 968 495 975 q 263 151 495 964 q 242 135 258 135 q 235 136 239 135 q 218 157 218 142 q 442 945 218 161 l 355 945 l 98 45 l 202 45 q 218 39 212 45 q 225 22 225 32 q 218 7 225 14 q 202 0 212 0 m 743 0 l 608 0 q 585 16 592 0 q 434 549 434 546 q 438 562 434 555 q 458 572 445 572 q 479 556 473 572 l 625 45 l 712 45 q 494 811 494 808 q 498 823 494 817 q 517 833 504 833 q 539 819 533 833 l 764 29 l 765 22 q 761 9 765 16 q 743 0 753 0 m 270 1080 q 254 1087 260 1080 q 247 1103 247 1094 l 247 1238 q 254 1254 247 1248 q 270 1261 260 1261 l 540 1261 q 556 1254 549 1261 q 563 1238 563 1248 l 563 1103 q 556 1087 563 1094 q 540 1080 549 1080 q 524 1087 530 1080 q 517 1103 517 1094 l 517 1215 l 293 1215 l 293 1126 l 405 1126 q 421 1119 414 1126 q 427 1103 427 1112 q 421 1087 427 1094 q 405 1080 414 1080 l 270 1080 z "},"":{"ha":810,"x_min":112,"x_max":698,"o":"m 135 0 q 119 6 125 0 q 112 22 112 13 l 112 967 q 119 983 112 977 q 135 989 125 989 q 151 983 144 989 q 158 967 158 977 l 158 22 q 151 6 158 13 q 135 0 144 0 m 540 404 l 405 404 q 389 411 395 404 q 382 427 382 418 q 389 444 382 437 q 405 450 395 450 l 517 450 l 517 539 l 270 539 q 254 546 260 539 q 247 562 247 553 l 247 832 q 254 848 247 842 q 270 855 260 855 l 652 855 l 652 944 l 270 944 q 254 951 260 944 q 248 967 248 958 q 254 983 248 977 q 270 990 260 990 l 675 990 q 691 983 684 990 q 698 967 698 977 l 698 832 q 691 816 698 823 q 675 809 684 809 l 293 809 l 293 585 l 540 585 q 556 578 549 585 q 563 562 563 572 l 563 427 q 556 411 563 418 q 540 404 549 404 m 675 -1 l 270 -1 q 254 6 260 -1 q 248 22 248 13 q 254 39 248 32 q 270 45 260 45 l 652 45 l 652 134 l 270 134 q 254 141 260 134 q 247 157 247 148 l 247 427 q 254 443 247 437 q 270 450 260 450 q 286 443 279 450 q 293 427 293 437 l 293 180 l 675 180 q 691 174 684 180 q 698 157 698 167 l 698 22 q 691 6 698 13 q 675 -1 684 -1 m 270 1080 q 254 1087 260 1080 q 247 1103 247 1094 l 247 1238 q 254 1254 247 1248 q 270 1261 260 1261 l 540 1261 q 556 1254 549 1261 q 563 1238 563 1248 l 563 1103 q 556 1087 563 1094 q 540 1080 549 1080 q 524 1087 530 1080 q 517 1103 517 1094 l 517 1215 l 293 1215 l 293 1126 l 405 1126 q 421 1119 414 1126 q 427 1103 427 1112 q 421 1087 427 1094 q 405 1080 414 1080 l 270 1080 z "},"":{"ha":810,"x_min":112,"x_max":698,"o":"m 135 0 q 119 6 125 0 q 112 22 112 13 l 112 967 q 119 983 112 977 q 135 989 125 989 q 151 983 144 989 q 158 967 158 977 l 158 22 q 151 6 158 13 q 135 0 144 0 m 540 404 l 405 404 q 389 411 395 404 q 382 427 382 418 q 389 444 382 437 q 405 450 395 450 l 517 450 l 517 539 l 270 539 q 254 546 260 539 q 247 562 247 553 l 247 832 q 254 848 247 842 q 270 855 260 855 l 652 855 l 652 944 l 270 944 q 254 951 260 944 q 248 967 248 958 q 254 983 248 977 q 270 990 260 990 l 675 990 q 691 983 684 990 q 698 967 698 977 l 698 832 q 691 816 698 823 q 675 809 684 809 l 293 809 l 293 585 l 540 585 q 556 578 549 585 q 563 562 563 572 l 563 427 q 556 411 563 418 q 540 404 549 404 m 675 -1 l 270 -1 q 254 6 260 -1 q 248 22 248 13 q 254 39 248 32 q 270 45 260 45 l 652 45 l 652 134 l 270 134 q 254 141 260 134 q 247 157 247 148 l 247 427 q 254 443 247 437 q 270 450 260 450 q 286 443 279 450 q 293 427 293 437 l 293 180 l 675 180 q 691 174 684 180 q 698 157 698 167 l 698 22 q 691 6 698 13 q 675 -1 684 -1 m 270 1080 q 254 1087 260 1080 q 247 1103 247 1094 l 247 1238 q 254 1254 247 1248 q 270 1261 260 1261 l 540 1261 q 556 1254 549 1261 q 563 1238 563 1248 l 563 1103 q 556 1087 563 1094 q 540 1080 549 1080 q 524 1087 530 1080 q 517 1103 517 1094 l 517 1215 l 293 1215 l 293 1126 l 405 1126 q 421 1119 414 1126 q 427 1103 427 1112 q 421 1087 427 1094 q 405 1080 414 1080 l 270 1080 z "},"":{"ha":810,"x_min":113,"x_max":697,"o":"m 675 944 l 135 944 q 119 951 125 944 q 113 967 113 958 q 119 983 113 977 q 135 990 125 990 l 675 990 q 691 983 684 990 q 697 967 697 977 q 691 951 697 958 q 675 944 684 944 m 337 134 l 135 134 q 119 141 125 134 q 113 157 113 148 q 119 174 113 167 q 135 180 125 180 l 315 180 l 315 809 l 135 809 q 119 816 125 809 q 113 832 113 823 q 119 848 113 842 q 135 855 125 855 l 337 855 q 354 848 347 855 q 360 832 360 842 l 360 157 q 354 141 360 148 q 337 134 347 134 m 675 -1 l 135 -1 q 119 6 125 -1 q 113 22 113 13 q 119 39 113 32 q 135 45 125 45 l 675 45 q 691 39 684 45 q 697 22 697 32 q 691 6 697 13 q 675 -1 684 -1 m 675 134 l 473 134 q 456 141 463 134 q 450 157 450 148 l 450 832 q 456 848 450 842 q 473 855 463 855 l 675 855 q 691 848 684 855 q 697 832 697 842 q 691 816 697 823 q 675 809 684 809 l 495 809 l 495 180 l 675 180 q 691 174 684 180 q 697 157 697 167 q 691 141 697 148 q 675 134 684 134 m 270 1080 q 254 1087 260 1080 q 247 1103 247 1094 l 247 1238 q 254 1254 247 1248 q 270 1261 260 1261 l 540 1261 q 556 1254 549 1261 q 563 1238 563 1248 l 563 1103 q 556 1087 563 1094 q 540 1080 549 1080 q 524 1087 530 1080 q 517 1103 517 1094 l 517 1215 l 293 1215 l 293 1126 l 405 1126 q 421 1119 414 1126 q 427 1103 427 1112 q 421 1087 427 1094 q 405 1080 414 1080 l 270 1080 z "},"":{"ha":810,"x_min":113,"x_max":697,"o":"m 675 944 l 135 944 q 119 951 125 944 q 113 967 113 958 q 119 983 113 977 q 135 990 125 990 l 675 990 q 691 983 684 990 q 697 967 697 977 q 691 951 697 958 q 675 944 684 944 m 337 134 l 135 134 q 119 141 125 134 q 113 157 113 148 q 119 174 113 167 q 135 180 125 180 l 315 180 l 315 809 l 135 809 q 119 816 125 809 q 113 832 113 823 q 119 848 113 842 q 135 855 125 855 l 337 855 q 354 848 347 855 q 360 832 360 842 l 360 157 q 354 141 360 148 q 337 134 347 134 m 675 -1 l 135 -1 q 119 6 125 -1 q 113 22 113 13 q 119 39 113 32 q 135 45 125 45 l 675 45 q 691 39 684 45 q 697 22 697 32 q 691 6 697 13 q 675 -1 684 -1 m 675 134 l 473 134 q 456 141 463 134 q 450 157 450 148 l 450 832 q 456 848 450 842 q 473 855 463 855 l 675 855 q 691 848 684 855 q 697 832 697 842 q 691 816 697 823 q 675 809 684 809 l 495 809 l 495 180 l 675 180 q 691 174 684 180 q 697 157 697 167 q 691 141 697 148 q 675 134 684 134 m 270 1080 q 254 1087 260 1080 q 247 1103 247 1094 l 247 1238 q 254 1254 247 1248 q 270 1261 260 1261 l 540 1261 q 556 1254 549 1261 q 563 1238 563 1248 l 563 1103 q 556 1087 563 1094 q 540 1080 549 1080 q 524 1087 530 1080 q 517 1103 517 1094 l 517 1215 l 293 1215 l 293 1126 l 405 1126 q 421 1119 414 1126 q 427 1103 427 1112 q 421 1087 427 1094 q 405 1080 414 1080 l 270 1080 z "},"":{"ha":810,"x_min":112,"x_max":698,"o":"m 405 -1 q 258 39 324 -1 q 152 145 191 79 q 112 292 112 212 q 119 308 112 302 q 135 315 125 315 q 151 308 144 315 q 158 292 158 302 q 191 168 158 224 q 281 79 224 112 q 405 45 337 45 q 529 79 473 45 q 618 168 585 112 q 652 292 652 224 l 652 697 q 618 822 652 766 q 529 911 585 878 q 405 944 473 944 q 281 911 337 944 q 191 822 224 878 q 158 697 158 766 l 158 427 q 151 411 158 418 q 135 405 144 405 q 119 411 125 405 q 112 427 112 418 l 112 697 q 152 844 112 778 q 258 950 191 911 q 405 990 324 990 q 552 950 486 990 q 658 844 618 911 q 698 697 698 778 l 698 292 q 658 145 698 212 q 552 39 618 79 q 405 -1 486 -1 m 405 134 q 293 181 340 134 q 247 292 247 227 l 247 562 q 254 578 247 572 q 270 585 260 585 q 286 578 279 585 q 293 562 293 572 l 293 292 q 326 213 293 246 q 405 180 359 180 q 484 213 451 180 q 517 292 517 246 l 517 697 q 484 776 517 743 q 405 809 451 809 q 326 776 359 809 q 293 697 293 743 q 286 681 293 688 q 270 675 279 675 q 254 681 260 675 q 247 697 247 688 q 293 809 247 762 q 405 855 340 855 q 516 809 470 855 q 563 697 563 762 l 563 292 q 516 181 563 227 q 405 134 470 134 m 270 1080 q 254 1087 260 1080 q 247 1103 247 1094 l 247 1238 q 254 1254 247 1248 q 270 1261 260 1261 l 540 1261 q 556 1254 549 1261 q 563 1238 563 1248 l 563 1103 q 556 1087 563 1094 q 540 1080 549 1080 q 524 1087 530 1080 q 517 1103 517 1094 l 517 1215 l 293 1215 l 293 1126 l 405 1126 q 421 1119 414 1126 q 427 1103 427 1112 q 421 1087 427 1094 q 405 1080 414 1080 l 270 1080 z "},"":{"ha":810,"x_min":112,"x_max":698,"o":"m 405 -1 q 258 39 324 -1 q 152 145 191 79 q 112 292 112 212 q 119 308 112 302 q 135 315 125 315 q 151 308 144 315 q 158 292 158 302 q 191 168 158 224 q 281 79 224 112 q 405 45 337 45 q 529 79 473 45 q 618 168 585 112 q 652 292 652 224 l 652 697 q 618 822 652 766 q 529 911 585 878 q 405 944 473 944 q 281 911 337 944 q 191 822 224 878 q 158 697 158 766 l 158 427 q 151 411 158 418 q 135 405 144 405 q 119 411 125 405 q 112 427 112 418 l 112 697 q 152 844 112 778 q 258 950 191 911 q 405 990 324 990 q 552 950 486 990 q 658 844 618 911 q 698 697 698 778 l 698 292 q 658 145 698 212 q 552 39 618 79 q 405 -1 486 -1 m 405 134 q 293 181 340 134 q 247 292 247 227 l 247 562 q 254 578 247 572 q 270 585 260 585 q 286 578 279 585 q 293 562 293 572 l 293 292 q 326 213 293 246 q 405 180 359 180 q 484 213 451 180 q 517 292 517 246 l 517 697 q 484 776 517 743 q 405 809 451 809 q 326 776 359 809 q 293 697 293 743 q 286 681 293 688 q 270 675 279 675 q 254 681 260 675 q 247 697 247 688 q 293 809 247 762 q 405 855 340 855 q 516 809 470 855 q 563 697 563 762 l 563 292 q 516 181 563 227 q 405 134 470 134 m 270 1080 q 254 1087 260 1080 q 247 1103 247 1094 l 247 1238 q 254 1254 247 1248 q 270 1261 260 1261 l 540 1261 q 556 1254 549 1261 q 563 1238 563 1248 l 563 1103 q 556 1087 563 1094 q 540 1080 549 1080 q 524 1087 530 1080 q 517 1103 517 1094 l 517 1215 l 293 1215 l 293 1126 l 405 1126 q 421 1119 414 1126 q 427 1103 427 1112 q 421 1087 427 1094 q 405 1080 414 1080 l 270 1080 z "},"":{"ha":810,"x_min":112,"x_max":698,"o":"m 405 134 q 293 181 340 134 q 247 292 247 227 l 247 967 q 254 983 247 977 q 270 989 260 989 q 286 983 279 989 q 293 967 293 977 l 293 292 q 326 213 293 246 q 405 180 359 180 q 484 213 451 180 q 517 292 517 246 l 517 967 q 524 983 517 977 q 540 989 530 989 q 556 983 549 989 q 563 967 563 977 l 563 292 q 517 180 562 227 q 405 134 468 134 m 405 -1 q 258 39 324 -1 q 152 145 191 79 q 112 292 112 212 l 112 967 q 119 983 112 977 q 135 989 125 989 q 151 983 144 989 q 158 967 158 977 l 158 292 q 191 168 158 224 q 281 79 224 112 q 405 45 337 45 q 529 79 473 45 q 618 168 585 112 q 652 292 652 224 l 652 967 q 659 983 652 977 q 675 989 665 989 q 691 983 684 989 q 698 967 698 977 l 698 292 q 612 85 696 172 q 405 -1 522 -1 m 270 1080 q 254 1087 260 1080 q 247 1103 247 1094 l 247 1238 q 254 1254 247 1248 q 270 1261 260 1261 l 540 1261 q 556 1254 549 1261 q 563 1238 563 1248 l 563 1103 q 556 1087 563 1094 q 540 1080 549 1080 q 524 1087 530 1080 q 517 1103 517 1094 l 517 1215 l 293 1215 l 293 1126 l 405 1126 q 421 1119 414 1126 q 427 1103 427 1112 q 421 1087 427 1094 q 405 1080 414 1080 l 270 1080 z "},"":{"ha":810,"x_min":112,"x_max":698,"o":"m 405 134 q 293 181 340 134 q 247 292 247 227 l 247 967 q 254 983 247 977 q 270 989 260 989 q 286 983 279 989 q 293 967 293 977 l 293 292 q 326 213 293 246 q 405 180 359 180 q 484 213 451 180 q 517 292 517 246 l 517 967 q 524 983 517 977 q 540 989 530 989 q 556 983 549 989 q 563 967 563 977 l 563 292 q 517 180 562 227 q 405 134 468 134 m 405 -1 q 258 39 324 -1 q 152 145 191 79 q 112 292 112 212 l 112 967 q 119 983 112 977 q 135 989 125 989 q 151 983 144 989 q 158 967 158 977 l 158 292 q 191 168 158 224 q 281 79 224 112 q 405 45 337 45 q 529 79 473 45 q 618 168 585 112 q 652 292 652 224 l 652 967 q 659 983 652 977 q 675 989 665 989 q 691 983 684 989 q 698 967 698 977 l 698 292 q 612 85 696 172 q 405 -1 522 -1 m 270 1080 q 254 1087 260 1080 q 247 1103 247 1094 l 247 1238 q 254 1254 247 1248 q 270 1261 260 1261 l 540 1261 q 556 1254 549 1261 q 563 1238 563 1248 l 563 1103 q 556 1087 563 1094 q 540 1080 549 1080 q 524 1087 530 1080 q 517 1103 517 1094 l 517 1215 l 293 1215 l 293 1126 l 405 1126 q 421 1119 414 1126 q 427 1103 427 1112 q 421 1087 427 1094 q 405 1080 414 1080 l 270 1080 z "},"":{"ha":810,"x_min":35,"x_max":775,"o":"m 338 0 q 321 7 328 0 q 315 22 315 14 l 315 471 l 37 956 q 35 967 35 962 q 36 976 35 970 q 45 986 38 982 q 58 990 52 990 q 77 979 71 990 l 357 488 q 361 477 361 483 l 361 22 q 354 7 361 14 q 338 0 347 1 m 405 608 q 385 620 393 608 l 193 956 q 190 967 190 962 q 192 976 190 970 q 200 986 193 982 q 214 990 208 990 q 233 979 226 990 l 405 677 l 578 979 q 596 990 584 990 q 608 987 602 990 q 620 967 620 980 q 617 956 620 962 l 425 620 q 405 608 418 608 m 473 0 q 456 7 463 0 q 450 22 450 14 l 450 477 q 733 979 450 482 q 752 990 739 990 q 764 987 758 990 q 775 966 775 980 q 773 956 775 961 l 496 471 l 496 22 q 489 7 496 14 q 473 0 482 0 m 270 1080 q 254 1087 260 1080 q 247 1103 247 1094 l 247 1238 q 254 1254 247 1248 q 270 1261 260 1261 l 540 1261 q 556 1254 549 1261 q 563 1238 563 1248 l 563 1103 q 556 1087 563 1094 q 540 1080 549 1080 q 524 1087 530 1080 q 517 1103 517 1094 l 517 1215 l 293 1215 l 293 1126 l 405 1126 q 421 1119 414 1126 q 427 1103 427 1112 q 421 1087 427 1094 q 405 1080 414 1080 l 270 1080 z "},"":{"ha":810,"x_min":35,"x_max":775,"o":"m 338 0 q 321 7 328 0 q 315 22 315 14 l 315 471 l 37 956 q 35 967 35 962 q 36 976 35 970 q 45 986 38 982 q 58 990 52 990 q 77 979 71 990 l 357 488 q 361 477 361 483 l 361 22 q 354 7 361 14 q 338 0 347 1 m 405 608 q 385 620 393 608 l 193 956 q 190 967 190 962 q 192 976 190 970 q 200 986 193 982 q 214 990 208 990 q 233 979 226 990 l 405 677 l 578 979 q 596 990 584 990 q 608 987 602 990 q 620 967 620 980 q 617 956 620 962 l 425 620 q 405 608 418 608 m 473 0 q 456 7 463 0 q 450 22 450 14 l 450 477 q 733 979 450 482 q 752 990 739 990 q 764 987 758 990 q 775 966 775 980 q 773 956 775 961 l 496 471 l 496 22 q 489 7 496 14 q 473 0 482 0 m 270 1080 q 254 1087 260 1080 q 247 1103 247 1094 l 247 1238 q 254 1254 247 1248 q 270 1261 260 1261 l 540 1261 q 556 1254 549 1261 q 563 1238 563 1248 l 563 1103 q 556 1087 563 1094 q 540 1080 549 1080 q 524 1087 530 1080 q 517 1103 517 1094 l 517 1215 l 293 1215 l 293 1126 l 405 1126 q 421 1119 414 1126 q 427 1103 427 1112 q 421 1087 427 1094 q 405 1080 414 1080 l 270 1080 z "},"":{"ha":810,"x_min":112,"x_max":698,"o":"m 405 -1 q 258 39 324 -1 q 152 145 191 79 q 112 292 112 212 l 112 697 q 152 844 112 778 q 258 950 191 911 q 405 990 324 990 q 552 950 486 990 q 658 844 618 911 q 698 697 698 778 q 691 681 698 688 q 675 675 684 675 q 659 681 665 675 q 652 697 652 688 q 618 822 652 766 q 529 911 585 878 q 405 944 473 944 q 281 911 337 944 q 191 822 224 878 q 158 697 158 766 l 158 292 q 191 168 158 224 q 281 79 224 112 q 405 45 337 45 q 421 39 414 45 q 428 22 428 32 q 421 6 428 13 q 405 -1 414 -1 m 405 134 q 293 181 340 134 q 247 292 247 227 l 247 697 q 293 809 247 762 q 405 855 340 855 q 516 809 470 855 q 563 697 563 762 q 556 681 563 688 q 540 675 549 675 q 524 681 530 675 q 517 697 517 688 q 484 776 517 743 q 405 809 451 809 q 326 776 359 809 q 293 697 293 743 l 293 292 q 326 213 293 246 q 405 180 359 180 q 421 174 414 180 q 427 157 427 167 q 421 141 427 148 q 405 134 414 134 m 540 0 q 524 6 530 0 q 517 22 517 13 l 517 337 l 405 337 q 389 344 395 337 q 382 359 382 351 q 389 376 382 369 q 405 382 395 382 l 540 382 q 556 376 549 382 q 563 359 563 369 l 563 22 q 556 6 563 13 q 540 0 549 0 m 675 0 q 659 6 665 0 q 652 22 652 13 l 652 472 l 405 472 q 389 479 395 472 q 382 495 382 486 q 389 511 382 504 q 405 517 395 517 l 675 517 q 691 511 684 517 q 698 495 698 504 l 698 22 q 691 6 698 13 q 675 0 684 0 m 270 1080 q 254 1087 260 1080 q 247 1103 247 1094 l 247 1238 q 254 1254 247 1248 q 270 1261 260 1261 l 540 1261 q 556 1254 549 1261 q 563 1238 563 1248 l 563 1103 q 556 1087 563 1094 q 540 1080 549 1080 q 524 1087 530 1080 q 517 1103 517 1094 l 517 1215 l 293 1215 l 293 1126 l 405 1126 q 421 1119 414 1126 q 427 1103 427 1112 q 421 1087 427 1094 q 405 1080 414 1080 l 270 1080 z "},"":{"ha":810,"x_min":112,"x_max":698,"o":"m 405 -1 q 258 39 324 -1 q 152 145 191 79 q 112 292 112 212 l 112 697 q 152 844 112 778 q 258 950 191 911 q 405 990 324 990 q 552 950 486 990 q 658 844 618 911 q 698 697 698 778 q 691 681 698 688 q 675 675 684 675 q 659 681 665 675 q 652 697 652 688 q 618 822 652 766 q 529 911 585 878 q 405 944 473 944 q 281 911 337 944 q 191 822 224 878 q 158 697 158 766 l 158 292 q 191 168 158 224 q 281 79 224 112 q 405 45 337 45 q 421 39 414 45 q 428 22 428 32 q 421 6 428 13 q 405 -1 414 -1 m 405 134 q 293 181 340 134 q 247 292 247 227 l 247 697 q 293 809 247 762 q 405 855 340 855 q 516 809 470 855 q 563 697 563 762 q 556 681 563 688 q 540 675 549 675 q 524 681 530 675 q 517 697 517 688 q 484 776 517 743 q 405 809 451 809 q 326 776 359 809 q 293 697 293 743 l 293 292 q 326 213 293 246 q 405 180 359 180 q 421 174 414 180 q 427 157 427 167 q 421 141 427 148 q 405 134 414 134 m 540 0 q 524 6 530 0 q 517 22 517 13 l 517 337 l 405 337 q 389 344 395 337 q 382 359 382 351 q 389 376 382 369 q 405 382 395 382 l 540 382 q 556 376 549 382 q 563 359 563 369 l 563 22 q 556 6 563 13 q 540 0 549 0 m 675 0 q 659 6 665 0 q 652 22 652 13 l 652 472 l 405 472 q 389 479 395 472 q 382 495 382 486 q 389 511 382 504 q 405 517 395 517 l 675 517 q 691 511 684 517 q 698 495 698 504 l 698 22 q 691 6 698 13 q 675 0 684 0 m 270 1080 q 254 1087 260 1080 q 247 1103 247 1094 l 247 1238 q 254 1254 247 1248 q 270 1261 260 1261 l 540 1261 q 556 1254 549 1261 q 563 1238 563 1248 l 563 1103 q 556 1087 563 1094 q 540 1080 549 1080 q 524 1087 530 1080 q 517 1103 517 1094 l 517 1215 l 293 1215 l 293 1126 l 405 1126 q 421 1119 414 1126 q 427 1103 427 1112 q 421 1087 427 1094 q 405 1080 414 1080 l 270 1080 z "},"":{"ha":540,"x_min":112,"x_max":428,"o":"m 338 450 q 353 444 347 450 q 360 427 360 437 q 353 411 360 418 q 338 404 347 404 l 222 404 l 161 -90 l 378 -90 l 315 292 q 319 305 315 299 q 338 315 326 315 q 351 310 345 315 q 360 296 358 305 l 428 -114 q 422 -127 428 -121 q 405 -136 415 -136 l 135 -136 q 118 -128 125 -136 q 112 -112 112 -121 l 180 430 q 188 445 181 439 q 202 450 194 450 l 338 450 m 270 539 q 254 546 260 539 q 247 562 247 553 q 254 578 247 572 q 270 585 260 585 q 349 618 316 585 q 382 697 382 651 q 349 776 382 743 q 270 809 316 809 q 191 776 224 809 q 158 697 158 743 q 151 681 158 688 q 135 675 144 675 q 119 681 125 675 q 112 697 112 688 q 158 809 112 762 q 270 855 205 855 q 381 809 335 855 q 428 697 428 762 q 381 586 428 632 q 270 539 335 539 z "},"":{"ha":810,"x_min":112,"x_max":698,"o":"m 405 855 q 421 848 414 855 q 428 832 428 842 q 421 816 428 823 q 405 809 414 809 q 326 777 359 809 q 293 697 293 744 q 326 618 293 651 q 405 585 359 585 q 484 618 451 585 q 517 697 517 651 q 524 713 517 707 q 540 720 530 720 q 556 713 549 720 q 563 697 563 707 q 516 586 563 632 q 405 539 470 539 q 293 586 340 539 q 247 697 247 632 q 293 809 247 762 q 405 855 340 855 m 338 450 q 354 444 347 450 q 361 427 361 437 q 342 362 361 388 q 304 337 324 337 q 200 285 243 337 q 158 157 158 233 q 191 33 158 90 q 281 -56 224 -23 q 405 -90 337 -90 q 529 -56 473 -90 q 618 33 585 -23 q 652 157 652 90 q 659 173 652 167 q 675 180 665 180 q 691 173 684 180 q 698 157 698 167 q 658 10 698 77 q 552 -96 618 -56 q 405 -136 486 -136 q 258 -96 324 -136 q 152 10 191 -56 q 112 157 112 77 q 165 315 112 252 q 300 383 219 379 q 315 427 315 395 q 322 444 315 437 q 338 450 329 450 m 473 450 q 489 444 482 450 q 496 427 496 437 q 442 270 496 334 q 307 202 389 206 q 293 157 293 191 q 326 78 293 111 q 405 45 359 45 q 484 78 451 45 q 517 157 517 111 q 524 173 517 167 q 540 180 530 180 q 556 173 549 180 q 563 157 563 167 q 516 46 563 92 q 405 -1 470 -1 q 293 46 340 -1 q 247 157 247 92 q 265 223 247 197 q 304 248 283 248 q 408 300 366 248 q 450 427 450 352 q 457 444 450 437 q 473 450 464 450 z "},"`":{"ha":810,"x_min":180,"x_max":495,"o":"m 473 1080 q 456 1086 463 1080 l 328 1215 l 258 1215 l 353 1119 q 360 1103 360 1112 q 353 1087 360 1094 q 338 1080 347 1080 q 321 1086 328 1080 l 186 1221 q 180 1238 180 1229 q 181 1246 180 1242 q 202 1261 189 1261 l 337 1261 q 353 1254 347 1261 l 488 1119 q 495 1103 495 1112 q 488 1087 495 1094 q 473 1080 481 1080 z "},"":{"ha":810,"x_min":45,"x_max":765,"o":"m 202 0 l 67 0 q 49 9 56 0 q 45 22 45 16 q 315 974 45 26 q 337 991 322 991 l 473 991 q 491 981 483 991 q 495 968 495 975 q 263 151 495 964 q 242 135 258 135 q 235 136 239 135 q 218 157 218 142 q 442 945 218 161 l 355 945 l 98 45 l 202 45 q 218 39 212 45 q 225 22 225 32 q 218 7 225 14 q 202 0 212 0 m 743 0 l 608 0 q 585 16 592 0 q 434 549 434 546 q 438 562 434 555 q 458 572 445 572 q 479 556 473 572 l 625 45 l 712 45 q 494 811 494 808 q 498 823 494 817 q 517 833 504 833 q 539 819 533 833 l 764 29 l 765 22 q 761 9 765 16 q 743 0 753 0 m 473 1080 q 456 1086 463 1080 l 328 1215 l 258 1215 l 353 1119 q 360 1103 360 1112 q 353 1087 360 1094 q 338 1080 347 1080 q 321 1086 328 1080 l 186 1221 q 180 1238 180 1229 q 181 1246 180 1242 q 202 1261 189 1261 l 337 1261 q 353 1254 347 1261 l 488 1119 q 495 1103 495 1112 q 488 1087 495 1094 q 473 1080 481 1080 z "},"":{"ha":810,"x_min":45,"x_max":765,"o":"m 202 0 l 67 0 q 49 9 56 0 q 45 22 45 16 q 315 974 45 26 q 337 991 322 991 l 473 991 q 491 981 483 991 q 495 968 495 975 q 263 151 495 964 q 242 135 258 135 q 235 136 239 135 q 218 157 218 142 q 442 945 218 161 l 355 945 l 98 45 l 202 45 q 218 39 212 45 q 225 22 225 32 q 218 7 225 14 q 202 0 212 0 m 743 0 l 608 0 q 585 16 592 0 q 434 549 434 546 q 438 562 434 555 q 458 572 445 572 q 479 556 473 572 l 625 45 l 712 45 q 494 811 494 808 q 498 823 494 817 q 517 833 504 833 q 539 819 533 833 l 764 29 l 765 22 q 761 9 765 16 q 743 0 753 0 m 473 1080 q 456 1086 463 1080 l 328 1215 l 258 1215 l 353 1119 q 360 1103 360 1112 q 353 1087 360 1094 q 338 1080 347 1080 q 321 1086 328 1080 l 186 1221 q 180 1238 180 1229 q 181 1246 180 1242 q 202 1261 189 1261 l 337 1261 q 353 1254 347 1261 l 488 1119 q 495 1103 495 1112 q 488 1087 495 1094 q 473 1080 481 1080 z "},"":{"ha":810,"x_min":112,"x_max":698,"o":"m 135 0 q 119 6 125 0 q 112 22 112 13 l 112 967 q 119 983 112 977 q 135 989 125 989 q 151 983 144 989 q 158 967 158 977 l 158 22 q 151 6 158 13 q 135 0 144 0 m 540 404 l 405 404 q 389 411 395 404 q 382 427 382 418 q 389 444 382 437 q 405 450 395 450 l 517 450 l 517 539 l 270 539 q 254 546 260 539 q 247 562 247 553 l 247 832 q 254 848 247 842 q 270 855 260 855 l 652 855 l 652 944 l 270 944 q 254 951 260 944 q 248 967 248 958 q 254 983 248 977 q 270 990 260 990 l 675 990 q 691 983 684 990 q 698 967 698 977 l 698 832 q 691 816 698 823 q 675 809 684 809 l 293 809 l 293 585 l 540 585 q 556 578 549 585 q 563 562 563 572 l 563 427 q 556 411 563 418 q 540 404 549 404 m 675 -1 l 270 -1 q 254 6 260 -1 q 248 22 248 13 q 254 39 248 32 q 270 45 260 45 l 652 45 l 652 134 l 270 134 q 254 141 260 134 q 247 157 247 148 l 247 427 q 254 443 247 437 q 270 450 260 450 q 286 443 279 450 q 293 427 293 437 l 293 180 l 675 180 q 691 174 684 180 q 698 157 698 167 l 698 22 q 691 6 698 13 q 675 -1 684 -1 m 473 1080 q 456 1086 463 1080 l 328 1215 l 258 1215 l 353 1119 q 360 1103 360 1112 q 353 1087 360 1094 q 338 1080 347 1080 q 321 1086 328 1080 l 186 1221 q 180 1238 180 1229 q 181 1246 180 1242 q 202 1261 189 1261 l 337 1261 q 353 1254 347 1261 l 488 1119 q 495 1103 495 1112 q 488 1087 495 1094 q 473 1080 481 1080 z "},"":{"ha":810,"x_min":112,"x_max":698,"o":"m 135 0 q 119 6 125 0 q 112 22 112 13 l 112 967 q 119 983 112 977 q 135 989 125 989 q 151 983 144 989 q 158 967 158 977 l 158 22 q 151 6 158 13 q 135 0 144 0 m 540 404 l 405 404 q 389 411 395 404 q 382 427 382 418 q 389 444 382 437 q 405 450 395 450 l 517 450 l 517 539 l 270 539 q 254 546 260 539 q 247 562 247 553 l 247 832 q 254 848 247 842 q 270 855 260 855 l 652 855 l 652 944 l 270 944 q 254 951 260 944 q 248 967 248 958 q 254 983 248 977 q 270 990 260 990 l 675 990 q 691 983 684 990 q 698 967 698 977 l 698 832 q 691 816 698 823 q 675 809 684 809 l 293 809 l 293 585 l 540 585 q 556 578 549 585 q 563 562 563 572 l 563 427 q 556 411 563 418 q 540 404 549 404 m 675 -1 l 270 -1 q 254 6 260 -1 q 248 22 248 13 q 254 39 248 32 q 270 45 260 45 l 652 45 l 652 134 l 270 134 q 254 141 260 134 q 247 157 247 148 l 247 427 q 254 443 247 437 q 270 450 260 450 q 286 443 279 450 q 293 427 293 437 l 293 180 l 675 180 q 691 174 684 180 q 698 157 698 167 l 698 22 q 691 6 698 13 q 675 -1 684 -1 m 473 1080 q 456 1086 463 1080 l 328 1215 l 258 1215 l 353 1119 q 360 1103 360 1112 q 353 1087 360 1094 q 338 1080 347 1080 q 321 1086 328 1080 l 186 1221 q 180 1238 180 1229 q 181 1246 180 1242 q 202 1261 189 1261 l 337 1261 q 353 1254 347 1261 l 488 1119 q 495 1103 495 1112 q 488 1087 495 1094 q 473 1080 481 1080 z "},"":{"ha":810,"x_min":113,"x_max":697,"o":"m 675 944 l 135 944 q 119 951 125 944 q 113 967 113 958 q 119 983 113 977 q 135 990 125 990 l 675 990 q 691 983 684 990 q 697 967 697 977 q 691 951 697 958 q 675 944 684 944 m 337 134 l 135 134 q 119 141 125 134 q 113 157 113 148 q 119 174 113 167 q 135 180 125 180 l 315 180 l 315 809 l 135 809 q 119 816 125 809 q 113 832 113 823 q 119 848 113 842 q 135 855 125 855 l 337 855 q 354 848 347 855 q 360 832 360 842 l 360 157 q 354 141 360 148 q 337 134 347 134 m 675 -1 l 135 -1 q 119 6 125 -1 q 113 22 113 13 q 119 39 113 32 q 135 45 125 45 l 675 45 q 691 39 684 45 q 697 22 697 32 q 691 6 697 13 q 675 -1 684 -1 m 675 134 l 473 134 q 456 141 463 134 q 450 157 450 148 l 450 832 q 456 848 450 842 q 473 855 463 855 l 675 855 q 691 848 684 855 q 697 832 697 842 q 691 816 697 823 q 675 809 684 809 l 495 809 l 495 180 l 675 180 q 691 174 684 180 q 697 157 697 167 q 691 141 697 148 q 675 134 684 134 m 473 1080 q 456 1086 463 1080 l 328 1215 l 258 1215 l 353 1119 q 360 1103 360 1112 q 353 1087 360 1094 q 338 1080 347 1080 q 321 1086 328 1080 l 186 1221 q 180 1238 180 1229 q 181 1246 180 1242 q 202 1261 189 1261 l 337 1261 q 353 1254 347 1261 l 488 1119 q 495 1103 495 1112 q 488 1087 495 1094 q 473 1080 481 1080 z "},"":{"ha":810,"x_min":113,"x_max":697,"o":"m 675 944 l 135 944 q 119 951 125 944 q 113 967 113 958 q 119 983 113 977 q 135 990 125 990 l 675 990 q 691 983 684 990 q 697 967 697 977 q 691 951 697 958 q 675 944 684 944 m 337 134 l 135 134 q 119 141 125 134 q 113 157 113 148 q 119 174 113 167 q 135 180 125 180 l 315 180 l 315 809 l 135 809 q 119 816 125 809 q 113 832 113 823 q 119 848 113 842 q 135 855 125 855 l 337 855 q 354 848 347 855 q 360 832 360 842 l 360 157 q 354 141 360 148 q 337 134 347 134 m 675 -1 l 135 -1 q 119 6 125 -1 q 113 22 113 13 q 119 39 113 32 q 135 45 125 45 l 675 45 q 691 39 684 45 q 697 22 697 32 q 691 6 697 13 q 675 -1 684 -1 m 675 134 l 473 134 q 456 141 463 134 q 450 157 450 148 l 450 832 q 456 848 450 842 q 473 855 463 855 l 675 855 q 691 848 684 855 q 697 832 697 842 q 691 816 697 823 q 675 809 684 809 l 495 809 l 495 180 l 675 180 q 691 174 684 180 q 697 157 697 167 q 691 141 697 148 q 675 134 684 134 m 473 1080 q 456 1086 463 1080 l 328 1215 l 258 1215 l 353 1119 q 360 1103 360 1112 q 353 1087 360 1094 q 338 1080 347 1080 q 321 1086 328 1080 l 186 1221 q 180 1238 180 1229 q 181 1246 180 1242 q 202 1261 189 1261 l 337 1261 q 353 1254 347 1261 l 488 1119 q 495 1103 495 1112 q 488 1087 495 1094 q 473 1080 481 1080 z "},"":{"ha":810,"x_min":112,"x_max":698,"o":"m 405 -1 q 258 39 324 -1 q 152 145 191 79 q 112 292 112 212 q 119 308 112 302 q 135 315 125 315 q 151 308 144 315 q 158 292 158 302 q 191 168 158 224 q 281 79 224 112 q 405 45 337 45 q 529 79 473 45 q 618 168 585 112 q 652 292 652 224 l 652 697 q 618 822 652 766 q 529 911 585 878 q 405 944 473 944 q 281 911 337 944 q 191 822 224 878 q 158 697 158 766 l 158 427 q 151 411 158 418 q 135 405 144 405 q 119 411 125 405 q 112 427 112 418 l 112 697 q 152 844 112 778 q 258 950 191 911 q 405 990 324 990 q 552 950 486 990 q 658 844 618 911 q 698 697 698 778 l 698 292 q 658 145 698 212 q 552 39 618 79 q 405 -1 486 -1 m 405 134 q 293 181 340 134 q 247 292 247 227 l 247 562 q 254 578 247 572 q 270 585 260 585 q 286 578 279 585 q 293 562 293 572 l 293 292 q 326 213 293 246 q 405 180 359 180 q 484 213 451 180 q 517 292 517 246 l 517 697 q 484 776 517 743 q 405 809 451 809 q 326 776 359 809 q 293 697 293 743 q 286 681 293 688 q 270 675 279 675 q 254 681 260 675 q 247 697 247 688 q 293 809 247 762 q 405 855 340 855 q 516 809 470 855 q 563 697 563 762 l 563 292 q 516 181 563 227 q 405 134 470 134 m 473 1080 q 456 1086 463 1080 l 328 1215 l 258 1215 l 353 1119 q 360 1103 360 1112 q 353 1087 360 1094 q 338 1080 347 1080 q 321 1086 328 1080 l 186 1221 q 180 1238 180 1229 q 181 1246 180 1242 q 202 1261 189 1261 l 337 1261 q 353 1254 347 1261 l 488 1119 q 495 1103 495 1112 q 488 1087 495 1094 q 473 1080 481 1080 z "},"":{"ha":810,"x_min":112,"x_max":698,"o":"m 405 -1 q 258 39 324 -1 q 152 145 191 79 q 112 292 112 212 q 119 308 112 302 q 135 315 125 315 q 151 308 144 315 q 158 292 158 302 q 191 168 158 224 q 281 79 224 112 q 405 45 337 45 q 529 79 473 45 q 618 168 585 112 q 652 292 652 224 l 652 697 q 618 822 652 766 q 529 911 585 878 q 405 944 473 944 q 281 911 337 944 q 191 822 224 878 q 158 697 158 766 l 158 427 q 151 411 158 418 q 135 405 144 405 q 119 411 125 405 q 112 427 112 418 l 112 697 q 152 844 112 778 q 258 950 191 911 q 405 990 324 990 q 552 950 486 990 q 658 844 618 911 q 698 697 698 778 l 698 292 q 658 145 698 212 q 552 39 618 79 q 405 -1 486 -1 m 405 134 q 293 181 340 134 q 247 292 247 227 l 247 562 q 254 578 247 572 q 270 585 260 585 q 286 578 279 585 q 293 562 293 572 l 293 292 q 326 213 293 246 q 405 180 359 180 q 484 213 451 180 q 517 292 517 246 l 517 697 q 484 776 517 743 q 405 809 451 809 q 326 776 359 809 q 293 697 293 743 q 286 681 293 688 q 270 675 279 675 q 254 681 260 675 q 247 697 247 688 q 293 809 247 762 q 405 855 340 855 q 516 809 470 855 q 563 697 563 762 l 563 292 q 516 181 563 227 q 405 134 470 134 m 473 1080 q 456 1086 463 1080 l 328 1215 l 258 1215 l 353 1119 q 360 1103 360 1112 q 353 1087 360 1094 q 338 1080 347 1080 q 321 1086 328 1080 l 186 1221 q 180 1238 180 1229 q 181 1246 180 1242 q 202 1261 189 1261 l 337 1261 q 353 1254 347 1261 l 488 1119 q 495 1103 495 1112 q 488 1087 495 1094 q 473 1080 481 1080 z "},"":{"ha":810,"x_min":112,"x_max":698,"o":"m 405 134 q 293 181 340 134 q 247 292 247 227 l 247 967 q 254 983 247 977 q 270 989 260 989 q 286 983 279 989 q 293 967 293 977 l 293 292 q 326 213 293 246 q 405 180 359 180 q 484 213 451 180 q 517 292 517 246 l 517 967 q 524 983 517 977 q 540 989 530 989 q 556 983 549 989 q 563 967 563 977 l 563 292 q 517 180 562 227 q 405 134 468 134 m 405 -1 q 258 39 324 -1 q 152 145 191 79 q 112 292 112 212 l 112 967 q 119 983 112 977 q 135 989 125 989 q 151 983 144 989 q 158 967 158 977 l 158 292 q 191 168 158 224 q 281 79 224 112 q 405 45 337 45 q 529 79 473 45 q 618 168 585 112 q 652 292 652 224 l 652 967 q 659 983 652 977 q 675 989 665 989 q 691 983 684 989 q 698 967 698 977 l 698 292 q 612 85 696 172 q 405 -1 522 -1 m 473 1080 q 456 1086 463 1080 l 328 1215 l 258 1215 l 353 1119 q 360 1103 360 1112 q 353 1087 360 1094 q 338 1080 347 1080 q 321 1086 328 1080 l 186 1221 q 180 1238 180 1229 q 181 1246 180 1242 q 202 1261 189 1261 l 337 1261 q 353 1254 347 1261 l 488 1119 q 495 1103 495 1112 q 488 1087 495 1094 q 473 1080 481 1080 z "},"":{"ha":810,"x_min":112,"x_max":698,"o":"m 405 134 q 293 181 340 134 q 247 292 247 227 l 247 967 q 254 983 247 977 q 270 989 260 989 q 286 983 279 989 q 293 967 293 977 l 293 292 q 326 213 293 246 q 405 180 359 180 q 484 213 451 180 q 517 292 517 246 l 517 967 q 524 983 517 977 q 540 989 530 989 q 556 983 549 989 q 563 967 563 977 l 563 292 q 517 180 562 227 q 405 134 468 134 m 405 -1 q 258 39 324 -1 q 152 145 191 79 q 112 292 112 212 l 112 967 q 119 983 112 977 q 135 989 125 989 q 151 983 144 989 q 158 967 158 977 l 158 292 q 191 168 158 224 q 281 79 224 112 q 405 45 337 45 q 529 79 473 45 q 618 168 585 112 q 652 292 652 224 l 652 967 q 659 983 652 977 q 675 989 665 989 q 691 983 684 989 q 698 967 698 977 l 698 292 q 612 85 696 172 q 405 -1 522 -1 m 473 1080 q 456 1086 463 1080 l 328 1215 l 258 1215 l 353 1119 q 360 1103 360 1112 q 353 1087 360 1094 q 338 1080 347 1080 q 321 1086 328 1080 l 186 1221 q 180 1238 180 1229 q 181 1246 180 1242 q 202 1261 189 1261 l 337 1261 q 353 1254 347 1261 l 488 1119 q 495 1103 495 1112 q 488 1087 495 1094 q 473 1080 481 1080 z "},"":{"ha":810,"x_min":112,"x_max":698,"o":"m 469 0 q 447 16 453 0 l 292 558 l 292 22 q 286 7 292 14 q 269 0 279 0 q 253 7 260 0 q 246 22 246 14 l 246 722 q 253 738 246 730 q 271 745 260 745 q 292 728 286 745 q 492 24 492 27 q 489 11 492 17 q 469 0 483 0 m 675 0 q 659 7 665 1 q 652 22 652 13 l 652 968 q 659 983 652 977 q 675 990 665 989 q 691 983 685 989 q 698 968 698 977 l 698 22 q 691 7 697 13 q 675 0 684 1 m 135 0 q 118 7 125 1 q 112 22 112 13 l 112 968 q 119 983 113 977 q 135 990 125 989 q 151 983 144 989 q 158 968 158 977 l 157 22 q 151 7 157 13 q 135 0 144 1 m 543 245 q 517 262 524 245 q 317 966 317 963 q 321 979 317 973 q 340 990 327 990 q 361 974 357 990 l 517 432 l 517 968 q 524 983 517 977 q 539 990 530 990 q 555 983 549 990 q 562 968 562 977 l 562 269 q 557 253 562 260 q 543 245 551 247 m 473 1080 q 456 1086 463 1080 l 328 1215 l 258 1215 l 353 1119 q 360 1103 360 1112 q 353 1087 360 1094 q 338 1080 347 1080 q 321 1086 328 1080 l 186 1221 q 180 1238 180 1229 q 181 1246 180 1242 q 202 1261 189 1261 l 337 1261 q 353 1254 347 1261 l 488 1119 q 495 1103 495 1112 q 488 1087 495 1094 q 473 1080 481 1080 z "},"":{"ha":810,"x_min":112,"x_max":698,"o":"m 469 0 q 447 16 453 0 l 292 558 l 292 22 q 286 7 292 14 q 269 0 279 0 q 253 7 260 0 q 246 22 246 14 l 246 722 q 253 738 246 730 q 271 745 260 745 q 292 728 286 745 q 492 24 492 27 q 489 11 492 17 q 469 0 483 0 m 675 0 q 659 7 665 1 q 652 22 652 13 l 652 968 q 659 983 652 977 q 675 990 665 989 q 691 983 685 989 q 698 968 698 977 l 698 22 q 691 7 697 13 q 675 0 684 1 m 135 0 q 118 7 125 1 q 112 22 112 13 l 112 968 q 119 983 113 977 q 135 990 125 989 q 151 983 144 989 q 158 968 158 977 l 157 22 q 151 7 157 13 q 135 0 144 1 m 543 245 q 517 262 524 245 q 317 966 317 963 q 321 979 317 973 q 340 990 327 990 q 361 974 357 990 l 517 432 l 517 968 q 524 983 517 977 q 539 990 530 990 q 555 983 549 990 q 562 968 562 977 l 562 269 q 557 253 562 260 q 543 245 551 247 m 473 1080 q 456 1086 463 1080 l 328 1215 l 258 1215 l 353 1119 q 360 1103 360 1112 q 353 1087 360 1094 q 338 1080 347 1080 q 321 1086 328 1080 l 186 1221 q 180 1238 180 1229 q 181 1246 180 1242 q 202 1261 189 1261 l 337 1261 q 353 1254 347 1261 l 488 1119 q 495 1103 495 1112 q 488 1087 495 1094 q 473 1080 481 1080 z "},"":{"ha":945,"x_min":43,"x_max":902,"o":"m 326 384 q 310 389 317 384 q 302 402 304 394 q 181 967 181 964 q 186 981 181 974 q 205 990 192 990 q 227 972 222 990 l 320 537 l 382 970 q 390 985 384 980 q 404 990 397 990 q 423 981 416 990 q 427 968 427 975 l 347 404 q 326 384 344 385 m 542 0 l 539 0 q 516 20 520 0 l 473 326 l 430 20 q 421 5 428 10 q 406 0 414 0 l 404 0 q 384 22 384 4 l 450 494 q 458 508 452 502 q 473 513 465 513 q 488 508 481 513 q 496 494 494 502 l 562 22 q 542 0 562 4 m 268 0 q 247 18 250 0 l 43 968 q 47 981 43 974 q 67 990 54 990 q 80 986 73 990 q 89 972 87 981 q 292 23 292 26 q 287 9 292 16 q 268 0 281 0 m 621 384 l 621 384 q 599 404 602 385 l 517 966 q 523 982 517 975 q 541 990 529 990 q 564 970 559 990 l 626 536 l 720 972 q 742 990 725 990 q 762 979 755 990 q 766 966 766 974 q 644 402 766 964 q 621 384 639 384 m 677 0 l 672 1 q 654 23 654 5 q 857 972 654 26 q 867 987 859 981 q 878 990 872 990 q 899 980 892 990 q 902 968 902 974 l 699 18 q 677 0 695 0 m 540 1080 q 524 1086 530 1080 l 395 1215 l 325 1215 l 420 1119 q 427 1103 427 1112 q 420 1087 427 1094 q 405 1080 414 1080 q 389 1086 395 1080 l 253 1221 q 247 1238 247 1229 q 248 1246 247 1242 q 269 1261 256 1261 l 404 1261 q 420 1254 414 1261 l 555 1119 q 562 1103 562 1112 q 555 1087 562 1094 q 540 1080 549 1080 z "},"":{"ha":945,"x_min":43,"x_max":902,"o":"m 326 384 q 310 389 317 384 q 302 402 304 394 q 181 967 181 964 q 186 981 181 974 q 205 990 192 990 q 227 972 222 990 l 320 537 l 382 970 q 390 985 384 980 q 404 990 397 990 q 423 981 416 990 q 427 968 427 975 l 347 404 q 326 384 344 385 m 542 0 l 539 0 q 516 20 520 0 l 473 326 l 430 20 q 421 5 428 10 q 406 0 414 0 l 404 0 q 384 22 384 4 l 450 494 q 458 508 452 502 q 473 513 465 513 q 488 508 481 513 q 496 494 494 502 l 562 22 q 542 0 562 4 m 268 0 q 247 18 250 0 l 43 968 q 47 981 43 974 q 67 990 54 990 q 80 986 73 990 q 89 972 87 981 q 292 23 292 26 q 287 9 292 16 q 268 0 281 0 m 621 384 l 621 384 q 599 404 602 385 l 517 966 q 523 982 517 975 q 541 990 529 990 q 564 970 559 990 l 626 536 l 720 972 q 742 990 725 990 q 762 979 755 990 q 766 966 766 974 q 644 402 766 964 q 621 384 639 384 m 677 0 l 672 1 q 654 23 654 5 q 857 972 654 26 q 867 987 859 981 q 878 990 872 990 q 899 980 892 990 q 902 968 902 974 l 699 18 q 677 0 695 0 m 540 1080 q 524 1086 530 1080 l 395 1215 l 325 1215 l 420 1119 q 427 1103 427 1112 q 420 1087 427 1094 q 405 1080 414 1080 q 389 1086 395 1080 l 253 1221 q 247 1238 247 1229 q 248 1246 247 1242 q 269 1261 256 1261 l 404 1261 q 420 1254 414 1261 l 555 1119 q 562 1103 562 1112 q 555 1087 562 1094 q 540 1080 549 1080 z "},"":{"ha":810,"x_min":35,"x_max":775,"o":"m 338 0 q 321 7 328 0 q 315 22 315 14 l 315 471 l 37 956 q 35 967 35 962 q 36 976 35 970 q 45 986 38 982 q 58 990 52 990 q 77 979 71 990 l 357 488 q 361 477 361 483 l 361 22 q 354 7 361 14 q 338 0 347 1 m 405 608 q 385 620 393 608 l 193 956 q 190 967 190 962 q 192 976 190 970 q 200 986 193 982 q 214 990 208 990 q 233 979 226 990 l 405 677 l 578 979 q 596 990 584 990 q 608 987 602 990 q 620 967 620 980 q 617 956 620 962 l 425 620 q 405 608 418 608 m 473 0 q 456 7 463 0 q 450 22 450 14 l 450 477 q 733 979 450 482 q 752 990 739 990 q 764 987 758 990 q 775 966 775 980 q 773 956 775 961 l 496 471 l 496 22 q 489 7 496 14 q 473 0 482 0 m 473 1080 q 456 1086 463 1080 l 328 1215 l 258 1215 l 353 1119 q 360 1103 360 1112 q 353 1087 360 1094 q 338 1080 347 1080 q 321 1086 328 1080 l 186 1221 q 180 1238 180 1229 q 181 1246 180 1242 q 202 1261 189 1261 l 337 1261 q 353 1254 347 1261 l 488 1119 q 495 1103 495 1112 q 488 1087 495 1094 q 473 1080 481 1080 z "},"":{"ha":810,"x_min":35,"x_max":775,"o":"m 338 0 q 321 7 328 0 q 315 22 315 14 l 315 471 l 37 956 q 35 967 35 962 q 36 976 35 970 q 45 986 38 982 q 58 990 52 990 q 77 979 71 990 l 357 488 q 361 477 361 483 l 361 22 q 354 7 361 14 q 338 0 347 1 m 405 608 q 385 620 393 608 l 193 956 q 190 967 190 962 q 192 976 190 970 q 200 986 193 982 q 214 990 208 990 q 233 979 226 990 l 405 677 l 578 979 q 596 990 584 990 q 608 987 602 990 q 620 967 620 980 q 617 956 620 962 l 425 620 q 405 608 418 608 m 473 0 q 456 7 463 0 q 450 22 450 14 l 450 477 q 733 979 450 482 q 752 990 739 990 q 764 987 758 990 q 775 966 775 980 q 773 956 775 961 l 496 471 l 496 22 q 489 7 496 14 q 473 0 482 0 m 473 1080 q 456 1086 463 1080 l 328 1215 l 258 1215 l 353 1119 q 360 1103 360 1112 q 353 1087 360 1094 q 338 1080 347 1080 q 321 1086 328 1080 l 186 1221 q 180 1238 180 1229 q 181 1246 180 1242 q 202 1261 189 1261 l 337 1261 q 353 1254 347 1261 l 488 1119 q 495 1103 495 1112 q 488 1087 495 1094 q 473 1080 481 1080 z "},"":{"ha":810,"x_min":180,"x_max":631,"o":"m 540 1080 q 476 1106 503 1080 q 450 1171 450 1133 q 476 1234 450 1208 q 540 1261 503 1261 l 540 1260 q 556 1254 549 1260 q 562 1238 562 1247 q 556 1222 562 1229 q 540 1215 549 1215 l 540 1215 q 509 1202 522 1215 q 496 1171 496 1189 q 509 1139 496 1152 q 540 1126 522 1126 q 571 1139 558 1126 q 585 1171 585 1152 l 585 1171 q 592 1186 585 1180 q 608 1193 598 1193 q 624 1186 617 1193 q 630 1171 630 1180 l 631 1171 q 604 1106 631 1133 q 540 1080 577 1080 m 315 1171 q 301 1202 315 1189 q 270 1215 288 1215 q 239 1202 252 1215 q 226 1171 226 1189 l 225 1171 q 218 1155 225 1161 q 203 1148 212 1148 q 187 1155 193 1148 q 180 1171 180 1161 l 180 1171 q 206 1234 180 1208 q 270 1261 233 1261 q 334 1234 307 1261 q 361 1171 361 1208 q 334 1106 361 1133 q 270 1080 307 1080 l 270 1080 q 254 1087 260 1080 q 248 1103 248 1094 q 254 1119 248 1112 q 270 1125 260 1125 l 270 1126 q 301 1139 288 1126 q 315 1171 315 1152 z "},"":{"ha":810,"x_min":45,"x_max":765,"o":"m 202 0 l 67 0 q 49 9 56 0 q 45 22 45 16 q 315 974 45 26 q 337 991 322 991 l 473 991 q 491 981 483 991 q 495 968 495 975 q 263 151 495 964 q 242 135 258 135 q 235 136 239 135 q 218 157 218 142 q 442 945 218 161 l 355 945 l 98 45 l 202 45 q 218 39 212 45 q 225 22 225 32 q 218 7 225 14 q 202 0 212 0 m 743 0 l 608 0 q 585 16 592 0 q 434 549 434 546 q 438 562 434 555 q 458 572 445 572 q 479 556 473 572 l 625 45 l 712 45 q 494 811 494 808 q 498 823 494 817 q 517 833 504 833 q 539 819 533 833 l 764 29 l 765 22 q 761 9 765 16 q 743 0 753 0 m 540 1080 q 476 1106 503 1080 q 450 1171 450 1133 q 476 1234 450 1208 q 540 1261 503 1261 l 540 1260 q 556 1254 549 1260 q 562 1238 562 1247 q 556 1222 562 1229 q 540 1215 549 1215 l 540 1215 q 509 1202 522 1215 q 496 1171 496 1189 q 509 1139 496 1152 q 540 1126 522 1126 q 571 1139 558 1126 q 585 1171 585 1152 l 585 1171 q 592 1186 585 1180 q 608 1193 598 1193 q 624 1186 617 1193 q 630 1171 630 1180 l 631 1171 q 604 1106 631 1133 q 540 1080 577 1080 m 315 1171 q 301 1202 315 1189 q 270 1215 288 1215 q 239 1202 252 1215 q 226 1171 226 1189 l 225 1171 q 218 1155 225 1161 q 203 1148 212 1148 q 187 1155 193 1148 q 180 1171 180 1161 l 180 1171 q 206 1234 180 1208 q 270 1261 233 1261 q 334 1234 307 1261 q 361 1171 361 1208 q 334 1106 361 1133 q 270 1080 307 1080 l 270 1080 q 254 1087 260 1080 q 248 1103 248 1094 q 254 1119 248 1112 q 270 1125 260 1125 l 270 1126 q 301 1139 288 1126 q 315 1171 315 1152 z "},"":{"ha":810,"x_min":45,"x_max":765,"o":"m 202 0 l 67 0 q 49 9 56 0 q 45 22 45 16 q 315 974 45 26 q 337 991 322 991 l 473 991 q 491 981 483 991 q 495 968 495 975 q 263 151 495 964 q 242 135 258 135 q 235 136 239 135 q 218 157 218 142 q 442 945 218 161 l 355 945 l 98 45 l 202 45 q 218 39 212 45 q 225 22 225 32 q 218 7 225 14 q 202 0 212 0 m 743 0 l 608 0 q 585 16 592 0 q 434 549 434 546 q 438 562 434 555 q 458 572 445 572 q 479 556 473 572 l 625 45 l 712 45 q 494 811 494 808 q 498 823 494 817 q 517 833 504 833 q 539 819 533 833 l 764 29 l 765 22 q 761 9 765 16 q 743 0 753 0 m 540 1080 q 476 1106 503 1080 q 450 1171 450 1133 q 476 1234 450 1208 q 540 1261 503 1261 l 540 1260 q 556 1254 549 1260 q 562 1238 562 1247 q 556 1222 562 1229 q 540 1215 549 1215 l 540 1215 q 509 1202 522 1215 q 496 1171 496 1189 q 509 1139 496 1152 q 540 1126 522 1126 q 571 1139 558 1126 q 585 1171 585 1152 l 585 1171 q 592 1186 585 1180 q 608 1193 598 1193 q 624 1186 617 1193 q 630 1171 630 1180 l 631 1171 q 604 1106 631 1133 q 540 1080 577 1080 m 315 1171 q 301 1202 315 1189 q 270 1215 288 1215 q 239 1202 252 1215 q 226 1171 226 1189 l 225 1171 q 218 1155 225 1161 q 203 1148 212 1148 q 187 1155 193 1148 q 180 1171 180 1161 l 180 1171 q 206 1234 180 1208 q 270 1261 233 1261 q 334 1234 307 1261 q 361 1171 361 1208 q 334 1106 361 1133 q 270 1080 307 1080 l 270 1080 q 254 1087 260 1080 q 248 1103 248 1094 q 254 1119 248 1112 q 270 1125 260 1125 l 270 1126 q 301 1139 288 1126 q 315 1171 315 1152 z "},"":{"ha":810,"x_min":112,"x_max":698,"o":"m 135 0 q 119 6 125 0 q 112 22 112 13 l 112 967 q 119 983 112 977 q 135 989 125 989 q 151 983 144 989 q 158 967 158 977 l 158 22 q 151 6 158 13 q 135 0 144 0 m 540 404 l 405 404 q 389 411 395 404 q 382 427 382 418 q 389 444 382 437 q 405 450 395 450 l 517 450 l 517 539 l 270 539 q 254 546 260 539 q 247 562 247 553 l 247 832 q 254 848 247 842 q 270 855 260 855 l 652 855 l 652 944 l 270 944 q 254 951 260 944 q 248 967 248 958 q 254 983 248 977 q 270 990 260 990 l 675 990 q 691 983 684 990 q 698 967 698 977 l 698 832 q 691 816 698 823 q 675 809 684 809 l 293 809 l 293 585 l 540 585 q 556 578 549 585 q 563 562 563 572 l 563 427 q 556 411 563 418 q 540 404 549 404 m 675 -1 l 270 -1 q 254 6 260 -1 q 248 22 248 13 q 254 39 248 32 q 270 45 260 45 l 652 45 l 652 134 l 270 134 q 254 141 260 134 q 247 157 247 148 l 247 427 q 254 443 247 437 q 270 450 260 450 q 286 443 279 450 q 293 427 293 437 l 293 180 l 675 180 q 691 174 684 180 q 698 157 698 167 l 698 22 q 691 6 698 13 q 675 -1 684 -1 m 540 1080 q 476 1106 503 1080 q 450 1171 450 1133 q 476 1234 450 1208 q 540 1261 503 1261 l 540 1260 q 556 1254 549 1260 q 562 1238 562 1247 q 556 1222 562 1229 q 540 1215 549 1215 l 540 1215 q 509 1202 522 1215 q 496 1171 496 1189 q 509 1139 496 1152 q 540 1126 522 1126 q 571 1139 558 1126 q 585 1171 585 1152 l 585 1171 q 592 1186 585 1180 q 608 1193 598 1193 q 624 1186 617 1193 q 630 1171 630 1180 l 631 1171 q 604 1106 631 1133 q 540 1080 577 1080 m 315 1171 q 301 1202 315 1189 q 270 1215 288 1215 q 239 1202 252 1215 q 226 1171 226 1189 l 225 1171 q 218 1155 225 1161 q 203 1148 212 1148 q 187 1155 193 1148 q 180 1171 180 1161 l 180 1171 q 206 1234 180 1208 q 270 1261 233 1261 q 334 1234 307 1261 q 361 1171 361 1208 q 334 1106 361 1133 q 270 1080 307 1080 l 270 1080 q 254 1087 260 1080 q 248 1103 248 1094 q 254 1119 248 1112 q 270 1125 260 1125 l 270 1126 q 301 1139 288 1126 q 315 1171 315 1152 z "},"":{"ha":810,"x_min":112,"x_max":698,"o":"m 135 0 q 119 6 125 0 q 112 22 112 13 l 112 967 q 119 983 112 977 q 135 989 125 989 q 151 983 144 989 q 158 967 158 977 l 158 22 q 151 6 158 13 q 135 0 144 0 m 540 404 l 405 404 q 389 411 395 404 q 382 427 382 418 q 389 444 382 437 q 405 450 395 450 l 517 450 l 517 539 l 270 539 q 254 546 260 539 q 247 562 247 553 l 247 832 q 254 848 247 842 q 270 855 260 855 l 652 855 l 652 944 l 270 944 q 254 951 260 944 q 248 967 248 958 q 254 983 248 977 q 270 990 260 990 l 675 990 q 691 983 684 990 q 698 967 698 977 l 698 832 q 691 816 698 823 q 675 809 684 809 l 293 809 l 293 585 l 540 585 q 556 578 549 585 q 563 562 563 572 l 563 427 q 556 411 563 418 q 540 404 549 404 m 675 -1 l 270 -1 q 254 6 260 -1 q 248 22 248 13 q 254 39 248 32 q 270 45 260 45 l 652 45 l 652 134 l 270 134 q 254 141 260 134 q 247 157 247 148 l 247 427 q 254 443 247 437 q 270 450 260 450 q 286 443 279 450 q 293 427 293 437 l 293 180 l 675 180 q 691 174 684 180 q 698 157 698 167 l 698 22 q 691 6 698 13 q 675 -1 684 -1 m 540 1080 q 476 1106 503 1080 q 450 1171 450 1133 q 476 1234 450 1208 q 540 1261 503 1261 l 540 1260 q 556 1254 549 1260 q 562 1238 562 1247 q 556 1222 562 1229 q 540 1215 549 1215 l 540 1215 q 509 1202 522 1215 q 496 1171 496 1189 q 509 1139 496 1152 q 540 1126 522 1126 q 571 1139 558 1126 q 585 1171 585 1152 l 585 1171 q 592 1186 585 1180 q 608 1193 598 1193 q 624 1186 617 1193 q 630 1171 630 1180 l 631 1171 q 604 1106 631 1133 q 540 1080 577 1080 m 315 1171 q 301 1202 315 1189 q 270 1215 288 1215 q 239 1202 252 1215 q 226 1171 226 1189 l 225 1171 q 218 1155 225 1161 q 203 1148 212 1148 q 187 1155 193 1148 q 180 1171 180 1161 l 180 1171 q 206 1234 180 1208 q 270 1261 233 1261 q 334 1234 307 1261 q 361 1171 361 1208 q 334 1106 361 1133 q 270 1080 307 1080 l 270 1080 q 254 1087 260 1080 q 248 1103 248 1094 q 254 1119 248 1112 q 270 1125 260 1125 l 270 1126 q 301 1139 288 1126 q 315 1171 315 1152 z "},"":{"ha":810,"x_min":113,"x_max":697,"o":"m 675 944 l 135 944 q 119 951 125 944 q 113 967 113 958 q 119 983 113 977 q 135 990 125 990 l 675 990 q 691 983 684 990 q 697 967 697 977 q 691 951 697 958 q 675 944 684 944 m 337 134 l 135 134 q 119 141 125 134 q 113 157 113 148 q 119 174 113 167 q 135 180 125 180 l 315 180 l 315 809 l 135 809 q 119 816 125 809 q 113 832 113 823 q 119 848 113 842 q 135 855 125 855 l 337 855 q 354 848 347 855 q 360 832 360 842 l 360 157 q 354 141 360 148 q 337 134 347 134 m 675 -1 l 135 -1 q 119 6 125 -1 q 113 22 113 13 q 119 39 113 32 q 135 45 125 45 l 675 45 q 691 39 684 45 q 697 22 697 32 q 691 6 697 13 q 675 -1 684 -1 m 675 134 l 473 134 q 456 141 463 134 q 450 157 450 148 l 450 832 q 456 848 450 842 q 473 855 463 855 l 675 855 q 691 848 684 855 q 697 832 697 842 q 691 816 697 823 q 675 809 684 809 l 495 809 l 495 180 l 675 180 q 691 174 684 180 q 697 157 697 167 q 691 141 697 148 q 675 134 684 134 m 540 1080 q 476 1106 503 1080 q 450 1171 450 1133 q 476 1234 450 1208 q 540 1261 503 1261 l 540 1260 q 556 1254 549 1260 q 562 1238 562 1247 q 556 1222 562 1229 q 540 1215 549 1215 l 540 1215 q 509 1202 522 1215 q 496 1171 496 1189 q 509 1139 496 1152 q 540 1126 522 1126 q 571 1139 558 1126 q 585 1171 585 1152 l 585 1171 q 592 1186 585 1180 q 608 1193 598 1193 q 624 1186 617 1193 q 630 1171 630 1180 l 631 1171 q 604 1106 631 1133 q 540 1080 577 1080 m 315 1171 q 301 1202 315 1189 q 270 1215 288 1215 q 239 1202 252 1215 q 226 1171 226 1189 l 225 1171 q 218 1155 225 1161 q 203 1148 212 1148 q 187 1155 193 1148 q 180 1171 180 1161 l 180 1171 q 206 1234 180 1208 q 270 1261 233 1261 q 334 1234 307 1261 q 361 1171 361 1208 q 334 1106 361 1133 q 270 1080 307 1080 l 270 1080 q 254 1087 260 1080 q 248 1103 248 1094 q 254 1119 248 1112 q 270 1125 260 1125 l 270 1126 q 301 1139 288 1126 q 315 1171 315 1152 z "},"":{"ha":810,"x_min":113,"x_max":697,"o":"m 675 944 l 135 944 q 119 951 125 944 q 113 967 113 958 q 119 983 113 977 q 135 990 125 990 l 675 990 q 691 983 684 990 q 697 967 697 977 q 691 951 697 958 q 675 944 684 944 m 337 134 l 135 134 q 119 141 125 134 q 113 157 113 148 q 119 174 113 167 q 135 180 125 180 l 315 180 l 315 809 l 135 809 q 119 816 125 809 q 113 832 113 823 q 119 848 113 842 q 135 855 125 855 l 337 855 q 354 848 347 855 q 360 832 360 842 l 360 157 q 354 141 360 148 q 337 134 347 134 m 675 -1 l 135 -1 q 119 6 125 -1 q 113 22 113 13 q 119 39 113 32 q 135 45 125 45 l 675 45 q 691 39 684 45 q 697 22 697 32 q 691 6 697 13 q 675 -1 684 -1 m 675 134 l 473 134 q 456 141 463 134 q 450 157 450 148 l 450 832 q 456 848 450 842 q 473 855 463 855 l 675 855 q 691 848 684 855 q 697 832 697 842 q 691 816 697 823 q 675 809 684 809 l 495 809 l 495 180 l 675 180 q 691 174 684 180 q 697 157 697 167 q 691 141 697 148 q 675 134 684 134 m 540 1080 q 476 1106 503 1080 q 450 1171 450 1133 q 476 1234 450 1208 q 540 1261 503 1261 l 540 1260 q 556 1254 549 1260 q 562 1238 562 1247 q 556 1222 562 1229 q 540 1215 549 1215 l 540 1215 q 509 1202 522 1215 q 496 1171 496 1189 q 509 1139 496 1152 q 540 1126 522 1126 q 571 1139 558 1126 q 585 1171 585 1152 l 585 1171 q 592 1186 585 1180 q 608 1193 598 1193 q 624 1186 617 1193 q 630 1171 630 1180 l 631 1171 q 604 1106 631 1133 q 540 1080 577 1080 m 315 1171 q 301 1202 315 1189 q 270 1215 288 1215 q 239 1202 252 1215 q 226 1171 226 1189 l 225 1171 q 218 1155 225 1161 q 203 1148 212 1148 q 187 1155 193 1148 q 180 1171 180 1161 l 180 1171 q 206 1234 180 1208 q 270 1261 233 1261 q 334 1234 307 1261 q 361 1171 361 1208 q 334 1106 361 1133 q 270 1080 307 1080 l 270 1080 q 254 1087 260 1080 q 248 1103 248 1094 q 254 1119 248 1112 q 270 1125 260 1125 l 270 1126 q 301 1139 288 1126 q 315 1171 315 1152 z "},"":{"ha":810,"x_min":112,"x_max":698,"o":"m 405 -1 q 258 39 324 -1 q 152 145 191 79 q 112 292 112 212 q 119 308 112 302 q 135 315 125 315 q 151 308 144 315 q 158 292 158 302 q 191 168 158 224 q 281 79 224 112 q 405 45 337 45 q 529 79 473 45 q 618 168 585 112 q 652 292 652 224 l 652 697 q 618 822 652 766 q 529 911 585 878 q 405 944 473 944 q 281 911 337 944 q 191 822 224 878 q 158 697 158 766 l 158 427 q 151 411 158 418 q 135 405 144 405 q 119 411 125 405 q 112 427 112 418 l 112 697 q 152 844 112 778 q 258 950 191 911 q 405 990 324 990 q 552 950 486 990 q 658 844 618 911 q 698 697 698 778 l 698 292 q 658 145 698 212 q 552 39 618 79 q 405 -1 486 -1 m 405 134 q 293 181 340 134 q 247 292 247 227 l 247 562 q 254 578 247 572 q 270 585 260 585 q 286 578 279 585 q 293 562 293 572 l 293 292 q 326 213 293 246 q 405 180 359 180 q 484 213 451 180 q 517 292 517 246 l 517 697 q 484 776 517 743 q 405 809 451 809 q 326 776 359 809 q 293 697 293 743 q 286 681 293 688 q 270 675 279 675 q 254 681 260 675 q 247 697 247 688 q 293 809 247 762 q 405 855 340 855 q 516 809 470 855 q 563 697 563 762 l 563 292 q 516 181 563 227 q 405 134 470 134 m 540 1080 q 476 1106 503 1080 q 450 1171 450 1133 q 476 1234 450 1208 q 540 1261 503 1261 l 540 1260 q 556 1254 549 1260 q 562 1238 562 1247 q 556 1222 562 1229 q 540 1215 549 1215 l 540 1215 q 509 1202 522 1215 q 496 1171 496 1189 q 509 1139 496 1152 q 540 1126 522 1126 q 571 1139 558 1126 q 585 1171 585 1152 l 585 1171 q 592 1186 585 1180 q 608 1193 598 1193 q 624 1186 617 1193 q 630 1171 630 1180 l 631 1171 q 604 1106 631 1133 q 540 1080 577 1080 m 315 1171 q 301 1202 315 1189 q 270 1215 288 1215 q 239 1202 252 1215 q 226 1171 226 1189 l 225 1171 q 218 1155 225 1161 q 203 1148 212 1148 q 187 1155 193 1148 q 180 1171 180 1161 l 180 1171 q 206 1234 180 1208 q 270 1261 233 1261 q 334 1234 307 1261 q 361 1171 361 1208 q 334 1106 361 1133 q 270 1080 307 1080 l 270 1080 q 254 1087 260 1080 q 248 1103 248 1094 q 254 1119 248 1112 q 270 1125 260 1125 l 270 1126 q 301 1139 288 1126 q 315 1171 315 1152 z "},"":{"ha":810,"x_min":112,"x_max":698,"o":"m 405 -1 q 258 39 324 -1 q 152 145 191 79 q 112 292 112 212 q 119 308 112 302 q 135 315 125 315 q 151 308 144 315 q 158 292 158 302 q 191 168 158 224 q 281 79 224 112 q 405 45 337 45 q 529 79 473 45 q 618 168 585 112 q 652 292 652 224 l 652 697 q 618 822 652 766 q 529 911 585 878 q 405 944 473 944 q 281 911 337 944 q 191 822 224 878 q 158 697 158 766 l 158 427 q 151 411 158 418 q 135 405 144 405 q 119 411 125 405 q 112 427 112 418 l 112 697 q 152 844 112 778 q 258 950 191 911 q 405 990 324 990 q 552 950 486 990 q 658 844 618 911 q 698 697 698 778 l 698 292 q 658 145 698 212 q 552 39 618 79 q 405 -1 486 -1 m 405 134 q 293 181 340 134 q 247 292 247 227 l 247 562 q 254 578 247 572 q 270 585 260 585 q 286 578 279 585 q 293 562 293 572 l 293 292 q 326 213 293 246 q 405 180 359 180 q 484 213 451 180 q 517 292 517 246 l 517 697 q 484 776 517 743 q 405 809 451 809 q 326 776 359 809 q 293 697 293 743 q 286 681 293 688 q 270 675 279 675 q 254 681 260 675 q 247 697 247 688 q 293 809 247 762 q 405 855 340 855 q 516 809 470 855 q 563 697 563 762 l 563 292 q 516 181 563 227 q 405 134 470 134 m 540 1080 q 476 1106 503 1080 q 450 1171 450 1133 q 476 1234 450 1208 q 540 1261 503 1261 l 540 1260 q 556 1254 549 1260 q 562 1238 562 1247 q 556 1222 562 1229 q 540 1215 549 1215 l 540 1215 q 509 1202 522 1215 q 496 1171 496 1189 q 509 1139 496 1152 q 540 1126 522 1126 q 571 1139 558 1126 q 585 1171 585 1152 l 585 1171 q 592 1186 585 1180 q 608 1193 598 1193 q 624 1186 617 1193 q 630 1171 630 1180 l 631 1171 q 604 1106 631 1133 q 540 1080 577 1080 m 315 1171 q 301 1202 315 1189 q 270 1215 288 1215 q 239 1202 252 1215 q 226 1171 226 1189 l 225 1171 q 218 1155 225 1161 q 203 1148 212 1148 q 187 1155 193 1148 q 180 1171 180 1161 l 180 1171 q 206 1234 180 1208 q 270 1261 233 1261 q 334 1234 307 1261 q 361 1171 361 1208 q 334 1106 361 1133 q 270 1080 307 1080 l 270 1080 q 254 1087 260 1080 q 248 1103 248 1094 q 254 1119 248 1112 q 270 1125 260 1125 l 270 1126 q 301 1139 288 1126 q 315 1171 315 1152 z "},"":{"ha":810,"x_min":112,"x_max":698,"o":"m 405 134 q 293 181 340 134 q 247 292 247 227 l 247 967 q 254 983 247 977 q 270 989 260 989 q 286 983 279 989 q 293 967 293 977 l 293 292 q 326 213 293 246 q 405 180 359 180 q 484 213 451 180 q 517 292 517 246 l 517 967 q 524 983 517 977 q 540 989 530 989 q 556 983 549 989 q 563 967 563 977 l 563 292 q 517 180 562 227 q 405 134 468 134 m 405 -1 q 258 39 324 -1 q 152 145 191 79 q 112 292 112 212 l 112 967 q 119 983 112 977 q 135 989 125 989 q 151 983 144 989 q 158 967 158 977 l 158 292 q 191 168 158 224 q 281 79 224 112 q 405 45 337 45 q 529 79 473 45 q 618 168 585 112 q 652 292 652 224 l 652 967 q 659 983 652 977 q 675 989 665 989 q 691 983 684 989 q 698 967 698 977 l 698 292 q 612 85 696 172 q 405 -1 522 -1 m 540 1080 q 476 1106 503 1080 q 450 1171 450 1133 q 476 1234 450 1208 q 540 1261 503 1261 l 540 1260 q 556 1254 549 1260 q 562 1238 562 1247 q 556 1222 562 1229 q 540 1215 549 1215 l 540 1215 q 509 1202 522 1215 q 496 1171 496 1189 q 509 1139 496 1152 q 540 1126 522 1126 q 571 1139 558 1126 q 585 1171 585 1152 l 585 1171 q 592 1186 585 1180 q 608 1193 598 1193 q 624 1186 617 1193 q 630 1171 630 1180 l 631 1171 q 604 1106 631 1133 q 540 1080 577 1080 m 315 1171 q 301 1202 315 1189 q 270 1215 288 1215 q 239 1202 252 1215 q 226 1171 226 1189 l 225 1171 q 218 1155 225 1161 q 203 1148 212 1148 q 187 1155 193 1148 q 180 1171 180 1161 l 180 1171 q 206 1234 180 1208 q 270 1261 233 1261 q 334 1234 307 1261 q 361 1171 361 1208 q 334 1106 361 1133 q 270 1080 307 1080 l 270 1080 q 254 1087 260 1080 q 248 1103 248 1094 q 254 1119 248 1112 q 270 1125 260 1125 l 270 1126 q 301 1139 288 1126 q 315 1171 315 1152 z "},"":{"ha":810,"x_min":112,"x_max":698,"o":"m 405 134 q 293 181 340 134 q 247 292 247 227 l 247 967 q 254 983 247 977 q 270 989 260 989 q 286 983 279 989 q 293 967 293 977 l 293 292 q 326 213 293 246 q 405 180 359 180 q 484 213 451 180 q 517 292 517 246 l 517 967 q 524 983 517 977 q 540 989 530 989 q 556 983 549 989 q 563 967 563 977 l 563 292 q 517 180 562 227 q 405 134 468 134 m 405 -1 q 258 39 324 -1 q 152 145 191 79 q 112 292 112 212 l 112 967 q 119 983 112 977 q 135 989 125 989 q 151 983 144 989 q 158 967 158 977 l 158 292 q 191 168 158 224 q 281 79 224 112 q 405 45 337 45 q 529 79 473 45 q 618 168 585 112 q 652 292 652 224 l 652 967 q 659 983 652 977 q 675 989 665 989 q 691 983 684 989 q 698 967 698 977 l 698 292 q 612 85 696 172 q 405 -1 522 -1 m 540 1080 q 476 1106 503 1080 q 450 1171 450 1133 q 476 1234 450 1208 q 540 1261 503 1261 l 540 1260 q 556 1254 549 1260 q 562 1238 562 1247 q 556 1222 562 1229 q 540 1215 549 1215 l 540 1215 q 509 1202 522 1215 q 496 1171 496 1189 q 509 1139 496 1152 q 540 1126 522 1126 q 571 1139 558 1126 q 585 1171 585 1152 l 585 1171 q 592 1186 585 1180 q 608 1193 598 1193 q 624 1186 617 1193 q 630 1171 630 1180 l 631 1171 q 604 1106 631 1133 q 540 1080 577 1080 m 315 1171 q 301 1202 315 1189 q 270 1215 288 1215 q 239 1202 252 1215 q 226 1171 226 1189 l 225 1171 q 218 1155 225 1161 q 203 1148 212 1148 q 187 1155 193 1148 q 180 1171 180 1161 l 180 1171 q 206 1234 180 1208 q 270 1261 233 1261 q 334 1234 307 1261 q 361 1171 361 1208 q 334 1106 361 1133 q 270 1080 307 1080 l 270 1080 q 254 1087 260 1080 q 248 1103 248 1094 q 254 1119 248 1112 q 270 1125 260 1125 l 270 1126 q 301 1139 288 1126 q 315 1171 315 1152 z "},"":{"ha":810,"x_min":35,"x_max":775,"o":"m 338 0 q 321 7 328 0 q 315 22 315 14 l 315 471 l 37 956 q 35 967 35 962 q 36 976 35 970 q 45 986 38 982 q 58 990 52 990 q 77 979 71 990 l 357 488 q 361 477 361 483 l 361 22 q 354 7 361 14 q 338 0 347 1 m 405 608 q 385 620 393 608 l 193 956 q 190 967 190 962 q 192 976 190 970 q 200 986 193 982 q 214 990 208 990 q 233 979 226 990 l 405 677 l 578 979 q 596 990 584 990 q 608 987 602 990 q 620 967 620 980 q 617 956 620 962 l 425 620 q 405 608 418 608 m 473 0 q 456 7 463 0 q 450 22 450 14 l 450 477 q 733 979 450 482 q 752 990 739 990 q 764 987 758 990 q 775 966 775 980 q 773 956 775 961 l 496 471 l 496 22 q 489 7 496 14 q 473 0 482 0 m 540 1080 q 476 1106 503 1080 q 450 1171 450 1133 q 476 1234 450 1208 q 540 1261 503 1261 l 540 1260 q 556 1254 549 1260 q 562 1238 562 1247 q 556 1222 562 1229 q 540 1215 549 1215 l 540 1215 q 509 1202 522 1215 q 496 1171 496 1189 q 509 1139 496 1152 q 540 1126 522 1126 q 571 1139 558 1126 q 585 1171 585 1152 l 585 1171 q 592 1186 585 1180 q 608 1193 598 1193 q 624 1186 617 1193 q 630 1171 630 1180 l 631 1171 q 604 1106 631 1133 q 540 1080 577 1080 m 315 1171 q 301 1202 315 1189 q 270 1215 288 1215 q 239 1202 252 1215 q 226 1171 226 1189 l 225 1171 q 218 1155 225 1161 q 203 1148 212 1148 q 187 1155 193 1148 q 180 1171 180 1161 l 180 1171 q 206 1234 180 1208 q 270 1261 233 1261 q 334 1234 307 1261 q 361 1171 361 1208 q 334 1106 361 1133 q 270 1080 307 1080 l 270 1080 q 254 1087 260 1080 q 248 1103 248 1094 q 254 1119 248 1112 q 270 1125 260 1125 l 270 1126 q 301 1139 288 1126 q 315 1171 315 1152 z "},"":{"ha":810,"x_min":35,"x_max":775,"o":"m 338 0 q 321 7 328 0 q 315 22 315 14 l 315 471 l 37 956 q 35 967 35 962 q 36 976 35 970 q 45 986 38 982 q 58 990 52 990 q 77 979 71 990 l 357 488 q 361 477 361 483 l 361 22 q 354 7 361 14 q 338 0 347 1 m 405 608 q 385 620 393 608 l 193 956 q 190 967 190 962 q 192 976 190 970 q 200 986 193 982 q 214 990 208 990 q 233 979 226 990 l 405 677 l 578 979 q 596 990 584 990 q 608 987 602 990 q 620 967 620 980 q 617 956 620 962 l 425 620 q 405 608 418 608 m 473 0 q 456 7 463 0 q 450 22 450 14 l 450 477 q 733 979 450 482 q 752 990 739 990 q 764 987 758 990 q 775 966 775 980 q 773 956 775 961 l 496 471 l 496 22 q 489 7 496 14 q 473 0 482 0 m 540 1080 q 476 1106 503 1080 q 450 1171 450 1133 q 476 1234 450 1208 q 540 1261 503 1261 l 540 1260 q 556 1254 549 1260 q 562 1238 562 1247 q 556 1222 562 1229 q 540 1215 549 1215 l 540 1215 q 509 1202 522 1215 q 496 1171 496 1189 q 509 1139 496 1152 q 540 1126 522 1126 q 571 1139 558 1126 q 585 1171 585 1152 l 585 1171 q 592 1186 585 1180 q 608 1193 598 1193 q 624 1186 617 1193 q 630 1171 630 1180 l 631 1171 q 604 1106 631 1133 q 540 1080 577 1080 m 315 1171 q 301 1202 315 1189 q 270 1215 288 1215 q 239 1202 252 1215 q 226 1171 226 1189 l 225 1171 q 218 1155 225 1161 q 203 1148 212 1148 q 187 1155 193 1148 q 180 1171 180 1161 l 180 1171 q 206 1234 180 1208 q 270 1261 233 1261 q 334 1234 307 1261 q 361 1171 361 1208 q 334 1106 361 1133 q 270 1080 307 1080 l 270 1080 q 254 1087 260 1080 q 248 1103 248 1094 q 254 1119 248 1112 q 270 1125 260 1125 l 270 1126 q 301 1139 288 1126 q 315 1171 315 1152 z "},"":{"ha":810,"x_min":112,"x_max":698,"o":"m 135 0 q 119 6 125 0 q 112 22 112 13 l 112 967 q 119 983 112 977 q 135 990 125 990 q 151 983 144 990 q 158 967 158 977 l 158 22 q 151 6 158 13 q 135 0 144 0 m 540 539 l 270 539 q 254 546 260 539 q 247 562 247 553 l 247 967 q 254 983 247 977 q 270 990 260 990 q 286 983 279 990 q 293 967 293 977 l 293 585 l 517 585 l 517 967 q 524 983 517 977 q 540 990 530 990 q 556 983 549 990 q 563 967 563 977 l 563 562 q 556 546 563 553 q 540 539 549 539 m 675 0 q 659 6 665 0 q 652 22 652 13 l 652 967 q 659 983 652 977 q 675 990 665 990 q 691 983 684 990 q 698 967 698 977 l 698 22 q 691 6 698 13 q 675 0 684 0 m 540 0 q 524 6 530 0 q 517 22 517 13 l 517 404 l 293 404 l 293 22 q 286 6 293 13 q 270 0 279 0 q 254 6 260 0 q 247 22 247 13 l 247 427 q 254 444 247 437 q 270 450 260 450 l 540 450 q 556 444 549 450 q 563 427 563 437 l 563 22 q 556 6 563 13 q 540 0 549 0 m 540 1080 q 476 1106 503 1080 q 450 1171 450 1133 q 476 1234 450 1208 q 540 1261 503 1261 l 540 1260 q 556 1254 549 1260 q 562 1238 562 1247 q 556 1222 562 1229 q 540 1215 549 1215 l 540 1215 q 509 1202 522 1215 q 496 1171 496 1189 q 509 1139 496 1152 q 540 1126 522 1126 q 571 1139 558 1126 q 585 1171 585 1152 l 585 1171 q 592 1186 585 1180 q 608 1193 598 1193 q 624 1186 617 1193 q 630 1171 630 1180 l 631 1171 q 604 1106 631 1133 q 540 1080 577 1080 m 315 1171 q 301 1202 315 1189 q 270 1215 288 1215 q 239 1202 252 1215 q 226 1171 226 1189 l 225 1171 q 218 1155 225 1161 q 203 1148 212 1148 q 187 1155 193 1148 q 180 1171 180 1161 l 180 1171 q 206 1234 180 1208 q 270 1261 233 1261 q 334 1234 307 1261 q 361 1171 361 1208 q 334 1106 361 1133 q 270 1080 307 1080 l 270 1080 q 254 1087 260 1080 q 248 1103 248 1094 q 254 1119 248 1112 q 270 1125 260 1125 l 270 1126 q 301 1139 288 1126 q 315 1171 315 1152 z "},"":{"ha":810,"x_min":112,"x_max":698,"o":"m 135 0 q 119 6 125 0 q 112 22 112 13 l 112 967 q 119 983 112 977 q 135 990 125 990 q 151 983 144 990 q 158 967 158 977 l 158 22 q 151 6 158 13 q 135 0 144 0 m 540 539 l 270 539 q 254 546 260 539 q 247 562 247 553 l 247 967 q 254 983 247 977 q 270 990 260 990 q 286 983 279 990 q 293 967 293 977 l 293 585 l 517 585 l 517 967 q 524 983 517 977 q 540 990 530 990 q 556 983 549 990 q 563 967 563 977 l 563 562 q 556 546 563 553 q 540 539 549 539 m 675 0 q 659 6 665 0 q 652 22 652 13 l 652 967 q 659 983 652 977 q 675 990 665 990 q 691 983 684 990 q 698 967 698 977 l 698 22 q 691 6 698 13 q 675 0 684 0 m 540 0 q 524 6 530 0 q 517 22 517 13 l 517 404 l 293 404 l 293 22 q 286 6 293 13 q 270 0 279 0 q 254 6 260 0 q 247 22 247 13 l 247 427 q 254 444 247 437 q 270 450 260 450 l 540 450 q 556 444 549 450 q 563 427 563 437 l 563 22 q 556 6 563 13 q 540 0 549 0 m 540 1080 q 476 1106 503 1080 q 450 1171 450 1133 q 476 1234 450 1208 q 540 1261 503 1261 l 540 1260 q 556 1254 549 1260 q 562 1238 562 1247 q 556 1222 562 1229 q 540 1215 549 1215 l 540 1215 q 509 1202 522 1215 q 496 1171 496 1189 q 509 1139 496 1152 q 540 1126 522 1126 q 571 1139 558 1126 q 585 1171 585 1152 l 585 1171 q 592 1186 585 1180 q 608 1193 598 1193 q 624 1186 617 1193 q 630 1171 630 1180 l 631 1171 q 604 1106 631 1133 q 540 1080 577 1080 m 315 1171 q 301 1202 315 1189 q 270 1215 288 1215 q 239 1202 252 1215 q 226 1171 226 1189 l 225 1171 q 218 1155 225 1161 q 203 1148 212 1148 q 187 1155 193 1148 q 180 1171 180 1161 l 180 1171 q 206 1234 180 1208 q 270 1261 233 1261 q 334 1234 307 1261 q 361 1171 361 1208 q 334 1106 361 1133 q 270 1080 307 1080 l 270 1080 q 254 1087 260 1080 q 248 1103 248 1094 q 254 1119 248 1112 q 270 1125 260 1125 l 270 1126 q 301 1139 288 1126 q 315 1171 315 1152 z "},"":{"ha":945,"x_min":43,"x_max":902,"o":"m 326 384 q 310 389 317 384 q 302 402 304 394 q 181 967 181 964 q 186 981 181 974 q 205 990 192 990 q 227 972 222 990 l 320 537 l 382 970 q 390 985 384 980 q 404 990 397 990 q 423 981 416 990 q 427 968 427 975 l 347 404 q 326 384 344 385 m 542 0 l 539 0 q 516 20 520 0 l 473 326 l 430 20 q 421 5 428 10 q 406 0 414 0 l 404 0 q 384 22 384 4 l 450 494 q 458 508 452 502 q 473 513 465 513 q 488 508 481 513 q 496 494 494 502 l 562 22 q 542 0 562 4 m 268 0 q 247 18 250 0 l 43 968 q 47 981 43 974 q 67 990 54 990 q 80 986 73 990 q 89 972 87 981 q 292 23 292 26 q 287 9 292 16 q 268 0 281 0 m 621 384 l 621 384 q 599 404 602 385 l 517 966 q 523 982 517 975 q 541 990 529 990 q 564 970 559 990 l 626 536 l 720 972 q 742 990 725 990 q 762 979 755 990 q 766 966 766 974 q 644 402 766 964 q 621 384 639 384 m 677 0 l 672 1 q 654 23 654 5 q 857 972 654 26 q 867 987 859 981 q 878 990 872 990 q 899 980 892 990 q 902 968 902 974 l 699 18 q 677 0 695 0 m 607 1080 q 543 1106 570 1080 q 517 1171 517 1133 q 543 1234 517 1208 q 607 1261 570 1261 l 607 1260 q 623 1254 616 1260 q 629 1238 629 1247 q 623 1222 629 1229 q 607 1215 616 1215 l 607 1215 q 576 1202 589 1215 q 563 1171 563 1189 q 576 1139 563 1152 q 607 1126 589 1126 q 638 1139 625 1126 q 652 1171 652 1152 l 652 1171 q 659 1186 652 1180 q 675 1193 665 1193 q 691 1186 684 1193 q 697 1171 697 1180 l 698 1171 q 671 1106 698 1133 q 607 1080 644 1080 m 382 1171 q 369 1202 382 1189 q 337 1215 355 1215 q 306 1202 319 1215 q 293 1171 293 1189 l 292 1171 q 286 1155 292 1161 q 270 1148 279 1148 q 254 1155 260 1148 q 248 1171 248 1161 l 247 1171 q 273 1234 247 1208 q 337 1261 300 1261 q 401 1234 374 1261 q 428 1171 428 1208 q 401 1106 428 1133 q 337 1080 374 1080 l 337 1080 q 321 1087 328 1080 q 315 1103 315 1094 q 321 1119 315 1112 q 337 1125 328 1125 l 337 1126 q 369 1139 355 1126 q 382 1171 382 1152 z "},"":{"ha":945,"x_min":43,"x_max":902,"o":"m 326 384 q 310 389 317 384 q 302 402 304 394 q 181 967 181 964 q 186 981 181 974 q 205 990 192 990 q 227 972 222 990 l 320 537 l 382 970 q 390 985 384 980 q 404 990 397 990 q 423 981 416 990 q 427 968 427 975 l 347 404 q 326 384 344 385 m 542 0 l 539 0 q 516 20 520 0 l 473 326 l 430 20 q 421 5 428 10 q 406 0 414 0 l 404 0 q 384 22 384 4 l 450 494 q 458 508 452 502 q 473 513 465 513 q 488 508 481 513 q 496 494 494 502 l 562 22 q 542 0 562 4 m 268 0 q 247 18 250 0 l 43 968 q 47 981 43 974 q 67 990 54 990 q 80 986 73 990 q 89 972 87 981 q 292 23 292 26 q 287 9 292 16 q 268 0 281 0 m 621 384 l 621 384 q 599 404 602 385 l 517 966 q 523 982 517 975 q 541 990 529 990 q 564 970 559 990 l 626 536 l 720 972 q 742 990 725 990 q 762 979 755 990 q 766 966 766 974 q 644 402 766 964 q 621 384 639 384 m 677 0 l 672 1 q 654 23 654 5 q 857 972 654 26 q 867 987 859 981 q 878 990 872 990 q 899 980 892 990 q 902 968 902 974 l 699 18 q 677 0 695 0 m 607 1080 q 543 1106 570 1080 q 517 1171 517 1133 q 543 1234 517 1208 q 607 1261 570 1261 l 607 1260 q 623 1254 616 1260 q 629 1238 629 1247 q 623 1222 629 1229 q 607 1215 616 1215 l 607 1215 q 576 1202 589 1215 q 563 1171 563 1189 q 576 1139 563 1152 q 607 1126 589 1126 q 638 1139 625 1126 q 652 1171 652 1152 l 652 1171 q 659 1186 652 1180 q 675 1193 665 1193 q 691 1186 684 1193 q 697 1171 697 1180 l 698 1171 q 671 1106 698 1133 q 607 1080 644 1080 m 382 1171 q 369 1202 382 1189 q 337 1215 355 1215 q 306 1202 319 1215 q 293 1171 293 1189 l 292 1171 q 286 1155 292 1161 q 270 1148 279 1148 q 254 1155 260 1148 q 248 1171 248 1161 l 247 1171 q 273 1234 247 1208 q 337 1261 300 1261 q 401 1234 374 1261 q 428 1171 428 1208 q 401 1106 428 1133 q 337 1080 374 1080 l 337 1080 q 321 1087 328 1080 q 315 1103 315 1094 q 321 1119 315 1112 q 337 1125 328 1125 l 337 1126 q 369 1139 355 1126 q 382 1171 382 1152 z "},"":{"ha":810,"x_min":35,"x_max":775,"o":"m 405 608 q 385 620 393 608 l 193 956 q 190 967 190 962 q 192 976 190 970 q 200 986 193 982 q 214 990 208 990 q 233 979 227 990 l 405 677 l 577 979 q 596 990 583 990 q 608 987 603 990 q 620 967 620 980 q 425 620 620 962 q 405 608 417 608 m 58 0 q 46 3 52 0 q 35 23 35 10 q 300 495 35 28 q 35 967 35 962 q 46 987 35 980 q 58 990 52 990 q 77 979 70 990 l 347 507 q 351 495 351 500 q 347 484 351 489 l 77 12 q 58 0 70 0 m 752 0 q 732 12 740 0 l 463 484 q 460 495 460 489 q 463 507 460 500 l 732 979 q 752 990 740 990 q 764 987 758 990 q 775 967 775 980 q 509 495 775 962 l 772 34 q 775 23 775 28 q 764 3 775 10 q 752 0 758 0 m 596 0 q 577 12 584 0 l 405 313 l 233 12 q 214 0 226 0 q 201 3 208 0 q 190 22 190 10 q 193 34 190 28 l 385 370 q 405 382 393 382 q 425 370 417 382 q 620 23 620 28 q 608 3 620 10 q 596 0 603 0 m 540 1080 q 476 1106 503 1080 q 450 1171 450 1133 q 476 1234 450 1208 q 540 1261 503 1261 l 540 1260 q 556 1254 549 1260 q 562 1238 562 1247 q 556 1222 562 1229 q 540 1215 549 1215 l 540 1215 q 509 1202 522 1215 q 496 1171 496 1189 q 509 1139 496 1152 q 540 1126 522 1126 q 571 1139 558 1126 q 585 1171 585 1152 l 585 1171 q 592 1186 585 1180 q 608 1193 598 1193 q 624 1186 617 1193 q 630 1171 630 1180 l 631 1171 q 604 1106 631 1133 q 540 1080 577 1080 m 315 1171 q 301 1202 315 1189 q 270 1215 288 1215 q 239 1202 252 1215 q 226 1171 226 1189 l 225 1171 q 218 1155 225 1161 q 203 1148 212 1148 q 187 1155 193 1148 q 180 1171 180 1161 l 180 1171 q 206 1234 180 1208 q 270 1261 233 1261 q 334 1234 307 1261 q 361 1171 361 1208 q 334 1106 361 1133 q 270 1080 307 1080 l 270 1080 q 254 1087 260 1080 q 248 1103 248 1094 q 254 1119 248 1112 q 270 1125 260 1125 l 270 1126 q 301 1139 288 1126 q 315 1171 315 1152 z "},"":{"ha":810,"x_min":35,"x_max":775,"o":"m 405 608 q 385 620 393 608 l 193 956 q 190 967 190 962 q 192 976 190 970 q 200 986 193 982 q 214 990 208 990 q 233 979 227 990 l 405 677 l 577 979 q 596 990 583 990 q 608 987 603 990 q 620 967 620 980 q 425 620 620 962 q 405 608 417 608 m 58 0 q 46 3 52 0 q 35 23 35 10 q 300 495 35 28 q 35 967 35 962 q 46 987 35 980 q 58 990 52 990 q 77 979 70 990 l 347 507 q 351 495 351 500 q 347 484 351 489 l 77 12 q 58 0 70 0 m 752 0 q 732 12 740 0 l 463 484 q 460 495 460 489 q 463 507 460 500 l 732 979 q 752 990 740 990 q 764 987 758 990 q 775 967 775 980 q 509 495 775 962 l 772 34 q 775 23 775 28 q 764 3 775 10 q 752 0 758 0 m 596 0 q 577 12 584 0 l 405 313 l 233 12 q 214 0 226 0 q 201 3 208 0 q 190 22 190 10 q 193 34 190 28 l 385 370 q 405 382 393 382 q 425 370 417 382 q 620 23 620 28 q 608 3 620 10 q 596 0 603 0 m 540 1080 q 476 1106 503 1080 q 450 1171 450 1133 q 476 1234 450 1208 q 540 1261 503 1261 l 540 1260 q 556 1254 549 1260 q 562 1238 562 1247 q 556 1222 562 1229 q 540 1215 549 1215 l 540 1215 q 509 1202 522 1215 q 496 1171 496 1189 q 509 1139 496 1152 q 540 1126 522 1126 q 571 1139 558 1126 q 585 1171 585 1152 l 585 1171 q 592 1186 585 1180 q 608 1193 598 1193 q 624 1186 617 1193 q 630 1171 630 1180 l 631 1171 q 604 1106 631 1133 q 540 1080 577 1080 m 315 1171 q 301 1202 315 1189 q 270 1215 288 1215 q 239 1202 252 1215 q 226 1171 226 1189 l 225 1171 q 218 1155 225 1161 q 203 1148 212 1148 q 187 1155 193 1148 q 180 1171 180 1161 l 180 1171 q 206 1234 180 1208 q 270 1261 233 1261 q 334 1234 307 1261 q 361 1171 361 1208 q 334 1106 361 1133 q 270 1080 307 1080 l 270 1080 q 254 1087 260 1080 q 248 1103 248 1094 q 254 1119 248 1112 q 270 1125 260 1125 l 270 1126 q 301 1139 288 1126 q 315 1171 315 1152 z "},"":{"ha":810,"x_min":112,"x_max":698,"o":"m 337 0 q 321 6 328 0 q 315 22 315 13 l 315 539 l 270 539 q 254 546 260 540 q 248 562 248 553 q 254 578 248 572 q 270 585 260 585 l 337 585 q 353 578 347 585 q 360 562 360 572 l 360 22 q 353 6 360 13 q 337 0 347 0 m 675 539 l 473 539 q 456 546 463 539 q 450 562 450 553 q 456 578 450 572 q 473 585 463 585 l 652 585 l 652 674 l 473 674 q 456 681 463 674 q 450 697 450 688 l 450 944 l 337 944 q 321 951 328 944 q 315 967 315 958 q 321 983 315 977 q 337 990 328 990 l 473 990 q 489 983 482 990 q 495 967 495 977 l 495 720 l 675 720 q 691 713 684 720 q 698 697 698 707 l 698 562 q 691 546 698 553 q 675 539 684 539 m 473 -136 l 337 -136 q 321 -129 328 -136 q 315 -113 315 -122 q 321 -96 315 -103 q 337 -90 328 -90 l 450 -90 l 450 427 q 456 443 450 437 q 473 450 463 450 q 488 443 481 450 q 495 427 495 437 l 495 -113 q 489 -129 495 -122 q 473 -136 482 -136 m 135 540 q 119 546 125 540 q 112 562 112 553 l 112 697 q 119 713 112 707 q 135 720 125 720 l 315 720 l 315 832 q 321 848 315 842 q 337 854 328 854 q 353 848 347 854 q 360 832 360 842 l 360 697 q 353 681 360 688 q 337 674 347 674 l 158 674 l 158 562 q 151 546 158 553 q 135 540 144 540 z "},"":{"ha":810,"x_min":315,"x_max":630,"o":"m 337 1080 q 321 1087 328 1080 q 315 1103 315 1094 q 321 1119 315 1112 l 456 1254 q 473 1261 463 1261 l 608 1261 q 629 1246 621 1261 q 630 1238 630 1242 q 624 1221 630 1229 l 488 1086 q 472 1080 481 1080 q 456 1087 463 1080 q 450 1103 450 1094 q 456 1119 450 1112 l 552 1215 l 482 1215 l 353 1086 q 337 1080 347 1080 z "},"":{"ha":810,"x_min":45,"x_max":765,"o":"m 202 0 l 67 0 q 49 9 56 0 q 45 22 45 16 q 315 974 45 26 q 337 991 322 991 l 473 991 q 491 981 483 991 q 495 968 495 975 q 263 151 495 964 q 242 135 258 135 q 235 136 239 135 q 218 157 218 142 q 442 945 218 161 l 355 945 l 98 45 l 202 45 q 218 39 212 45 q 225 22 225 32 q 218 7 225 14 q 202 0 212 0 m 743 0 l 608 0 q 585 16 592 0 q 434 549 434 546 q 438 562 434 555 q 458 572 445 572 q 479 556 473 572 l 625 45 l 712 45 q 494 811 494 808 q 498 823 494 817 q 517 833 504 833 q 539 819 533 833 l 764 29 l 765 22 q 761 9 765 16 q 743 0 753 0 m 337 1080 q 321 1087 328 1080 q 315 1103 315 1094 q 321 1119 315 1112 l 456 1254 q 473 1261 463 1261 l 608 1261 q 629 1246 621 1261 q 630 1238 630 1242 q 624 1221 630 1229 l 488 1086 q 472 1080 481 1080 q 456 1087 463 1080 q 450 1103 450 1094 q 456 1119 450 1112 l 552 1215 l 482 1215 l 353 1086 q 337 1080 347 1080 z "},"":{"ha":810,"x_min":45,"x_max":765,"o":"m 202 0 l 67 0 q 49 9 56 0 q 45 22 45 16 q 315 974 45 26 q 337 991 322 991 l 473 991 q 491 981 483 991 q 495 968 495 975 q 263 151 495 964 q 242 135 258 135 q 235 136 239 135 q 218 157 218 142 q 442 945 218 161 l 355 945 l 98 45 l 202 45 q 218 39 212 45 q 225 22 225 32 q 218 7 225 14 q 202 0 212 0 m 743 0 l 608 0 q 585 16 592 0 q 434 549 434 546 q 438 562 434 555 q 458 572 445 572 q 479 556 473 572 l 625 45 l 712 45 q 494 811 494 808 q 498 823 494 817 q 517 833 504 833 q 539 819 533 833 l 764 29 l 765 22 q 761 9 765 16 q 743 0 753 0 m 337 1080 q 321 1087 328 1080 q 315 1103 315 1094 q 321 1119 315 1112 l 456 1254 q 473 1261 463 1261 l 608 1261 q 629 1246 621 1261 q 630 1238 630 1242 q 624 1221 630 1229 l 488 1086 q 472 1080 481 1080 q 456 1087 463 1080 q 450 1103 450 1094 q 456 1119 450 1112 l 552 1215 l 482 1215 l 353 1086 q 337 1080 347 1080 z "},"":{"ha":810,"x_min":112,"x_max":698,"o":"m 135 0 q 119 6 125 0 q 112 22 112 13 l 112 967 q 119 983 112 977 q 135 989 125 989 q 151 983 144 989 q 158 967 158 977 l 158 22 q 151 6 158 13 q 135 0 144 0 m 540 404 l 405 404 q 389 411 395 404 q 382 427 382 418 q 389 444 382 437 q 405 450 395 450 l 517 450 l 517 539 l 270 539 q 254 546 260 539 q 247 562 247 553 l 247 832 q 254 848 247 842 q 270 855 260 855 l 652 855 l 652 944 l 270 944 q 254 951 260 944 q 248 967 248 958 q 254 983 248 977 q 270 990 260 990 l 675 990 q 691 983 684 990 q 698 967 698 977 l 698 832 q 691 816 698 823 q 675 809 684 809 l 293 809 l 293 585 l 540 585 q 556 578 549 585 q 563 562 563 572 l 563 427 q 556 411 563 418 q 540 404 549 404 m 675 -1 l 270 -1 q 254 6 260 -1 q 248 22 248 13 q 254 39 248 32 q 270 45 260 45 l 652 45 l 652 134 l 270 134 q 254 141 260 134 q 247 157 247 148 l 247 427 q 254 443 247 437 q 270 450 260 450 q 286 443 279 450 q 293 427 293 437 l 293 180 l 675 180 q 691 174 684 180 q 698 157 698 167 l 698 22 q 691 6 698 13 q 675 -1 684 -1 m 337 1080 q 321 1087 328 1080 q 315 1103 315 1094 q 321 1119 315 1112 l 456 1254 q 473 1261 463 1261 l 608 1261 q 629 1246 621 1261 q 630 1238 630 1242 q 624 1221 630 1229 l 488 1086 q 472 1080 481 1080 q 456 1087 463 1080 q 450 1103 450 1094 q 456 1119 450 1112 l 552 1215 l 482 1215 l 353 1086 q 337 1080 347 1080 z "},"":{"ha":810,"x_min":112,"x_max":698,"o":"m 135 0 q 119 6 125 0 q 112 22 112 13 l 112 967 q 119 983 112 977 q 135 989 125 989 q 151 983 144 989 q 158 967 158 977 l 158 22 q 151 6 158 13 q 135 0 144 0 m 540 404 l 405 404 q 389 411 395 404 q 382 427 382 418 q 389 444 382 437 q 405 450 395 450 l 517 450 l 517 539 l 270 539 q 254 546 260 539 q 247 562 247 553 l 247 832 q 254 848 247 842 q 270 855 260 855 l 652 855 l 652 944 l 270 944 q 254 951 260 944 q 248 967 248 958 q 254 983 248 977 q 270 990 260 990 l 675 990 q 691 983 684 990 q 698 967 698 977 l 698 832 q 691 816 698 823 q 675 809 684 809 l 293 809 l 293 585 l 540 585 q 556 578 549 585 q 563 562 563 572 l 563 427 q 556 411 563 418 q 540 404 549 404 m 675 -1 l 270 -1 q 254 6 260 -1 q 248 22 248 13 q 254 39 248 32 q 270 45 260 45 l 652 45 l 652 134 l 270 134 q 254 141 260 134 q 247 157 247 148 l 247 427 q 254 443 247 437 q 270 450 260 450 q 286 443 279 450 q 293 427 293 437 l 293 180 l 675 180 q 691 174 684 180 q 698 157 698 167 l 698 22 q 691 6 698 13 q 675 -1 684 -1 m 337 1080 q 321 1087 328 1080 q 315 1103 315 1094 q 321 1119 315 1112 l 456 1254 q 473 1261 463 1261 l 608 1261 q 629 1246 621 1261 q 630 1238 630 1242 q 624 1221 630 1229 l 488 1086 q 472 1080 481 1080 q 456 1087 463 1080 q 450 1103 450 1094 q 456 1119 450 1112 l 552 1215 l 482 1215 l 353 1086 q 337 1080 347 1080 z "},"":{"ha":810,"x_min":113,"x_max":697,"o":"m 675 944 l 135 944 q 119 951 125 944 q 113 967 113 958 q 119 983 113 977 q 135 990 125 990 l 675 990 q 691 983 684 990 q 697 967 697 977 q 691 951 697 958 q 675 944 684 944 m 337 134 l 135 134 q 119 141 125 134 q 113 157 113 148 q 119 174 113 167 q 135 180 125 180 l 315 180 l 315 809 l 135 809 q 119 816 125 809 q 113 832 113 823 q 119 848 113 842 q 135 855 125 855 l 337 855 q 354 848 347 855 q 360 832 360 842 l 360 157 q 354 141 360 148 q 337 134 347 134 m 675 -1 l 135 -1 q 119 6 125 -1 q 113 22 113 13 q 119 39 113 32 q 135 45 125 45 l 675 45 q 691 39 684 45 q 697 22 697 32 q 691 6 697 13 q 675 -1 684 -1 m 675 134 l 473 134 q 456 141 463 134 q 450 157 450 148 l 450 832 q 456 848 450 842 q 473 855 463 855 l 675 855 q 691 848 684 855 q 697 832 697 842 q 691 816 697 823 q 675 809 684 809 l 495 809 l 495 180 l 675 180 q 691 174 684 180 q 697 157 697 167 q 691 141 697 148 q 675 134 684 134 m 337 1080 q 321 1087 328 1080 q 315 1103 315 1094 q 321 1119 315 1112 l 456 1254 q 473 1261 463 1261 l 608 1261 q 629 1246 621 1261 q 630 1238 630 1242 q 624 1221 630 1229 l 488 1086 q 472 1080 481 1080 q 456 1087 463 1080 q 450 1103 450 1094 q 456 1119 450 1112 l 552 1215 l 482 1215 l 353 1086 q 337 1080 347 1080 z "},"":{"ha":810,"x_min":113,"x_max":697,"o":"m 675 944 l 135 944 q 119 951 125 944 q 113 967 113 958 q 119 983 113 977 q 135 990 125 990 l 675 990 q 691 983 684 990 q 697 967 697 977 q 691 951 697 958 q 675 944 684 944 m 337 134 l 135 134 q 119 141 125 134 q 113 157 113 148 q 119 174 113 167 q 135 180 125 180 l 315 180 l 315 809 l 135 809 q 119 816 125 809 q 113 832 113 823 q 119 848 113 842 q 135 855 125 855 l 337 855 q 354 848 347 855 q 360 832 360 842 l 360 157 q 354 141 360 148 q 337 134 347 134 m 675 -1 l 135 -1 q 119 6 125 -1 q 113 22 113 13 q 119 39 113 32 q 135 45 125 45 l 675 45 q 691 39 684 45 q 697 22 697 32 q 691 6 697 13 q 675 -1 684 -1 m 675 134 l 473 134 q 456 141 463 134 q 450 157 450 148 l 450 832 q 456 848 450 842 q 473 855 463 855 l 675 855 q 691 848 684 855 q 697 832 697 842 q 691 816 697 823 q 675 809 684 809 l 495 809 l 495 180 l 675 180 q 691 174 684 180 q 697 157 697 167 q 691 141 697 148 q 675 134 684 134 m 337 1080 q 321 1087 328 1080 q 315 1103 315 1094 q 321 1119 315 1112 l 456 1254 q 473 1261 463 1261 l 608 1261 q 629 1246 621 1261 q 630 1238 630 1242 q 624 1221 630 1229 l 488 1086 q 472 1080 481 1080 q 456 1087 463 1080 q 450 1103 450 1094 q 456 1119 450 1112 l 552 1215 l 482 1215 l 353 1086 q 337 1080 347 1080 z "},"":{"ha":810,"x_min":112,"x_max":698,"o":"m 405 -1 q 258 39 324 -1 q 152 145 191 79 q 112 292 112 212 q 119 308 112 302 q 135 315 125 315 q 151 308 144 315 q 158 292 158 302 q 191 168 158 224 q 281 79 224 112 q 405 45 337 45 q 529 79 473 45 q 618 168 585 112 q 652 292 652 224 l 652 697 q 618 822 652 766 q 529 911 585 878 q 405 944 473 944 q 281 911 337 944 q 191 822 224 878 q 158 697 158 766 l 158 427 q 151 411 158 418 q 135 405 144 405 q 119 411 125 405 q 112 427 112 418 l 112 697 q 152 844 112 778 q 258 950 191 911 q 405 990 324 990 q 552 950 486 990 q 658 844 618 911 q 698 697 698 778 l 698 292 q 658 145 698 212 q 552 39 618 79 q 405 -1 486 -1 m 405 134 q 293 181 340 134 q 247 292 247 227 l 247 562 q 254 578 247 572 q 270 585 260 585 q 286 578 279 585 q 293 562 293 572 l 293 292 q 326 213 293 246 q 405 180 359 180 q 484 213 451 180 q 517 292 517 246 l 517 697 q 484 776 517 743 q 405 809 451 809 q 326 776 359 809 q 293 697 293 743 q 286 681 293 688 q 270 675 279 675 q 254 681 260 675 q 247 697 247 688 q 293 809 247 762 q 405 855 340 855 q 516 809 470 855 q 563 697 563 762 l 563 292 q 516 181 563 227 q 405 134 470 134 m 337 1080 q 321 1087 328 1080 q 315 1103 315 1094 q 321 1119 315 1112 l 456 1254 q 473 1261 463 1261 l 608 1261 q 629 1246 621 1261 q 630 1238 630 1242 q 624 1221 630 1229 l 488 1086 q 472 1080 481 1080 q 456 1087 463 1080 q 450 1103 450 1094 q 456 1119 450 1112 l 552 1215 l 482 1215 l 353 1086 q 337 1080 347 1080 z "},"":{"ha":810,"x_min":112,"x_max":698,"o":"m 405 -1 q 258 39 324 -1 q 152 145 191 79 q 112 292 112 212 q 119 308 112 302 q 135 315 125 315 q 151 308 144 315 q 158 292 158 302 q 191 168 158 224 q 281 79 224 112 q 405 45 337 45 q 529 79 473 45 q 618 168 585 112 q 652 292 652 224 l 652 697 q 618 822 652 766 q 529 911 585 878 q 405 944 473 944 q 281 911 337 944 q 191 822 224 878 q 158 697 158 766 l 158 427 q 151 411 158 418 q 135 405 144 405 q 119 411 125 405 q 112 427 112 418 l 112 697 q 152 844 112 778 q 258 950 191 911 q 405 990 324 990 q 552 950 486 990 q 658 844 618 911 q 698 697 698 778 l 698 292 q 658 145 698 212 q 552 39 618 79 q 405 -1 486 -1 m 405 134 q 293 181 340 134 q 247 292 247 227 l 247 562 q 254 578 247 572 q 270 585 260 585 q 286 578 279 585 q 293 562 293 572 l 293 292 q 326 213 293 246 q 405 180 359 180 q 484 213 451 180 q 517 292 517 246 l 517 697 q 484 776 517 743 q 405 809 451 809 q 326 776 359 809 q 293 697 293 743 q 286 681 293 688 q 270 675 279 675 q 254 681 260 675 q 247 697 247 688 q 293 809 247 762 q 405 855 340 855 q 516 809 470 855 q 563 697 563 762 l 563 292 q 516 181 563 227 q 405 134 470 134 m 337 1080 q 321 1087 328 1080 q 315 1103 315 1094 q 321 1119 315 1112 l 456 1254 q 473 1261 463 1261 l 608 1261 q 629 1246 621 1261 q 630 1238 630 1242 q 624 1221 630 1229 l 488 1086 q 472 1080 481 1080 q 456 1087 463 1080 q 450 1103 450 1094 q 456 1119 450 1112 l 552 1215 l 482 1215 l 353 1086 q 337 1080 347 1080 z "},"":{"ha":810,"x_min":112,"x_max":698,"o":"m 405 134 q 293 181 340 134 q 247 292 247 227 l 247 967 q 254 983 247 977 q 270 989 260 989 q 286 983 279 989 q 293 967 293 977 l 293 292 q 326 213 293 246 q 405 180 359 180 q 484 213 451 180 q 517 292 517 246 l 517 967 q 524 983 517 977 q 540 989 530 989 q 556 983 549 989 q 563 967 563 977 l 563 292 q 517 180 562 227 q 405 134 468 134 m 405 -1 q 258 39 324 -1 q 152 145 191 79 q 112 292 112 212 l 112 967 q 119 983 112 977 q 135 989 125 989 q 151 983 144 989 q 158 967 158 977 l 158 292 q 191 168 158 224 q 281 79 224 112 q 405 45 337 45 q 529 79 473 45 q 618 168 585 112 q 652 292 652 224 l 652 967 q 659 983 652 977 q 675 989 665 989 q 691 983 684 989 q 698 967 698 977 l 698 292 q 612 85 696 172 q 405 -1 522 -1 m 337 1080 q 321 1087 328 1080 q 315 1103 315 1094 q 321 1119 315 1112 l 456 1254 q 473 1261 463 1261 l 608 1261 q 629 1246 621 1261 q 630 1238 630 1242 q 624 1221 630 1229 l 488 1086 q 472 1080 481 1080 q 456 1087 463 1080 q 450 1103 450 1094 q 456 1119 450 1112 l 552 1215 l 482 1215 l 353 1086 q 337 1080 347 1080 z "},"":{"ha":810,"x_min":112,"x_max":698,"o":"m 405 134 q 293 181 340 134 q 247 292 247 227 l 247 967 q 254 983 247 977 q 270 989 260 989 q 286 983 279 989 q 293 967 293 977 l 293 292 q 326 213 293 246 q 405 180 359 180 q 484 213 451 180 q 517 292 517 246 l 517 967 q 524 983 517 977 q 540 989 530 989 q 556 983 549 989 q 563 967 563 977 l 563 292 q 517 180 562 227 q 405 134 468 134 m 405 -1 q 258 39 324 -1 q 152 145 191 79 q 112 292 112 212 l 112 967 q 119 983 112 977 q 135 989 125 989 q 151 983 144 989 q 158 967 158 977 l 158 292 q 191 168 158 224 q 281 79 224 112 q 405 45 337 45 q 529 79 473 45 q 618 168 585 112 q 652 292 652 224 l 652 967 q 659 983 652 977 q 675 989 665 989 q 691 983 684 989 q 698 967 698 977 l 698 292 q 612 85 696 172 q 405 -1 522 -1 m 337 1080 q 321 1087 328 1080 q 315 1103 315 1094 q 321 1119 315 1112 l 456 1254 q 473 1261 463 1261 l 608 1261 q 629 1246 621 1261 q 630 1238 630 1242 q 624 1221 630 1229 l 488 1086 q 472 1080 481 1080 q 456 1087 463 1080 q 450 1103 450 1094 q 456 1119 450 1112 l 552 1215 l 482 1215 l 353 1086 q 337 1080 347 1080 z "},"":{"ha":810,"x_min":35,"x_max":775,"o":"m 338 0 q 321 7 328 0 q 315 22 315 14 l 315 471 l 37 956 q 35 967 35 962 q 36 976 35 970 q 45 986 38 982 q 58 990 52 990 q 77 979 71 990 l 357 488 q 361 477 361 483 l 361 22 q 354 7 361 14 q 338 0 347 1 m 405 608 q 385 620 393 608 l 193 956 q 190 967 190 962 q 192 976 190 970 q 200 986 193 982 q 214 990 208 990 q 233 979 226 990 l 405 677 l 578 979 q 596 990 584 990 q 608 987 602 990 q 620 967 620 980 q 617 956 620 962 l 425 620 q 405 608 418 608 m 473 0 q 456 7 463 0 q 450 22 450 14 l 450 477 q 733 979 450 482 q 752 990 739 990 q 764 987 758 990 q 775 966 775 980 q 773 956 775 961 l 496 471 l 496 22 q 489 7 496 14 q 473 0 482 0 m 337 1080 q 321 1087 328 1080 q 315 1103 315 1094 q 321 1119 315 1112 l 456 1254 q 473 1261 463 1261 l 608 1261 q 629 1246 621 1261 q 630 1238 630 1242 q 624 1221 630 1229 l 488 1086 q 472 1080 481 1080 q 456 1087 463 1080 q 450 1103 450 1094 q 456 1119 450 1112 l 552 1215 l 482 1215 l 353 1086 q 337 1080 347 1080 z "},"":{"ha":810,"x_min":35,"x_max":775,"o":"m 338 0 q 321 7 328 0 q 315 22 315 14 l 315 471 l 37 956 q 35 967 35 962 q 36 976 35 970 q 45 986 38 982 q 58 990 52 990 q 77 979 71 990 l 357 488 q 361 477 361 483 l 361 22 q 354 7 361 14 q 338 0 347 1 m 405 608 q 385 620 393 608 l 193 956 q 190 967 190 962 q 192 976 190 970 q 200 986 193 982 q 214 990 208 990 q 233 979 226 990 l 405 677 l 578 979 q 596 990 584 990 q 608 987 602 990 q 620 967 620 980 q 617 956 620 962 l 425 620 q 405 608 418 608 m 473 0 q 456 7 463 0 q 450 22 450 14 l 450 477 q 733 979 450 482 q 752 990 739 990 q 764 987 758 990 q 775 966 775 980 q 773 956 775 961 l 496 471 l 496 22 q 489 7 496 14 q 473 0 482 0 m 337 1080 q 321 1087 328 1080 q 315 1103 315 1094 q 321 1119 315 1112 l 456 1254 q 473 1261 463 1261 l 608 1261 q 629 1246 621 1261 q 630 1238 630 1242 q 624 1221 630 1229 l 488 1086 q 472 1080 481 1080 q 456 1087 463 1080 q 450 1103 450 1094 q 456 1119 450 1112 l 552 1215 l 482 1215 l 353 1086 q 337 1080 347 1080 z "},"":{"ha":810,"x_min":112,"x_max":698,"o":"m 405 -1 q 258 39 324 -1 q 152 145 191 79 q 112 292 112 212 l 112 697 q 198 905 113 818 q 405 990 288 990 q 552 950 486 990 q 658 844 618 911 q 698 697 698 778 q 691 681 698 688 q 675 675 684 675 q 659 681 665 675 q 652 697 652 688 q 618 822 652 766 q 529 911 585 878 q 405 944 473 944 q 281 911 337 944 q 191 822 224 878 q 158 697 158 766 l 158 292 q 230 117 158 193 q 405 45 306 45 q 529 79 473 45 q 618 168 585 112 q 652 292 652 224 q 659 308 652 302 q 675 315 665 315 q 691 308 684 315 q 698 292 698 302 q 658 145 698 212 q 552 39 618 79 q 405 -1 486 -1 m 405 134 q 293 181 340 134 q 247 292 247 227 l 247 697 q 293 809 248 762 q 405 855 342 855 q 516 809 470 855 q 563 697 563 762 q 556 681 563 688 q 540 675 549 675 q 524 681 530 675 q 517 697 517 688 q 484 776 517 743 q 405 809 451 809 q 326 776 359 809 q 293 697 293 743 l 293 292 q 326 213 293 248 q 405 180 360 180 q 484 213 451 180 q 517 292 517 246 q 524 308 517 302 q 540 315 530 315 q 556 308 549 315 q 563 292 563 302 q 516 181 563 227 q 405 134 470 134 m 337 1080 q 321 1087 328 1080 q 315 1103 315 1094 q 321 1119 315 1112 l 456 1254 q 473 1261 463 1261 l 608 1261 q 629 1246 621 1261 q 630 1238 630 1242 q 624 1221 630 1229 l 488 1086 q 472 1080 481 1080 q 456 1087 463 1080 q 450 1103 450 1094 q 456 1119 450 1112 l 552 1215 l 482 1215 l 353 1086 q 337 1080 347 1080 z "},"":{"ha":810,"x_min":112,"x_max":698,"o":"m 405 -1 q 258 39 324 -1 q 152 145 191 79 q 112 292 112 212 l 112 697 q 198 905 113 818 q 405 990 288 990 q 552 950 486 990 q 658 844 618 911 q 698 697 698 778 q 691 681 698 688 q 675 675 684 675 q 659 681 665 675 q 652 697 652 688 q 618 822 652 766 q 529 911 585 878 q 405 944 473 944 q 281 911 337 944 q 191 822 224 878 q 158 697 158 766 l 158 292 q 230 117 158 193 q 405 45 306 45 q 529 79 473 45 q 618 168 585 112 q 652 292 652 224 q 659 308 652 302 q 675 315 665 315 q 691 308 684 315 q 698 292 698 302 q 658 145 698 212 q 552 39 618 79 q 405 -1 486 -1 m 405 134 q 293 181 340 134 q 247 292 247 227 l 247 697 q 293 809 248 762 q 405 855 342 855 q 516 809 470 855 q 563 697 563 762 q 556 681 563 688 q 540 675 549 675 q 524 681 530 675 q 517 697 517 688 q 484 776 517 743 q 405 809 451 809 q 326 776 359 809 q 293 697 293 743 l 293 292 q 326 213 293 248 q 405 180 360 180 q 484 213 451 180 q 517 292 517 246 q 524 308 517 302 q 540 315 530 315 q 556 308 549 315 q 563 292 563 302 q 516 181 563 227 q 405 134 470 134 m 337 1080 q 321 1087 328 1080 q 315 1103 315 1094 q 321 1119 315 1112 l 456 1254 q 473 1261 463 1261 l 608 1261 q 629 1246 621 1261 q 630 1238 630 1242 q 624 1221 630 1229 l 488 1086 q 472 1080 481 1080 q 456 1087 463 1080 q 450 1103 450 1094 q 456 1119 450 1112 l 552 1215 l 482 1215 l 353 1086 q 337 1080 347 1080 z "},"":{"ha":810,"x_min":112,"x_max":698,"o":"m 135 1 q 119 7 125 1 q 112 23 113 14 l 113 968 q 119 984 113 977 q 136 990 126 990 q 152 984 145 990 q 159 968 158 977 l 158 23 q 151 7 158 14 q 135 1 144 1 m 675 135 l 405 135 q 389 142 396 135 q 382 158 382 149 q 389 174 382 168 q 405 181 396 181 l 675 181 q 691 174 684 181 q 698 158 698 168 q 691 142 698 149 q 675 135 684 135 m 270 136 q 254 142 261 136 q 247 158 247 149 l 247 968 q 254 984 248 977 q 270 990 261 990 q 286 984 279 990 q 293 968 293 977 l 293 158 q 286 142 293 149 q 270 136 279 136 m 675 0 l 270 0 q 254 7 261 0 q 248 23 248 14 q 254 39 248 33 q 270 46 261 46 l 675 46 q 691 39 684 46 q 698 23 698 33 q 691 7 698 14 q 675 0 684 0 m 202 1080 q 186 1087 193 1080 q 180 1103 180 1094 q 186 1119 180 1112 l 321 1254 q 338 1261 328 1261 l 473 1261 q 494 1246 486 1261 q 495 1238 495 1242 q 489 1221 495 1229 l 353 1086 q 337 1080 347 1080 q 321 1087 328 1080 q 315 1103 315 1094 q 321 1119 315 1112 l 417 1215 l 347 1215 l 218 1086 q 202 1080 212 1080 z "},"":{"ha":810,"x_min":112,"x_max":698,"o":"m 135 1 q 119 7 125 1 q 112 23 113 14 l 113 968 q 119 984 113 977 q 136 990 126 990 q 152 984 145 990 q 159 968 158 977 l 158 23 q 151 7 158 14 q 135 1 144 1 m 675 135 l 405 135 q 389 142 396 135 q 382 158 382 149 q 389 174 382 168 q 405 181 396 181 l 675 181 q 691 174 684 181 q 698 158 698 168 q 691 142 698 149 q 675 135 684 135 m 270 136 q 254 142 261 136 q 247 158 247 149 l 247 968 q 254 984 248 977 q 270 990 261 990 q 286 984 279 990 q 293 968 293 977 l 293 158 q 286 142 293 149 q 270 136 279 136 m 675 0 l 270 0 q 254 7 261 0 q 248 23 248 14 q 254 39 248 33 q 270 46 261 46 l 675 46 q 691 39 684 46 q 698 23 698 33 q 691 7 698 14 q 675 0 684 0 m 202 1080 q 186 1087 193 1080 q 180 1103 180 1094 q 186 1119 180 1112 l 321 1254 q 338 1261 328 1261 l 473 1261 q 494 1246 486 1261 q 495 1238 495 1242 q 489 1221 495 1229 l 353 1086 q 337 1080 347 1080 q 321 1087 328 1080 q 315 1103 315 1094 q 321 1119 315 1112 l 417 1215 l 347 1215 l 218 1086 q 202 1080 212 1080 z "},"":{"ha":810,"x_min":112,"x_max":698,"o":"m 469 0 q 447 16 453 0 l 292 558 l 292 22 q 286 7 292 14 q 269 0 279 0 q 253 7 260 0 q 246 22 246 14 l 246 722 q 253 738 246 730 q 271 745 260 745 q 292 728 286 745 q 492 24 492 27 q 489 11 492 17 q 469 0 483 0 m 675 0 q 659 7 665 1 q 652 22 652 13 l 652 968 q 659 983 652 977 q 675 990 665 989 q 691 983 685 989 q 698 968 698 977 l 698 22 q 691 7 697 13 q 675 0 684 1 m 135 0 q 118 7 125 1 q 112 22 112 13 l 112 968 q 119 983 113 977 q 135 990 125 989 q 151 983 144 989 q 158 968 158 977 l 157 22 q 151 7 157 13 q 135 0 144 1 m 543 245 q 517 262 524 245 q 317 966 317 963 q 321 979 317 973 q 340 990 327 990 q 361 974 357 990 l 517 432 l 517 968 q 524 983 517 977 q 539 990 530 990 q 555 983 549 990 q 562 968 562 977 l 562 269 q 557 253 562 260 q 543 245 551 247 m 337 1080 q 321 1087 328 1080 q 315 1103 315 1094 q 321 1119 315 1112 l 456 1254 q 473 1261 463 1261 l 608 1261 q 629 1246 621 1261 q 630 1238 630 1242 q 624 1221 630 1229 l 488 1086 q 472 1080 481 1080 q 456 1087 463 1080 q 450 1103 450 1094 q 456 1119 450 1112 l 552 1215 l 482 1215 l 353 1086 q 337 1080 347 1080 z "},"":{"ha":810,"x_min":112,"x_max":698,"o":"m 469 0 q 447 16 453 0 l 292 558 l 292 22 q 286 7 292 14 q 269 0 279 0 q 253 7 260 0 q 246 22 246 14 l 246 722 q 253 738 246 730 q 271 745 260 745 q 292 728 286 745 q 492 24 492 27 q 489 11 492 17 q 469 0 483 0 m 675 0 q 659 7 665 1 q 652 22 652 13 l 652 968 q 659 983 652 977 q 675 990 665 989 q 691 983 685 989 q 698 968 698 977 l 698 22 q 691 7 697 13 q 675 0 684 1 m 135 0 q 118 7 125 1 q 112 22 112 13 l 112 968 q 119 983 113 977 q 135 990 125 989 q 151 983 144 989 q 158 968 158 977 l 157 22 q 151 7 157 13 q 135 0 144 1 m 543 245 q 517 262 524 245 q 317 966 317 963 q 321 979 317 973 q 340 990 327 990 q 361 974 357 990 l 517 432 l 517 968 q 524 983 517 977 q 539 990 530 990 q 555 983 549 990 q 562 968 562 977 l 562 269 q 557 253 562 260 q 543 245 551 247 m 337 1080 q 321 1087 328 1080 q 315 1103 315 1094 q 321 1119 315 1112 l 456 1254 q 473 1261 463 1261 l 608 1261 q 629 1246 621 1261 q 630 1238 630 1242 q 624 1221 630 1229 l 488 1086 q 472 1080 481 1080 q 456 1087 463 1080 q 450 1103 450 1094 q 456 1119 450 1112 l 552 1215 l 482 1215 l 353 1086 q 337 1080 347 1080 z "},"":{"ha":810,"x_min":113,"x_max":704,"o":"m 406 540 l 271 540 q 254 547 261 540 q 248 563 248 553 q 254 578 248 572 q 271 585 261 585 l 406 585 q 486 620 454 587 q 517 698 517 652 q 485 777 517 744 q 406 810 452 810 l 271 810 q 254 817 261 810 q 248 833 248 823 q 254 848 248 842 q 271 855 261 855 l 406 855 q 517 809 471 855 q 564 698 564 763 q 517 586 564 632 q 406 540 471 540 m 640 540 q 628 543 634 540 q 616 563 616 550 q 619 574 616 568 q 652 698 652 632 q 619 822 652 766 q 529 911 585 878 q 405 945 473 945 l 270 945 q 254 951 261 945 q 248 968 248 958 q 254 984 248 977 q 270 991 261 991 l 405 991 q 552 951 486 991 q 659 845 619 911 q 698 698 698 779 q 659 551 698 621 q 640 540 652 540 m 681 -1 l 534 -1 q 513 14 520 -1 l 345 405 l 270 405 q 254 412 261 405 q 248 427 248 418 q 254 444 248 437 q 270 450 261 450 l 361 450 q 382 437 374 450 l 549 45 l 646 45 q 477 445 477 440 q 480 455 477 449 q 501 467 486 467 q 522 454 515 467 l 702 32 q 704 22 704 27 q 701 10 704 16 q 681 -1 692 -1 m 271 -1 l 136 -1 q 119 6 126 -1 q 113 22 113 13 l 113 968 q 119 983 113 977 q 136 990 126 990 q 151 983 144 990 q 158 968 158 977 l 158 45 l 248 45 l 248 292 q 254 309 248 302 q 271 315 261 315 q 286 309 279 315 q 293 292 293 302 l 293 22 q 286 6 293 14 q 271 -1 279 -1 m 270 1080 q 254 1087 261 1080 q 248 1103 248 1094 q 254 1119 248 1112 l 389 1254 q 406 1261 396 1261 l 541 1261 q 562 1246 554 1261 q 563 1238 563 1242 q 557 1221 563 1229 l 421 1086 q 405 1080 414 1080 q 389 1087 396 1080 q 382 1103 382 1094 q 389 1119 382 1112 l 485 1215 l 415 1215 l 286 1086 q 270 1080 279 1080 z "},"":{"ha":810,"x_min":113,"x_max":704,"o":"m 406 540 l 271 540 q 254 547 261 540 q 248 563 248 553 q 254 578 248 572 q 271 585 261 585 l 406 585 q 486 620 454 587 q 517 698 517 652 q 485 777 517 744 q 406 810 452 810 l 271 810 q 254 817 261 810 q 248 833 248 823 q 254 848 248 842 q 271 855 261 855 l 406 855 q 517 809 471 855 q 564 698 564 763 q 517 586 564 632 q 406 540 471 540 m 640 540 q 628 543 634 540 q 616 563 616 550 q 619 574 616 568 q 652 698 652 632 q 619 822 652 766 q 529 911 585 878 q 405 945 473 945 l 270 945 q 254 951 261 945 q 248 968 248 958 q 254 984 248 977 q 270 991 261 991 l 405 991 q 552 951 486 991 q 659 845 619 911 q 698 698 698 779 q 659 551 698 621 q 640 540 652 540 m 681 -1 l 534 -1 q 513 14 520 -1 l 345 405 l 270 405 q 254 412 261 405 q 248 427 248 418 q 254 444 248 437 q 270 450 261 450 l 361 450 q 382 437 374 450 l 549 45 l 646 45 q 477 445 477 440 q 480 455 477 449 q 501 467 486 467 q 522 454 515 467 l 702 32 q 704 22 704 27 q 701 10 704 16 q 681 -1 692 -1 m 271 -1 l 136 -1 q 119 6 126 -1 q 113 22 113 13 l 113 968 q 119 983 113 977 q 136 990 126 990 q 151 983 144 990 q 158 968 158 977 l 158 45 l 248 45 l 248 292 q 254 309 248 302 q 271 315 261 315 q 286 309 279 315 q 293 292 293 302 l 293 22 q 286 6 293 14 q 271 -1 279 -1 m 270 1080 q 254 1087 261 1080 q 248 1103 248 1094 q 254 1119 248 1112 l 389 1254 q 406 1261 396 1261 l 541 1261 q 562 1246 554 1261 q 563 1238 563 1242 q 557 1221 563 1229 l 421 1086 q 405 1080 414 1080 q 389 1087 396 1080 q 382 1103 382 1094 q 389 1119 382 1112 l 485 1215 l 415 1215 l 286 1086 q 270 1080 279 1080 z "},"":{"ha":810,"x_min":112,"x_max":698,"o":"m 405 134 q 293 181 340 134 q 247 292 247 227 q 254 308 247 302 q 270 315 260 315 q 286 308 279 315 q 293 292 293 302 q 326 213 293 246 q 405 180 359 180 q 484 213 451 180 q 517 292 517 246 q 484 371 517 338 q 405 404 451 404 q 257 445 323 406 q 152 550 191 484 q 112 697 112 616 q 152 844 112 778 q 258 950 191 911 q 405 990 324 990 q 552 950 486 990 q 658 844 618 911 q 698 697 698 778 q 691 681 698 688 q 675 675 684 675 q 659 681 665 675 q 652 697 652 688 q 618 822 652 766 q 529 911 585 878 q 405 944 473 944 q 281 911 337 944 q 191 822 224 878 q 158 697 158 766 q 191 573 158 629 q 281 484 224 517 q 405 450 337 450 q 517 403 472 448 q 563 292 563 357 q 516 181 563 227 q 405 134 470 134 m 405 -1 q 258 39 324 -1 q 152 145 191 79 q 112 292 112 212 q 119 308 112 302 q 135 315 125 315 q 151 308 144 315 q 158 292 158 302 q 191 168 158 224 q 281 79 224 112 q 405 45 337 45 q 529 79 473 45 q 618 168 585 112 q 652 292 652 224 q 618 416 652 360 q 529 506 585 473 q 405 539 473 539 q 292 587 338 541 q 247 697 247 632 q 293 809 247 762 q 405 855 340 855 q 516 809 470 855 q 563 697 563 762 q 556 681 563 688 q 540 675 549 675 q 524 681 530 675 q 517 697 517 688 q 484 776 517 743 q 405 809 451 809 q 326 776 359 809 q 293 697 293 743 q 326 618 293 651 q 405 585 359 585 q 552 545 486 585 q 658 439 618 506 q 698 292 698 373 q 658 145 698 212 q 552 39 618 79 q 405 -1 486 -1 m 337 1080 q 321 1087 328 1080 q 315 1103 315 1094 q 321 1119 315 1112 l 456 1254 q 473 1261 463 1261 l 608 1261 q 629 1246 621 1261 q 630 1238 630 1242 q 624 1221 630 1229 l 488 1086 q 472 1080 481 1080 q 456 1087 463 1080 q 450 1103 450 1094 q 456 1119 450 1112 l 552 1215 l 482 1215 l 353 1086 q 337 1080 347 1080 z "},"":{"ha":810,"x_min":112,"x_max":698,"o":"m 405 134 q 293 181 340 134 q 247 292 247 227 q 254 308 247 302 q 270 315 260 315 q 286 308 279 315 q 293 292 293 302 q 326 213 293 246 q 405 180 359 180 q 484 213 451 180 q 517 292 517 246 q 484 371 517 338 q 405 404 451 404 q 257 445 323 406 q 152 550 191 484 q 112 697 112 616 q 152 844 112 778 q 258 950 191 911 q 405 990 324 990 q 552 950 486 990 q 658 844 618 911 q 698 697 698 778 q 691 681 698 688 q 675 675 684 675 q 659 681 665 675 q 652 697 652 688 q 618 822 652 766 q 529 911 585 878 q 405 944 473 944 q 281 911 337 944 q 191 822 224 878 q 158 697 158 766 q 191 573 158 629 q 281 484 224 517 q 405 450 337 450 q 517 403 472 448 q 563 292 563 357 q 516 181 563 227 q 405 134 470 134 m 405 -1 q 258 39 324 -1 q 152 145 191 79 q 112 292 112 212 q 119 308 112 302 q 135 315 125 315 q 151 308 144 315 q 158 292 158 302 q 191 168 158 224 q 281 79 224 112 q 405 45 337 45 q 529 79 473 45 q 618 168 585 112 q 652 292 652 224 q 618 416 652 360 q 529 506 585 473 q 405 539 473 539 q 292 587 338 541 q 247 697 247 632 q 293 809 247 762 q 405 855 340 855 q 516 809 470 855 q 563 697 563 762 q 556 681 563 688 q 540 675 549 675 q 524 681 530 675 q 517 697 517 688 q 484 776 517 743 q 405 809 451 809 q 326 776 359 809 q 293 697 293 743 q 326 618 293 651 q 405 585 359 585 q 552 545 486 585 q 658 439 618 506 q 698 292 698 373 q 658 145 698 212 q 552 39 618 79 q 405 -1 486 -1 m 337 1080 q 321 1087 328 1080 q 315 1103 315 1094 q 321 1119 315 1112 l 456 1254 q 473 1261 463 1261 l 608 1261 q 629 1246 621 1261 q 630 1238 630 1242 q 624 1221 630 1229 l 488 1086 q 472 1080 481 1080 q 456 1087 463 1080 q 450 1103 450 1094 q 456 1119 450 1112 l 552 1215 l 482 1215 l 353 1086 q 337 1080 347 1080 z "},"":{"ha":810,"x_min":112,"x_max":698,"o":"m 675 944 l 135 944 q 119 951 125 944 q 113 967 113 958 q 119 983 113 977 q 135 990 125 990 l 675 990 q 691 983 684 990 q 697 967 697 977 q 691 951 697 958 q 675 944 684 944 m 135 0 q 119 6 125 0 q 112 22 113 13 l 112 157 q 115 169 112 164 l 481 810 l 135 810 q 119 816 125 810 q 113 832 113 823 q 119 848 113 842 q 135 855 126 855 l 520 855 q 540 844 532 855 q 543 832 543 838 q 541 821 543 827 l 158 152 l 158 22 q 152 6 158 13 q 135 0 145 0 m 675 -1 l 270 -1 q 254 6 260 -1 q 248 22 248 13 q 254 38 248 32 q 270 45 260 45 l 675 45 q 691 39 684 45 q 697 22 697 32 q 691 6 697 13 q 675 -1 684 -1 m 675 134 l 290 134 q 270 146 278 134 q 267 157 267 151 q 270 169 267 163 l 655 844 q 674 855 662 855 q 686 852 680 855 q 698 831 698 845 q 330 180 698 827 l 675 180 q 691 174 684 180 q 698 157 698 167 q 691 141 698 149 q 675 134 684 134 m 337 1080 q 321 1087 328 1080 q 315 1103 315 1094 q 321 1119 315 1112 l 456 1254 q 473 1261 463 1261 l 608 1261 q 629 1246 621 1261 q 630 1238 630 1242 q 624 1221 630 1229 l 488 1086 q 472 1080 481 1080 q 456 1087 463 1080 q 450 1103 450 1094 q 456 1119 450 1112 l 552 1215 l 482 1215 l 353 1086 q 337 1080 347 1080 z "},"":{"ha":810,"x_min":112,"x_max":698,"o":"m 675 944 l 135 944 q 119 951 125 944 q 113 967 113 958 q 119 983 113 977 q 135 990 125 990 l 675 990 q 691 983 684 990 q 697 967 697 977 q 691 951 697 958 q 675 944 684 944 m 135 0 q 119 6 125 0 q 112 22 113 13 l 112 157 q 115 169 112 164 l 481 810 l 135 810 q 119 816 125 810 q 113 832 113 823 q 119 848 113 842 q 135 855 126 855 l 520 855 q 540 844 532 855 q 543 832 543 838 q 541 821 543 827 l 158 152 l 158 22 q 152 6 158 13 q 135 0 145 0 m 675 -1 l 270 -1 q 254 6 260 -1 q 248 22 248 13 q 254 38 248 32 q 270 45 260 45 l 675 45 q 691 39 684 45 q 697 22 697 32 q 691 6 697 13 q 675 -1 684 -1 m 675 134 l 290 134 q 270 146 278 134 q 267 157 267 151 q 270 169 267 163 l 655 844 q 674 855 662 855 q 686 852 680 855 q 698 831 698 845 q 330 180 698 827 l 675 180 q 691 174 684 180 q 698 157 698 167 q 691 141 698 149 q 675 134 684 134 m 337 1080 q 321 1087 328 1080 q 315 1103 315 1094 q 321 1119 315 1112 l 456 1254 q 473 1261 463 1261 l 608 1261 q 629 1246 621 1261 q 630 1238 630 1242 q 624 1221 630 1229 l 488 1086 q 472 1080 481 1080 q 456 1087 463 1080 q 450 1103 450 1094 q 456 1119 450 1112 l 552 1215 l 482 1215 l 353 1086 q 337 1080 347 1080 z "},"":{"ha":810,"x_min":112,"x_max":698,"o":"m 405 -1 q 258 39 324 -1 q 152 145 191 79 q 112 292 112 212 l 112 697 q 152 844 112 778 q 258 950 191 911 q 405 990 324 990 q 552 950 486 990 q 658 844 618 911 q 698 697 698 778 q 691 681 698 688 q 675 675 684 675 q 659 681 665 675 q 652 697 652 688 q 618 822 652 766 q 529 911 585 878 q 405 944 473 944 q 281 911 337 944 q 191 822 224 878 q 158 697 158 766 l 158 292 q 191 168 158 224 q 281 79 224 112 q 405 45 337 45 q 421 39 414 45 q 428 22 428 32 q 421 6 428 13 q 405 -1 414 -1 m 405 134 q 293 181 340 134 q 247 292 247 227 l 247 697 q 293 809 247 762 q 405 855 340 855 q 516 809 470 855 q 563 697 563 762 q 556 681 563 688 q 540 675 549 675 q 524 681 530 675 q 517 697 517 688 q 484 776 517 743 q 405 809 451 809 q 326 776 359 809 q 293 697 293 743 l 293 292 q 326 213 293 246 q 405 180 359 180 q 421 174 414 180 q 427 157 427 167 q 421 141 427 148 q 405 134 414 134 m 540 0 q 524 6 530 0 q 517 22 517 13 l 517 337 l 405 337 q 389 344 395 337 q 382 359 382 351 q 389 376 382 369 q 405 382 395 382 l 540 382 q 556 376 549 382 q 563 359 563 369 l 563 22 q 556 6 563 13 q 540 0 549 0 m 675 0 q 659 6 665 0 q 652 22 652 13 l 652 472 l 405 472 q 389 479 395 472 q 382 495 382 486 q 389 511 382 504 q 405 517 395 517 l 675 517 q 691 511 684 517 q 698 495 698 504 l 698 22 q 691 6 698 13 q 675 0 684 0 m 337 1080 q 321 1087 328 1080 q 315 1103 315 1094 q 321 1119 315 1112 l 456 1254 q 473 1261 463 1261 l 608 1261 q 629 1246 621 1261 q 630 1238 630 1242 q 624 1221 630 1229 l 488 1086 q 472 1080 481 1080 q 456 1087 463 1080 q 450 1103 450 1094 q 456 1119 450 1112 l 552 1215 l 482 1215 l 353 1086 q 337 1080 347 1080 z "},"":{"ha":810,"x_min":112,"x_max":698,"o":"m 405 -1 q 258 39 324 -1 q 152 145 191 79 q 112 292 112 212 l 112 697 q 152 844 112 778 q 258 950 191 911 q 405 990 324 990 q 552 950 486 990 q 658 844 618 911 q 698 697 698 778 q 691 681 698 688 q 675 675 684 675 q 659 681 665 675 q 652 697 652 688 q 618 822 652 766 q 529 911 585 878 q 405 944 473 944 q 281 911 337 944 q 191 822 224 878 q 158 697 158 766 l 158 292 q 191 168 158 224 q 281 79 224 112 q 405 45 337 45 q 421 39 414 45 q 428 22 428 32 q 421 6 428 13 q 405 -1 414 -1 m 405 134 q 293 181 340 134 q 247 292 247 227 l 247 697 q 293 809 247 762 q 405 855 340 855 q 516 809 470 855 q 563 697 563 762 q 556 681 563 688 q 540 675 549 675 q 524 681 530 675 q 517 697 517 688 q 484 776 517 743 q 405 809 451 809 q 326 776 359 809 q 293 697 293 743 l 293 292 q 326 213 293 246 q 405 180 359 180 q 421 174 414 180 q 427 157 427 167 q 421 141 427 148 q 405 134 414 134 m 540 0 q 524 6 530 0 q 517 22 517 13 l 517 337 l 405 337 q 389 344 395 337 q 382 359 382 351 q 389 376 382 369 q 405 382 395 382 l 540 382 q 556 376 549 382 q 563 359 563 369 l 563 22 q 556 6 563 13 q 540 0 549 0 m 675 0 q 659 6 665 0 q 652 22 652 13 l 652 472 l 405 472 q 389 479 395 472 q 382 495 382 486 q 389 511 382 504 q 405 517 395 517 l 675 517 q 691 511 684 517 q 698 495 698 504 l 698 22 q 691 6 698 13 q 675 0 684 0 m 337 1080 q 321 1087 328 1080 q 315 1103 315 1094 q 321 1119 315 1112 l 456 1254 q 473 1261 463 1261 l 608 1261 q 629 1246 621 1261 q 630 1238 630 1242 q 624 1221 630 1229 l 488 1086 q 472 1080 481 1080 q 456 1087 463 1080 q 450 1103 450 1094 q 456 1119 450 1112 l 552 1215 l 482 1215 l 353 1086 q 337 1080 347 1080 z "},"":{"ha":810,"x_min":112,"x_max":698,"o":"m 270 508 l 264 509 q 247 531 247 513 l 247 968 q 254 983 247 977 q 270 990 260 990 q 286 983 279 990 q 293 968 293 977 l 293 617 l 499 979 q 519 990 507 990 q 530 987 525 990 q 543 967 543 980 q 290 519 543 962 q 270 508 282 508 m 135 0 q 119 7 125 0 q 112 22 112 14 l 112 968 q 119 983 112 977 q 135 990 125 990 q 151 983 144 990 q 158 968 158 977 l 158 22 q 151 7 158 14 q 135 0 144 0 m 524 0 q 503 12 510 0 q 366 292 366 287 q 379 313 366 306 q 389 315 384 315 q 410 303 403 315 q 547 24 547 28 q 534 3 547 9 q 524 0 529 0 m 675 0 q 654 12 661 0 q 450 427 450 422 q 463 448 450 441 q 473 450 468 450 q 493 438 486 450 l 695 33 q 698 22 698 28 q 685 3 698 9 q 675 0 680 0 m 270 0 q 254 7 260 0 q 247 22 247 14 l 247 259 q 655 979 247 264 q 674 990 662 990 q 686 987 680 990 q 698 966 698 980 q 695 956 698 961 l 293 253 l 293 22 q 286 7 293 14 q 270 0 279 0 m 337 1080 q 321 1087 328 1080 q 315 1103 315 1094 q 321 1119 315 1112 l 456 1254 q 473 1261 463 1261 l 608 1261 q 629 1246 621 1261 q 630 1238 630 1242 q 624 1221 630 1229 l 488 1086 q 472 1080 481 1080 q 456 1087 463 1080 q 450 1103 450 1094 q 456 1119 450 1112 l 552 1215 l 482 1215 l 353 1086 q 337 1080 347 1080 z "},"":{"ha":810,"x_min":112,"x_max":698,"o":"m 270 508 l 264 509 q 247 531 247 513 l 247 968 q 254 983 247 977 q 270 990 260 990 q 286 983 279 990 q 293 968 293 977 l 293 617 l 499 979 q 519 990 507 990 q 530 987 525 990 q 543 967 543 980 q 290 519 543 962 q 270 508 282 508 m 135 0 q 119 7 125 0 q 112 22 112 14 l 112 968 q 119 983 112 977 q 135 990 125 990 q 151 983 144 990 q 158 968 158 977 l 158 22 q 151 7 158 14 q 135 0 144 0 m 524 0 q 503 12 510 0 q 366 292 366 287 q 379 313 366 306 q 389 315 384 315 q 410 303 403 315 q 547 24 547 28 q 534 3 547 9 q 524 0 529 0 m 675 0 q 654 12 661 0 q 450 427 450 422 q 463 448 450 441 q 473 450 468 450 q 493 438 486 450 l 695 33 q 698 22 698 28 q 685 3 698 9 q 675 0 680 0 m 270 0 q 254 7 260 0 q 247 22 247 14 l 247 259 q 655 979 247 264 q 674 990 662 990 q 686 987 680 990 q 698 966 698 980 q 695 956 698 961 l 293 253 l 293 22 q 286 7 293 14 q 270 0 279 0 m 337 1080 q 321 1087 328 1080 q 315 1103 315 1094 q 321 1119 315 1112 l 456 1254 q 473 1261 463 1261 l 608 1261 q 629 1246 621 1261 q 630 1238 630 1242 q 624 1221 630 1229 l 488 1086 q 472 1080 481 1080 q 456 1087 463 1080 q 450 1103 450 1094 q 456 1119 450 1112 l 552 1215 l 482 1215 l 353 1086 q 337 1080 347 1080 z "},"":{"ha":945,"x_min":112,"x_max":833,"o":"m 135 0 q 119 6 125 0 q 112 22 112 13 l 112 967 q 119 983 112 977 q 135 990 125 990 q 151 983 144 990 q 158 967 158 977 l 158 22 q 151 6 158 13 q 135 0 144 0 m 402 0 q 380 16 386 0 l 293 321 l 293 22 q 286 6 293 13 q 270 0 279 0 q 254 6 260 0 q 247 22 247 13 l 247 486 q 253 501 247 494 q 271 508 259 508 q 292 492 288 508 q 425 22 425 25 q 421 10 425 17 q 402 0 415 0 m 675 0 q 659 6 665 0 q 652 22 652 13 l 652 321 l 564 16 q 543 0 559 0 q 536 1 539 0 q 519 23 519 5 q 652 492 519 26 q 674 508 658 508 q 691 501 685 508 q 698 486 698 494 l 698 22 q 691 6 698 13 q 675 0 684 0 m 472 245 q 450 262 457 245 q 250 967 250 963 q 254 979 250 973 q 273 990 259 990 q 294 974 290 990 l 472 352 l 650 974 q 671 990 656 990 q 678 989 674 990 q 695 966 695 984 q 494 262 695 963 q 472 245 488 245 m 810 0 q 793 6 800 0 q 787 22 787 13 l 787 967 q 793 983 787 977 q 810 990 800 990 q 826 983 819 990 q 833 967 833 977 l 833 22 q 826 6 833 13 q 810 0 819 0 m 405 1080 q 389 1087 396 1080 q 382 1103 382 1094 q 389 1119 382 1112 l 524 1254 q 541 1261 531 1261 l 675 1261 q 696 1246 689 1261 q 698 1238 698 1242 q 692 1221 698 1229 l 556 1086 q 540 1080 549 1080 q 524 1087 531 1080 q 517 1103 517 1094 q 524 1119 517 1112 l 620 1215 l 550 1215 l 421 1086 q 405 1080 414 1080 z "}}}
